G04 #@! TF.FileFunction,Legend,Top*
%FSLAX46Y46*%
G04 Gerber Fmt 4.6, Leading zero omitted, Abs format (unit mm)*
G04 Created by KiCad (PCBNEW 4.0.1-stable) date 04-Oct-16 9:16:03 AM*
%MOMM*%
G01*
G04 APERTURE LIST*
%ADD10C,0.150000*%
%ADD11C,0.254000*%
%ADD12C,0.381000*%
%ADD13C,0.444500*%
%ADD14C,0.203200*%
%ADD15C,0.127000*%
%ADD16C,0.063500*%
%ADD17C,0.200660*%
%ADD18C,0.050800*%
G04 APERTURE END LIST*
D10*
D11*
X58259501Y-38200786D02*
X57485406Y-38491071D01*
X58259501Y-38781357D01*
X58743311Y-38491071D02*
X59517406Y-38491071D01*
X60339882Y-38345929D02*
X60485025Y-38394310D01*
X60533406Y-38442690D01*
X60581787Y-38539452D01*
X60581787Y-38684595D01*
X60533406Y-38781357D01*
X60485025Y-38829738D01*
X60388263Y-38878119D01*
X60001216Y-38878119D01*
X60001216Y-37862119D01*
X60339882Y-37862119D01*
X60436644Y-37910500D01*
X60485025Y-37958881D01*
X60533406Y-38055643D01*
X60533406Y-38152405D01*
X60485025Y-38249167D01*
X60436644Y-38297548D01*
X60339882Y-38345929D01*
X60001216Y-38345929D01*
X61162359Y-38878119D02*
X61065597Y-38829738D01*
X61017216Y-38781357D01*
X60968835Y-38684595D01*
X60968835Y-38394310D01*
X61017216Y-38297548D01*
X61065597Y-38249167D01*
X61162359Y-38200786D01*
X61307501Y-38200786D01*
X61404263Y-38249167D01*
X61452644Y-38297548D01*
X61501025Y-38394310D01*
X61501025Y-38684595D01*
X61452644Y-38781357D01*
X61404263Y-38829738D01*
X61307501Y-38878119D01*
X61162359Y-38878119D01*
X62081597Y-38878119D02*
X61984835Y-38829738D01*
X61936454Y-38781357D01*
X61888073Y-38684595D01*
X61888073Y-38394310D01*
X61936454Y-38297548D01*
X61984835Y-38249167D01*
X62081597Y-38200786D01*
X62226739Y-38200786D01*
X62323501Y-38249167D01*
X62371882Y-38297548D01*
X62420263Y-38394310D01*
X62420263Y-38684595D01*
X62371882Y-38781357D01*
X62323501Y-38829738D01*
X62226739Y-38878119D01*
X62081597Y-38878119D01*
X62710549Y-38200786D02*
X63097597Y-38200786D01*
X62855692Y-37862119D02*
X62855692Y-38732976D01*
X62904073Y-38829738D01*
X63000835Y-38878119D01*
X63097597Y-38878119D01*
X64500643Y-37862119D02*
X64500643Y-38587833D01*
X64452263Y-38732976D01*
X64355501Y-38829738D01*
X64210358Y-38878119D01*
X64113596Y-38878119D01*
X65419881Y-38200786D02*
X65419881Y-38878119D01*
X64984453Y-38200786D02*
X64984453Y-38732976D01*
X65032834Y-38829738D01*
X65129596Y-38878119D01*
X65274738Y-38878119D01*
X65371500Y-38829738D01*
X65419881Y-38781357D01*
X65903691Y-38878119D02*
X65903691Y-38200786D01*
X65903691Y-38297548D02*
X65952072Y-38249167D01*
X66048834Y-38200786D01*
X66193976Y-38200786D01*
X66290738Y-38249167D01*
X66339119Y-38345929D01*
X66339119Y-38878119D01*
X66339119Y-38345929D02*
X66387500Y-38249167D01*
X66484262Y-38200786D01*
X66629405Y-38200786D01*
X66726167Y-38249167D01*
X66774548Y-38345929D01*
X66774548Y-38878119D01*
X67258358Y-38200786D02*
X67258358Y-39216786D01*
X67258358Y-38249167D02*
X67355120Y-38200786D01*
X67548643Y-38200786D01*
X67645405Y-38249167D01*
X67693786Y-38297548D01*
X67742167Y-38394310D01*
X67742167Y-38684595D01*
X67693786Y-38781357D01*
X67645405Y-38829738D01*
X67548643Y-38878119D01*
X67355120Y-38878119D01*
X67258358Y-38829738D01*
X68564643Y-38829738D02*
X68467881Y-38878119D01*
X68274358Y-38878119D01*
X68177596Y-38829738D01*
X68129215Y-38732976D01*
X68129215Y-38345929D01*
X68177596Y-38249167D01*
X68274358Y-38200786D01*
X68467881Y-38200786D01*
X68564643Y-38249167D01*
X68613024Y-38345929D01*
X68613024Y-38442690D01*
X68129215Y-38539452D01*
X69048453Y-38878119D02*
X69048453Y-38200786D01*
X69048453Y-38394310D02*
X69096834Y-38297548D01*
X69145215Y-38249167D01*
X69241977Y-38200786D01*
X69338738Y-38200786D01*
X127332381Y-79581619D02*
X126993715Y-79097810D01*
X126751810Y-79581619D02*
X126751810Y-78565619D01*
X127138857Y-78565619D01*
X127235619Y-78614000D01*
X127284000Y-78662381D01*
X127332381Y-78759143D01*
X127332381Y-78904286D01*
X127284000Y-79001048D01*
X127235619Y-79049429D01*
X127138857Y-79097810D01*
X126751810Y-79097810D01*
X127767810Y-79049429D02*
X128106476Y-79049429D01*
X128251619Y-79581619D02*
X127767810Y-79581619D01*
X127767810Y-78565619D01*
X128251619Y-78565619D01*
X128638667Y-79533238D02*
X128783810Y-79581619D01*
X129025714Y-79581619D01*
X129122476Y-79533238D01*
X129170857Y-79484857D01*
X129219238Y-79388095D01*
X129219238Y-79291333D01*
X129170857Y-79194571D01*
X129122476Y-79146190D01*
X129025714Y-79097810D01*
X128832191Y-79049429D01*
X128735429Y-79001048D01*
X128687048Y-78952667D01*
X128638667Y-78855905D01*
X128638667Y-78759143D01*
X128687048Y-78662381D01*
X128735429Y-78614000D01*
X128832191Y-78565619D01*
X129074095Y-78565619D01*
X129219238Y-78614000D01*
X129654667Y-79049429D02*
X129993333Y-79049429D01*
X130138476Y-79581619D02*
X129654667Y-79581619D01*
X129654667Y-78565619D01*
X130138476Y-78565619D01*
X130428762Y-78565619D02*
X131009333Y-78565619D01*
X130719048Y-79581619D02*
X130719048Y-78565619D01*
X128892667Y-88701429D02*
X129037810Y-88749810D01*
X129086191Y-88798190D01*
X129134572Y-88894952D01*
X129134572Y-89040095D01*
X129086191Y-89136857D01*
X129037810Y-89185238D01*
X128941048Y-89233619D01*
X128554001Y-89233619D01*
X128554001Y-88217619D01*
X128892667Y-88217619D01*
X128989429Y-88266000D01*
X129037810Y-88314381D01*
X129086191Y-88411143D01*
X129086191Y-88507905D01*
X129037810Y-88604667D01*
X128989429Y-88653048D01*
X128892667Y-88701429D01*
X128554001Y-88701429D01*
X129328096Y-89330381D02*
X130102191Y-89330381D01*
X130827905Y-89233619D02*
X130344096Y-89233619D01*
X130344096Y-88217619D01*
X131166572Y-88701429D02*
X131505238Y-88701429D01*
X131650381Y-89233619D02*
X131166572Y-89233619D01*
X131166572Y-88217619D01*
X131650381Y-88217619D01*
X132085810Y-89233619D02*
X132085810Y-88217619D01*
X132327715Y-88217619D01*
X132472857Y-88266000D01*
X132569619Y-88362762D01*
X132618000Y-88459524D01*
X132666381Y-88653048D01*
X132666381Y-88798190D01*
X132618000Y-88991714D01*
X132569619Y-89088476D01*
X132472857Y-89185238D01*
X132327715Y-89233619D01*
X132085810Y-89233619D01*
X112213334Y-81057238D02*
X112358477Y-81105619D01*
X112600381Y-81105619D01*
X112697143Y-81057238D01*
X112745524Y-81008857D01*
X112793905Y-80912095D01*
X112793905Y-80815333D01*
X112745524Y-80718571D01*
X112697143Y-80670190D01*
X112600381Y-80621810D01*
X112406858Y-80573429D01*
X112310096Y-80525048D01*
X112261715Y-80476667D01*
X112213334Y-80379905D01*
X112213334Y-80283143D01*
X112261715Y-80186381D01*
X112310096Y-80138000D01*
X112406858Y-80089619D01*
X112648762Y-80089619D01*
X112793905Y-80138000D01*
X113132572Y-80089619D02*
X113374477Y-81105619D01*
X113568000Y-80379905D01*
X113761524Y-81105619D01*
X114003429Y-80089619D01*
X114342096Y-80186381D02*
X114390477Y-80138000D01*
X114487239Y-80089619D01*
X114729143Y-80089619D01*
X114825905Y-80138000D01*
X114874286Y-80186381D01*
X114922667Y-80283143D01*
X114922667Y-80379905D01*
X114874286Y-80525048D01*
X114293715Y-81105619D01*
X114922667Y-81105619D01*
X102561334Y-81057238D02*
X102706477Y-81105619D01*
X102948381Y-81105619D01*
X103045143Y-81057238D01*
X103093524Y-81008857D01*
X103141905Y-80912095D01*
X103141905Y-80815333D01*
X103093524Y-80718571D01*
X103045143Y-80670190D01*
X102948381Y-80621810D01*
X102754858Y-80573429D01*
X102658096Y-80525048D01*
X102609715Y-80476667D01*
X102561334Y-80379905D01*
X102561334Y-80283143D01*
X102609715Y-80186381D01*
X102658096Y-80138000D01*
X102754858Y-80089619D01*
X102996762Y-80089619D01*
X103141905Y-80138000D01*
X103480572Y-80089619D02*
X103722477Y-81105619D01*
X103916000Y-80379905D01*
X104109524Y-81105619D01*
X104351429Y-80089619D01*
X105270667Y-81105619D02*
X104690096Y-81105619D01*
X104980382Y-81105619D02*
X104980382Y-80089619D01*
X104883620Y-80234762D01*
X104786858Y-80331524D01*
X104690096Y-80379905D01*
X95413048Y-78311619D02*
X94929239Y-78311619D01*
X94929239Y-77295619D01*
X95751715Y-77779429D02*
X96090381Y-77779429D01*
X96235524Y-78311619D02*
X95751715Y-78311619D01*
X95751715Y-77295619D01*
X96235524Y-77295619D01*
X96670953Y-78311619D02*
X96670953Y-77295619D01*
X96912858Y-77295619D01*
X97058000Y-77344000D01*
X97154762Y-77440762D01*
X97203143Y-77537524D01*
X97251524Y-77731048D01*
X97251524Y-77876190D01*
X97203143Y-78069714D01*
X97154762Y-78166476D01*
X97058000Y-78263238D01*
X96912858Y-78311619D01*
X96670953Y-78311619D01*
X97638572Y-77392381D02*
X97686953Y-77344000D01*
X97783715Y-77295619D01*
X98025619Y-77295619D01*
X98122381Y-77344000D01*
X98170762Y-77392381D01*
X98219143Y-77489143D01*
X98219143Y-77585905D01*
X98170762Y-77731048D01*
X97590191Y-78311619D01*
X98219143Y-78311619D01*
X89825048Y-78311619D02*
X89341239Y-78311619D01*
X89341239Y-77295619D01*
X90163715Y-77779429D02*
X90502381Y-77779429D01*
X90647524Y-78311619D02*
X90163715Y-78311619D01*
X90163715Y-77295619D01*
X90647524Y-77295619D01*
X91082953Y-78311619D02*
X91082953Y-77295619D01*
X91324858Y-77295619D01*
X91470000Y-77344000D01*
X91566762Y-77440762D01*
X91615143Y-77537524D01*
X91663524Y-77731048D01*
X91663524Y-77876190D01*
X91615143Y-78069714D01*
X91566762Y-78166476D01*
X91470000Y-78263238D01*
X91324858Y-78311619D01*
X91082953Y-78311619D01*
X92631143Y-78311619D02*
X92050572Y-78311619D01*
X92340858Y-78311619D02*
X92340858Y-77295619D01*
X92244096Y-77440762D01*
X92147334Y-77537524D01*
X92050572Y-77585905D01*
D12*
X47500000Y-101000000D02*
X130500000Y-101000000D01*
X44000000Y-34500000D02*
X44000000Y-97500000D01*
X48500000Y-31000000D02*
X47500000Y-31000000D01*
X130500000Y-31000000D02*
X48500000Y-31000000D01*
X134000000Y-97500000D02*
X134000000Y-34500000D01*
X130500000Y-101000000D02*
G75*
G03X134000000Y-97500000I0J3500000D01*
G01*
X44000000Y-97500000D02*
G75*
G03X47500000Y-101000000I3500000J0D01*
G01*
X47500000Y-31000000D02*
G75*
G03X44000000Y-34500000I0J-3500000D01*
G01*
X134000000Y-34500000D02*
G75*
G03X130500000Y-31000000I-3500000J0D01*
G01*
D13*
X50702999Y-33529000D02*
X51295666Y-33529000D01*
X51549666Y-34460333D02*
X50702999Y-34460333D01*
X50702999Y-32682333D01*
X51549666Y-32682333D01*
X52142333Y-34460333D02*
X53073666Y-33275000D01*
X52142333Y-33275000D02*
X53073666Y-34460333D01*
X53750999Y-33275000D02*
X53750999Y-35053000D01*
X53750999Y-33359667D02*
X53920333Y-33275000D01*
X54258999Y-33275000D01*
X54428333Y-33359667D01*
X54512999Y-33444333D01*
X54597666Y-33613667D01*
X54597666Y-34121667D01*
X54512999Y-34291000D01*
X54428333Y-34375667D01*
X54258999Y-34460333D01*
X53920333Y-34460333D01*
X53750999Y-34375667D01*
X55613666Y-34460333D02*
X55444333Y-34375667D01*
X55359666Y-34206333D01*
X55359666Y-32682333D01*
X56544999Y-34460333D02*
X56375666Y-34375667D01*
X56290999Y-34291000D01*
X56206333Y-34121667D01*
X56206333Y-33613667D01*
X56290999Y-33444333D01*
X56375666Y-33359667D01*
X56544999Y-33275000D01*
X56798999Y-33275000D01*
X56968333Y-33359667D01*
X57052999Y-33444333D01*
X57137666Y-33613667D01*
X57137666Y-34121667D01*
X57052999Y-34291000D01*
X56968333Y-34375667D01*
X56798999Y-34460333D01*
X56544999Y-34460333D01*
X57899666Y-34460333D02*
X57899666Y-33275000D01*
X57899666Y-33613667D02*
X57984333Y-33444333D01*
X58069000Y-33359667D01*
X58238333Y-33275000D01*
X58407666Y-33275000D01*
X59677667Y-34375667D02*
X59508333Y-34460333D01*
X59169667Y-34460333D01*
X59000333Y-34375667D01*
X58915667Y-34206333D01*
X58915667Y-33529000D01*
X59000333Y-33359667D01*
X59169667Y-33275000D01*
X59508333Y-33275000D01*
X59677667Y-33359667D01*
X59762333Y-33529000D01*
X59762333Y-33698333D01*
X58915667Y-33867667D01*
X61794334Y-34375667D02*
X62048334Y-34460333D01*
X62471667Y-34460333D01*
X62641000Y-34375667D01*
X62725667Y-34291000D01*
X62810334Y-34121667D01*
X62810334Y-33952333D01*
X62725667Y-33783000D01*
X62641000Y-33698333D01*
X62471667Y-33613667D01*
X62133000Y-33529000D01*
X61963667Y-33444333D01*
X61879000Y-33359667D01*
X61794334Y-33190333D01*
X61794334Y-33021000D01*
X61879000Y-32851667D01*
X61963667Y-32767000D01*
X62133000Y-32682333D01*
X62556334Y-32682333D01*
X62810334Y-32767000D01*
X63318333Y-33275000D02*
X63995667Y-33275000D01*
X63572333Y-32682333D02*
X63572333Y-34206333D01*
X63657000Y-34375667D01*
X63826333Y-34460333D01*
X63995667Y-34460333D01*
X65350333Y-34460333D02*
X65350333Y-33529000D01*
X65265667Y-33359667D01*
X65096333Y-33275000D01*
X64757667Y-33275000D01*
X64588333Y-33359667D01*
X65350333Y-34375667D02*
X65181000Y-34460333D01*
X64757667Y-34460333D01*
X64588333Y-34375667D01*
X64503667Y-34206333D01*
X64503667Y-34037000D01*
X64588333Y-33867667D01*
X64757667Y-33783000D01*
X65181000Y-33783000D01*
X65350333Y-33698333D01*
X66197000Y-34460333D02*
X66197000Y-33275000D01*
X66197000Y-33613667D02*
X66281667Y-33444333D01*
X66366334Y-33359667D01*
X66535667Y-33275000D01*
X66705000Y-33275000D01*
X67043667Y-33275000D02*
X67721001Y-33275000D01*
X67297667Y-32682333D02*
X67297667Y-34206333D01*
X67382334Y-34375667D01*
X67551667Y-34460333D01*
X67721001Y-34460333D01*
X68991001Y-34375667D02*
X68821667Y-34460333D01*
X68483001Y-34460333D01*
X68313667Y-34375667D01*
X68229001Y-34206333D01*
X68229001Y-33529000D01*
X68313667Y-33359667D01*
X68483001Y-33275000D01*
X68821667Y-33275000D01*
X68991001Y-33359667D01*
X69075667Y-33529000D01*
X69075667Y-33698333D01*
X68229001Y-33867667D01*
X69837667Y-34460333D02*
X69837667Y-33275000D01*
X69837667Y-33613667D02*
X69922334Y-33444333D01*
X70007001Y-33359667D01*
X70176334Y-33275000D01*
X70345667Y-33275000D01*
X72293001Y-34460333D02*
X72293001Y-32682333D01*
X72970335Y-32682333D01*
X73139668Y-32767000D01*
X73224335Y-32851667D01*
X73309001Y-33021000D01*
X73309001Y-33275000D01*
X73224335Y-33444333D01*
X73139668Y-33529000D01*
X72970335Y-33613667D01*
X72293001Y-33613667D01*
X74071001Y-34460333D02*
X74071001Y-32682333D01*
X75933668Y-34291000D02*
X75849002Y-34375667D01*
X75595002Y-34460333D01*
X75425668Y-34460333D01*
X75171668Y-34375667D01*
X75002335Y-34206333D01*
X74917668Y-34037000D01*
X74833002Y-33698333D01*
X74833002Y-33444333D01*
X74917668Y-33105667D01*
X75002335Y-32936333D01*
X75171668Y-32767000D01*
X75425668Y-32682333D01*
X75595002Y-32682333D01*
X75849002Y-32767000D01*
X75933668Y-32851667D01*
D11*
X78933286Y-87800333D02*
X79417095Y-87800333D01*
X78836524Y-88090619D02*
X79175191Y-87074619D01*
X79513857Y-88090619D01*
X79852524Y-88090619D02*
X79852524Y-87074619D01*
X80094429Y-87074619D01*
X80239571Y-87123000D01*
X80336333Y-87219762D01*
X80384714Y-87316524D01*
X80433095Y-87510048D01*
X80433095Y-87655190D01*
X80384714Y-87848714D01*
X80336333Y-87945476D01*
X80239571Y-88042238D01*
X80094429Y-88090619D01*
X79852524Y-88090619D01*
X81449095Y-87993857D02*
X81400714Y-88042238D01*
X81255571Y-88090619D01*
X81158809Y-88090619D01*
X81013667Y-88042238D01*
X80916905Y-87945476D01*
X80868524Y-87848714D01*
X80820143Y-87655190D01*
X80820143Y-87510048D01*
X80868524Y-87316524D01*
X80916905Y-87219762D01*
X81013667Y-87123000D01*
X81158809Y-87074619D01*
X81255571Y-87074619D01*
X81400714Y-87123000D01*
X81449095Y-87171381D01*
X82078048Y-87074619D02*
X82174809Y-87074619D01*
X82271571Y-87123000D01*
X82319952Y-87171381D01*
X82368333Y-87268143D01*
X82416714Y-87461667D01*
X82416714Y-87703571D01*
X82368333Y-87897095D01*
X82319952Y-87993857D01*
X82271571Y-88042238D01*
X82174809Y-88090619D01*
X82078048Y-88090619D01*
X81981286Y-88042238D01*
X81932905Y-87993857D01*
X81884524Y-87897095D01*
X81836143Y-87703571D01*
X81836143Y-87461667D01*
X81884524Y-87268143D01*
X81932905Y-87171381D01*
X81981286Y-87123000D01*
X82078048Y-87074619D01*
X70194476Y-87963619D02*
X69710667Y-87963619D01*
X69710667Y-86947619D01*
X71113714Y-87866857D02*
X71065333Y-87915238D01*
X70920190Y-87963619D01*
X70823428Y-87963619D01*
X70678286Y-87915238D01*
X70581524Y-87818476D01*
X70533143Y-87721714D01*
X70484762Y-87528190D01*
X70484762Y-87383048D01*
X70533143Y-87189524D01*
X70581524Y-87092762D01*
X70678286Y-86996000D01*
X70823428Y-86947619D01*
X70920190Y-86947619D01*
X71065333Y-86996000D01*
X71113714Y-87044381D01*
X71549143Y-87963619D02*
X71549143Y-86947619D01*
X71791048Y-86947619D01*
X71936190Y-86996000D01*
X72032952Y-87092762D01*
X72081333Y-87189524D01*
X72129714Y-87383048D01*
X72129714Y-87528190D01*
X72081333Y-87721714D01*
X72032952Y-87818476D01*
X71936190Y-87915238D01*
X71791048Y-87963619D01*
X71549143Y-87963619D01*
X74403619Y-91410762D02*
X75419619Y-91072095D01*
X74403619Y-90733429D01*
X75419619Y-90394762D02*
X74403619Y-90394762D01*
X75419619Y-89910952D02*
X74403619Y-89910952D01*
X75419619Y-89330381D01*
X74403619Y-89330381D01*
X71912000Y-90818095D02*
X71863619Y-90914857D01*
X71863619Y-91060000D01*
X71912000Y-91205142D01*
X72008762Y-91301904D01*
X72105524Y-91350285D01*
X72299048Y-91398666D01*
X72444190Y-91398666D01*
X72637714Y-91350285D01*
X72734476Y-91301904D01*
X72831238Y-91205142D01*
X72879619Y-91060000D01*
X72879619Y-90963238D01*
X72831238Y-90818095D01*
X72782857Y-90769714D01*
X72444190Y-90769714D01*
X72444190Y-90963238D01*
X72879619Y-90334285D02*
X71863619Y-90334285D01*
X72879619Y-89753714D01*
X71863619Y-89753714D01*
X72879619Y-89269904D02*
X71863619Y-89269904D01*
X71863619Y-89027999D01*
X71912000Y-88882857D01*
X72008762Y-88786095D01*
X72105524Y-88737714D01*
X72299048Y-88689333D01*
X72444190Y-88689333D01*
X72637714Y-88737714D01*
X72734476Y-88786095D01*
X72831238Y-88882857D01*
X72879619Y-89027999D01*
X72879619Y-89269904D01*
X69952571Y-91350285D02*
X69952571Y-90576190D01*
X70339619Y-90963238D02*
X69565524Y-90963238D01*
X69323619Y-89608571D02*
X69323619Y-90092380D01*
X69807429Y-90140761D01*
X69759048Y-90092380D01*
X69710667Y-89995618D01*
X69710667Y-89753714D01*
X69759048Y-89656952D01*
X69807429Y-89608571D01*
X69904190Y-89560190D01*
X70146095Y-89560190D01*
X70242857Y-89608571D01*
X70291238Y-89656952D01*
X70339619Y-89753714D01*
X70339619Y-89995618D01*
X70291238Y-90092380D01*
X70242857Y-90140761D01*
X69323619Y-89269904D02*
X70339619Y-88931237D01*
X69323619Y-88592571D01*
X49318096Y-73957333D02*
X49801905Y-73957333D01*
X49221334Y-74247619D02*
X49560001Y-73231619D01*
X49898667Y-74247619D01*
X50237334Y-73231619D02*
X50237334Y-74054095D01*
X50285715Y-74150857D01*
X50334096Y-74199238D01*
X50430858Y-74247619D01*
X50624381Y-74247619D01*
X50721143Y-74199238D01*
X50769524Y-74150857D01*
X50817905Y-74054095D01*
X50817905Y-73231619D01*
X51204953Y-73231619D02*
X51882286Y-74247619D01*
X51882286Y-73231619D02*
X51204953Y-74247619D01*
X49293905Y-71707619D02*
X49293905Y-70691619D01*
X49680952Y-70691619D01*
X49777714Y-70740000D01*
X49826095Y-70788381D01*
X49874476Y-70885143D01*
X49874476Y-71030286D01*
X49826095Y-71127048D01*
X49777714Y-71175429D01*
X49680952Y-71223810D01*
X49293905Y-71223810D01*
X50842095Y-70740000D02*
X50745333Y-70691619D01*
X50600190Y-70691619D01*
X50455048Y-70740000D01*
X50358286Y-70836762D01*
X50309905Y-70933524D01*
X50261524Y-71127048D01*
X50261524Y-71272190D01*
X50309905Y-71465714D01*
X50358286Y-71562476D01*
X50455048Y-71659238D01*
X50600190Y-71707619D01*
X50696952Y-71707619D01*
X50842095Y-71659238D01*
X50890476Y-71610857D01*
X50890476Y-71272190D01*
X50696952Y-71272190D01*
X51906476Y-71610857D02*
X51858095Y-71659238D01*
X51712952Y-71707619D01*
X51616190Y-71707619D01*
X51471048Y-71659238D01*
X51374286Y-71562476D01*
X51325905Y-71465714D01*
X51277524Y-71272190D01*
X51277524Y-71127048D01*
X51325905Y-70933524D01*
X51374286Y-70836762D01*
X51471048Y-70740000D01*
X51616190Y-70691619D01*
X51712952Y-70691619D01*
X51858095Y-70740000D01*
X51906476Y-70788381D01*
X49293905Y-69167619D02*
X49293905Y-68151619D01*
X49680952Y-68151619D01*
X49777714Y-68200000D01*
X49826095Y-68248381D01*
X49874476Y-68345143D01*
X49874476Y-68490286D01*
X49826095Y-68587048D01*
X49777714Y-68635429D01*
X49680952Y-68683810D01*
X49293905Y-68683810D01*
X50842095Y-68200000D02*
X50745333Y-68151619D01*
X50600190Y-68151619D01*
X50455048Y-68200000D01*
X50358286Y-68296762D01*
X50309905Y-68393524D01*
X50261524Y-68587048D01*
X50261524Y-68732190D01*
X50309905Y-68925714D01*
X50358286Y-69022476D01*
X50455048Y-69119238D01*
X50600190Y-69167619D01*
X50696952Y-69167619D01*
X50842095Y-69119238D01*
X50890476Y-69070857D01*
X50890476Y-68732190D01*
X50696952Y-68732190D01*
X51325905Y-69167619D02*
X51325905Y-68151619D01*
X51567810Y-68151619D01*
X51712952Y-68200000D01*
X51809714Y-68296762D01*
X51858095Y-68393524D01*
X51906476Y-68587048D01*
X51906476Y-68732190D01*
X51858095Y-68925714D01*
X51809714Y-69022476D01*
X51712952Y-69119238D01*
X51567810Y-69167619D01*
X51325905Y-69167619D01*
X49801905Y-65406000D02*
X49705143Y-65357619D01*
X49560000Y-65357619D01*
X49414858Y-65406000D01*
X49318096Y-65502762D01*
X49269715Y-65599524D01*
X49221334Y-65793048D01*
X49221334Y-65938190D01*
X49269715Y-66131714D01*
X49318096Y-66228476D01*
X49414858Y-66325238D01*
X49560000Y-66373619D01*
X49656762Y-66373619D01*
X49801905Y-66325238D01*
X49850286Y-66276857D01*
X49850286Y-65938190D01*
X49656762Y-65938190D01*
X50285715Y-66373619D02*
X50285715Y-65357619D01*
X50866286Y-66373619D01*
X50866286Y-65357619D01*
X51350096Y-66373619D02*
X51350096Y-65357619D01*
X51592001Y-65357619D01*
X51737143Y-65406000D01*
X51833905Y-65502762D01*
X51882286Y-65599524D01*
X51930667Y-65793048D01*
X51930667Y-65938190D01*
X51882286Y-66131714D01*
X51833905Y-66228476D01*
X51737143Y-66325238D01*
X51592001Y-66373619D01*
X51350096Y-66373619D01*
X49221334Y-63071619D02*
X49560001Y-64087619D01*
X49898667Y-63071619D01*
X50817905Y-63990857D02*
X50769524Y-64039238D01*
X50624381Y-64087619D01*
X50527619Y-64087619D01*
X50382477Y-64039238D01*
X50285715Y-63942476D01*
X50237334Y-63845714D01*
X50188953Y-63652190D01*
X50188953Y-63507048D01*
X50237334Y-63313524D01*
X50285715Y-63216762D01*
X50382477Y-63120000D01*
X50527619Y-63071619D01*
X50624381Y-63071619D01*
X50769524Y-63120000D01*
X50817905Y-63168381D01*
X51833905Y-63990857D02*
X51785524Y-64039238D01*
X51640381Y-64087619D01*
X51543619Y-64087619D01*
X51398477Y-64039238D01*
X51301715Y-63942476D01*
X51253334Y-63845714D01*
X51204953Y-63652190D01*
X51204953Y-63507048D01*
X51253334Y-63313524D01*
X51301715Y-63216762D01*
X51398477Y-63120000D01*
X51543619Y-63071619D01*
X51640381Y-63071619D01*
X51785524Y-63120000D01*
X51833905Y-63168381D01*
X49064096Y-61547619D02*
X49064096Y-60531619D01*
X49402762Y-61257333D01*
X49741429Y-60531619D01*
X49741429Y-61547619D01*
X50805810Y-61450857D02*
X50757429Y-61499238D01*
X50612286Y-61547619D01*
X50515524Y-61547619D01*
X50370382Y-61499238D01*
X50273620Y-61402476D01*
X50225239Y-61305714D01*
X50176858Y-61112190D01*
X50176858Y-60967048D01*
X50225239Y-60773524D01*
X50273620Y-60676762D01*
X50370382Y-60580000D01*
X50515524Y-60531619D01*
X50612286Y-60531619D01*
X50757429Y-60580000D01*
X50805810Y-60628381D01*
X51725048Y-61547619D02*
X51241239Y-61547619D01*
X51241239Y-60531619D01*
X52644286Y-61547619D02*
X52305620Y-61063810D01*
X52063715Y-61547619D02*
X52063715Y-60531619D01*
X52450762Y-60531619D01*
X52547524Y-60580000D01*
X52595905Y-60628381D01*
X52644286Y-60725143D01*
X52644286Y-60870286D01*
X52595905Y-60967048D01*
X52547524Y-61015429D01*
X52450762Y-61063810D01*
X52063715Y-61063810D01*
X78975619Y-37889333D02*
X78491810Y-38227999D01*
X78975619Y-38469904D02*
X77959619Y-38469904D01*
X77959619Y-38082857D01*
X78008000Y-37986095D01*
X78056381Y-37937714D01*
X78153143Y-37889333D01*
X78298286Y-37889333D01*
X78395048Y-37937714D01*
X78443429Y-37986095D01*
X78491810Y-38082857D01*
X78491810Y-38469904D01*
X78443429Y-37115238D02*
X78491810Y-36970095D01*
X78540190Y-36921714D01*
X78636952Y-36873333D01*
X78782095Y-36873333D01*
X78878857Y-36921714D01*
X78927238Y-36970095D01*
X78975619Y-37066857D01*
X78975619Y-37453904D01*
X77959619Y-37453904D01*
X77959619Y-37115238D01*
X78008000Y-37018476D01*
X78056381Y-36970095D01*
X78153143Y-36921714D01*
X78249905Y-36921714D01*
X78346667Y-36970095D01*
X78395048Y-37018476D01*
X78443429Y-37115238D01*
X78443429Y-37453904D01*
X77959619Y-36244380D02*
X77959619Y-36147619D01*
X78008000Y-36050857D01*
X78056381Y-36002476D01*
X78153143Y-35954095D01*
X78346667Y-35905714D01*
X78588571Y-35905714D01*
X78782095Y-35954095D01*
X78878857Y-36002476D01*
X78927238Y-36050857D01*
X78975619Y-36147619D01*
X78975619Y-36244380D01*
X78927238Y-36341142D01*
X78878857Y-36389523D01*
X78782095Y-36437904D01*
X78588571Y-36486285D01*
X78346667Y-36486285D01*
X78153143Y-36437904D01*
X78056381Y-36389523D01*
X78008000Y-36341142D01*
X77959619Y-36244380D01*
X81515619Y-37889333D02*
X81031810Y-38227999D01*
X81515619Y-38469904D02*
X80499619Y-38469904D01*
X80499619Y-38082857D01*
X80548000Y-37986095D01*
X80596381Y-37937714D01*
X80693143Y-37889333D01*
X80838286Y-37889333D01*
X80935048Y-37937714D01*
X80983429Y-37986095D01*
X81031810Y-38082857D01*
X81031810Y-38469904D01*
X80983429Y-37115238D02*
X81031810Y-36970095D01*
X81080190Y-36921714D01*
X81176952Y-36873333D01*
X81322095Y-36873333D01*
X81418857Y-36921714D01*
X81467238Y-36970095D01*
X81515619Y-37066857D01*
X81515619Y-37453904D01*
X80499619Y-37453904D01*
X80499619Y-37115238D01*
X80548000Y-37018476D01*
X80596381Y-36970095D01*
X80693143Y-36921714D01*
X80789905Y-36921714D01*
X80886667Y-36970095D01*
X80935048Y-37018476D01*
X80983429Y-37115238D01*
X80983429Y-37453904D01*
X81515619Y-35905714D02*
X81515619Y-36486285D01*
X81515619Y-36195999D02*
X80499619Y-36195999D01*
X80644762Y-36292761D01*
X80741524Y-36389523D01*
X80789905Y-36486285D01*
X84055619Y-37889333D02*
X83571810Y-38227999D01*
X84055619Y-38469904D02*
X83039619Y-38469904D01*
X83039619Y-38082857D01*
X83088000Y-37986095D01*
X83136381Y-37937714D01*
X83233143Y-37889333D01*
X83378286Y-37889333D01*
X83475048Y-37937714D01*
X83523429Y-37986095D01*
X83571810Y-38082857D01*
X83571810Y-38469904D01*
X83523429Y-37115238D02*
X83571810Y-36970095D01*
X83620190Y-36921714D01*
X83716952Y-36873333D01*
X83862095Y-36873333D01*
X83958857Y-36921714D01*
X84007238Y-36970095D01*
X84055619Y-37066857D01*
X84055619Y-37453904D01*
X83039619Y-37453904D01*
X83039619Y-37115238D01*
X83088000Y-37018476D01*
X83136381Y-36970095D01*
X83233143Y-36921714D01*
X83329905Y-36921714D01*
X83426667Y-36970095D01*
X83475048Y-37018476D01*
X83523429Y-37115238D01*
X83523429Y-37453904D01*
X83136381Y-36486285D02*
X83088000Y-36437904D01*
X83039619Y-36341142D01*
X83039619Y-36099238D01*
X83088000Y-36002476D01*
X83136381Y-35954095D01*
X83233143Y-35905714D01*
X83329905Y-35905714D01*
X83475048Y-35954095D01*
X84055619Y-36534666D01*
X84055619Y-35905714D01*
X86595619Y-37889333D02*
X86111810Y-38227999D01*
X86595619Y-38469904D02*
X85579619Y-38469904D01*
X85579619Y-38082857D01*
X85628000Y-37986095D01*
X85676381Y-37937714D01*
X85773143Y-37889333D01*
X85918286Y-37889333D01*
X86015048Y-37937714D01*
X86063429Y-37986095D01*
X86111810Y-38082857D01*
X86111810Y-38469904D01*
X86063429Y-37115238D02*
X86111810Y-36970095D01*
X86160190Y-36921714D01*
X86256952Y-36873333D01*
X86402095Y-36873333D01*
X86498857Y-36921714D01*
X86547238Y-36970095D01*
X86595619Y-37066857D01*
X86595619Y-37453904D01*
X85579619Y-37453904D01*
X85579619Y-37115238D01*
X85628000Y-37018476D01*
X85676381Y-36970095D01*
X85773143Y-36921714D01*
X85869905Y-36921714D01*
X85966667Y-36970095D01*
X86015048Y-37018476D01*
X86063429Y-37115238D01*
X86063429Y-37453904D01*
X85579619Y-36534666D02*
X85579619Y-35905714D01*
X85966667Y-36244380D01*
X85966667Y-36099238D01*
X86015048Y-36002476D01*
X86063429Y-35954095D01*
X86160190Y-35905714D01*
X86402095Y-35905714D01*
X86498857Y-35954095D01*
X86547238Y-36002476D01*
X86595619Y-36099238D01*
X86595619Y-36389523D01*
X86547238Y-36486285D01*
X86498857Y-36534666D01*
X89135619Y-37889333D02*
X88651810Y-38227999D01*
X89135619Y-38469904D02*
X88119619Y-38469904D01*
X88119619Y-38082857D01*
X88168000Y-37986095D01*
X88216381Y-37937714D01*
X88313143Y-37889333D01*
X88458286Y-37889333D01*
X88555048Y-37937714D01*
X88603429Y-37986095D01*
X88651810Y-38082857D01*
X88651810Y-38469904D01*
X88603429Y-37115238D02*
X88651810Y-36970095D01*
X88700190Y-36921714D01*
X88796952Y-36873333D01*
X88942095Y-36873333D01*
X89038857Y-36921714D01*
X89087238Y-36970095D01*
X89135619Y-37066857D01*
X89135619Y-37453904D01*
X88119619Y-37453904D01*
X88119619Y-37115238D01*
X88168000Y-37018476D01*
X88216381Y-36970095D01*
X88313143Y-36921714D01*
X88409905Y-36921714D01*
X88506667Y-36970095D01*
X88555048Y-37018476D01*
X88603429Y-37115238D01*
X88603429Y-37453904D01*
X88458286Y-36002476D02*
X89135619Y-36002476D01*
X88071238Y-36244380D02*
X88796952Y-36486285D01*
X88796952Y-35857333D01*
X91675619Y-37889333D02*
X91191810Y-38227999D01*
X91675619Y-38469904D02*
X90659619Y-38469904D01*
X90659619Y-38082857D01*
X90708000Y-37986095D01*
X90756381Y-37937714D01*
X90853143Y-37889333D01*
X90998286Y-37889333D01*
X91095048Y-37937714D01*
X91143429Y-37986095D01*
X91191810Y-38082857D01*
X91191810Y-38469904D01*
X91143429Y-37115238D02*
X91191810Y-36970095D01*
X91240190Y-36921714D01*
X91336952Y-36873333D01*
X91482095Y-36873333D01*
X91578857Y-36921714D01*
X91627238Y-36970095D01*
X91675619Y-37066857D01*
X91675619Y-37453904D01*
X90659619Y-37453904D01*
X90659619Y-37115238D01*
X90708000Y-37018476D01*
X90756381Y-36970095D01*
X90853143Y-36921714D01*
X90949905Y-36921714D01*
X91046667Y-36970095D01*
X91095048Y-37018476D01*
X91143429Y-37115238D01*
X91143429Y-37453904D01*
X90659619Y-35954095D02*
X90659619Y-36437904D01*
X91143429Y-36486285D01*
X91095048Y-36437904D01*
X91046667Y-36341142D01*
X91046667Y-36099238D01*
X91095048Y-36002476D01*
X91143429Y-35954095D01*
X91240190Y-35905714D01*
X91482095Y-35905714D01*
X91578857Y-35954095D01*
X91627238Y-36002476D01*
X91675619Y-36099238D01*
X91675619Y-36341142D01*
X91627238Y-36437904D01*
X91578857Y-36486285D01*
X94215619Y-37889333D02*
X93731810Y-38227999D01*
X94215619Y-38469904D02*
X93199619Y-38469904D01*
X93199619Y-38082857D01*
X93248000Y-37986095D01*
X93296381Y-37937714D01*
X93393143Y-37889333D01*
X93538286Y-37889333D01*
X93635048Y-37937714D01*
X93683429Y-37986095D01*
X93731810Y-38082857D01*
X93731810Y-38469904D01*
X93683429Y-37115238D02*
X93731810Y-36970095D01*
X93780190Y-36921714D01*
X93876952Y-36873333D01*
X94022095Y-36873333D01*
X94118857Y-36921714D01*
X94167238Y-36970095D01*
X94215619Y-37066857D01*
X94215619Y-37453904D01*
X93199619Y-37453904D01*
X93199619Y-37115238D01*
X93248000Y-37018476D01*
X93296381Y-36970095D01*
X93393143Y-36921714D01*
X93489905Y-36921714D01*
X93586667Y-36970095D01*
X93635048Y-37018476D01*
X93683429Y-37115238D01*
X93683429Y-37453904D01*
X93199619Y-36002476D02*
X93199619Y-36195999D01*
X93248000Y-36292761D01*
X93296381Y-36341142D01*
X93441524Y-36437904D01*
X93635048Y-36486285D01*
X94022095Y-36486285D01*
X94118857Y-36437904D01*
X94167238Y-36389523D01*
X94215619Y-36292761D01*
X94215619Y-36099238D01*
X94167238Y-36002476D01*
X94118857Y-35954095D01*
X94022095Y-35905714D01*
X93780190Y-35905714D01*
X93683429Y-35954095D01*
X93635048Y-36002476D01*
X93586667Y-36099238D01*
X93586667Y-36292761D01*
X93635048Y-36389523D01*
X93683429Y-36437904D01*
X93780190Y-36486285D01*
X96755619Y-37889333D02*
X96271810Y-38227999D01*
X96755619Y-38469904D02*
X95739619Y-38469904D01*
X95739619Y-38082857D01*
X95788000Y-37986095D01*
X95836381Y-37937714D01*
X95933143Y-37889333D01*
X96078286Y-37889333D01*
X96175048Y-37937714D01*
X96223429Y-37986095D01*
X96271810Y-38082857D01*
X96271810Y-38469904D01*
X96223429Y-37115238D02*
X96271810Y-36970095D01*
X96320190Y-36921714D01*
X96416952Y-36873333D01*
X96562095Y-36873333D01*
X96658857Y-36921714D01*
X96707238Y-36970095D01*
X96755619Y-37066857D01*
X96755619Y-37453904D01*
X95739619Y-37453904D01*
X95739619Y-37115238D01*
X95788000Y-37018476D01*
X95836381Y-36970095D01*
X95933143Y-36921714D01*
X96029905Y-36921714D01*
X96126667Y-36970095D01*
X96175048Y-37018476D01*
X96223429Y-37115238D01*
X96223429Y-37453904D01*
X95739619Y-36534666D02*
X95739619Y-35857333D01*
X96755619Y-36292761D01*
X106661619Y-37889333D02*
X106177810Y-38227999D01*
X106661619Y-38469904D02*
X105645619Y-38469904D01*
X105645619Y-38082857D01*
X105694000Y-37986095D01*
X105742381Y-37937714D01*
X105839143Y-37889333D01*
X105984286Y-37889333D01*
X106081048Y-37937714D01*
X106129429Y-37986095D01*
X106177810Y-38082857D01*
X106177810Y-38469904D01*
X106661619Y-37453904D02*
X105645619Y-37453904D01*
X105645619Y-37211999D01*
X105694000Y-37066857D01*
X105790762Y-36970095D01*
X105887524Y-36921714D01*
X106081048Y-36873333D01*
X106226190Y-36873333D01*
X106419714Y-36921714D01*
X106516476Y-36970095D01*
X106613238Y-37066857D01*
X106661619Y-37211999D01*
X106661619Y-37453904D01*
X105645619Y-36534666D02*
X105645619Y-35857333D01*
X106661619Y-36292761D01*
X109201619Y-37889333D02*
X108717810Y-38227999D01*
X109201619Y-38469904D02*
X108185619Y-38469904D01*
X108185619Y-38082857D01*
X108234000Y-37986095D01*
X108282381Y-37937714D01*
X108379143Y-37889333D01*
X108524286Y-37889333D01*
X108621048Y-37937714D01*
X108669429Y-37986095D01*
X108717810Y-38082857D01*
X108717810Y-38469904D01*
X109201619Y-37453904D02*
X108185619Y-37453904D01*
X108185619Y-37211999D01*
X108234000Y-37066857D01*
X108330762Y-36970095D01*
X108427524Y-36921714D01*
X108621048Y-36873333D01*
X108766190Y-36873333D01*
X108959714Y-36921714D01*
X109056476Y-36970095D01*
X109153238Y-37066857D01*
X109201619Y-37211999D01*
X109201619Y-37453904D01*
X108185619Y-36002476D02*
X108185619Y-36195999D01*
X108234000Y-36292761D01*
X108282381Y-36341142D01*
X108427524Y-36437904D01*
X108621048Y-36486285D01*
X109008095Y-36486285D01*
X109104857Y-36437904D01*
X109153238Y-36389523D01*
X109201619Y-36292761D01*
X109201619Y-36099238D01*
X109153238Y-36002476D01*
X109104857Y-35954095D01*
X109008095Y-35905714D01*
X108766190Y-35905714D01*
X108669429Y-35954095D01*
X108621048Y-36002476D01*
X108572667Y-36099238D01*
X108572667Y-36292761D01*
X108621048Y-36389523D01*
X108669429Y-36437904D01*
X108766190Y-36486285D01*
X111741619Y-37889333D02*
X111257810Y-38227999D01*
X111741619Y-38469904D02*
X110725619Y-38469904D01*
X110725619Y-38082857D01*
X110774000Y-37986095D01*
X110822381Y-37937714D01*
X110919143Y-37889333D01*
X111064286Y-37889333D01*
X111161048Y-37937714D01*
X111209429Y-37986095D01*
X111257810Y-38082857D01*
X111257810Y-38469904D01*
X111741619Y-37453904D02*
X110725619Y-37453904D01*
X110725619Y-37211999D01*
X110774000Y-37066857D01*
X110870762Y-36970095D01*
X110967524Y-36921714D01*
X111161048Y-36873333D01*
X111306190Y-36873333D01*
X111499714Y-36921714D01*
X111596476Y-36970095D01*
X111693238Y-37066857D01*
X111741619Y-37211999D01*
X111741619Y-37453904D01*
X110725619Y-35954095D02*
X110725619Y-36437904D01*
X111209429Y-36486285D01*
X111161048Y-36437904D01*
X111112667Y-36341142D01*
X111112667Y-36099238D01*
X111161048Y-36002476D01*
X111209429Y-35954095D01*
X111306190Y-35905714D01*
X111548095Y-35905714D01*
X111644857Y-35954095D01*
X111693238Y-36002476D01*
X111741619Y-36099238D01*
X111741619Y-36341142D01*
X111693238Y-36437904D01*
X111644857Y-36486285D01*
X114281619Y-37889333D02*
X113797810Y-38227999D01*
X114281619Y-38469904D02*
X113265619Y-38469904D01*
X113265619Y-38082857D01*
X113314000Y-37986095D01*
X113362381Y-37937714D01*
X113459143Y-37889333D01*
X113604286Y-37889333D01*
X113701048Y-37937714D01*
X113749429Y-37986095D01*
X113797810Y-38082857D01*
X113797810Y-38469904D01*
X114281619Y-37453904D02*
X113265619Y-37453904D01*
X113265619Y-37211999D01*
X113314000Y-37066857D01*
X113410762Y-36970095D01*
X113507524Y-36921714D01*
X113701048Y-36873333D01*
X113846190Y-36873333D01*
X114039714Y-36921714D01*
X114136476Y-36970095D01*
X114233238Y-37066857D01*
X114281619Y-37211999D01*
X114281619Y-37453904D01*
X113604286Y-36002476D02*
X114281619Y-36002476D01*
X113217238Y-36244380D02*
X113942952Y-36486285D01*
X113942952Y-35857333D01*
X116821619Y-37889333D02*
X116337810Y-38227999D01*
X116821619Y-38469904D02*
X115805619Y-38469904D01*
X115805619Y-38082857D01*
X115854000Y-37986095D01*
X115902381Y-37937714D01*
X115999143Y-37889333D01*
X116144286Y-37889333D01*
X116241048Y-37937714D01*
X116289429Y-37986095D01*
X116337810Y-38082857D01*
X116337810Y-38469904D01*
X116821619Y-37453904D02*
X115805619Y-37453904D01*
X115805619Y-37211999D01*
X115854000Y-37066857D01*
X115950762Y-36970095D01*
X116047524Y-36921714D01*
X116241048Y-36873333D01*
X116386190Y-36873333D01*
X116579714Y-36921714D01*
X116676476Y-36970095D01*
X116773238Y-37066857D01*
X116821619Y-37211999D01*
X116821619Y-37453904D01*
X115805619Y-36534666D02*
X115805619Y-35905714D01*
X116192667Y-36244380D01*
X116192667Y-36099238D01*
X116241048Y-36002476D01*
X116289429Y-35954095D01*
X116386190Y-35905714D01*
X116628095Y-35905714D01*
X116724857Y-35954095D01*
X116773238Y-36002476D01*
X116821619Y-36099238D01*
X116821619Y-36389523D01*
X116773238Y-36486285D01*
X116724857Y-36534666D01*
X119361619Y-37889333D02*
X118877810Y-38227999D01*
X119361619Y-38469904D02*
X118345619Y-38469904D01*
X118345619Y-38082857D01*
X118394000Y-37986095D01*
X118442381Y-37937714D01*
X118539143Y-37889333D01*
X118684286Y-37889333D01*
X118781048Y-37937714D01*
X118829429Y-37986095D01*
X118877810Y-38082857D01*
X118877810Y-38469904D01*
X119361619Y-37453904D02*
X118345619Y-37453904D01*
X118345619Y-37211999D01*
X118394000Y-37066857D01*
X118490762Y-36970095D01*
X118587524Y-36921714D01*
X118781048Y-36873333D01*
X118926190Y-36873333D01*
X119119714Y-36921714D01*
X119216476Y-36970095D01*
X119313238Y-37066857D01*
X119361619Y-37211999D01*
X119361619Y-37453904D01*
X118442381Y-36486285D02*
X118394000Y-36437904D01*
X118345619Y-36341142D01*
X118345619Y-36099238D01*
X118394000Y-36002476D01*
X118442381Y-35954095D01*
X118539143Y-35905714D01*
X118635905Y-35905714D01*
X118781048Y-35954095D01*
X119361619Y-36534666D01*
X119361619Y-35905714D01*
X121647619Y-37889333D02*
X121163810Y-38227999D01*
X121647619Y-38469904D02*
X120631619Y-38469904D01*
X120631619Y-38082857D01*
X120680000Y-37986095D01*
X120728381Y-37937714D01*
X120825143Y-37889333D01*
X120970286Y-37889333D01*
X121067048Y-37937714D01*
X121115429Y-37986095D01*
X121163810Y-38082857D01*
X121163810Y-38469904D01*
X121647619Y-37453904D02*
X120631619Y-37453904D01*
X120631619Y-37211999D01*
X120680000Y-37066857D01*
X120776762Y-36970095D01*
X120873524Y-36921714D01*
X121067048Y-36873333D01*
X121212190Y-36873333D01*
X121405714Y-36921714D01*
X121502476Y-36970095D01*
X121599238Y-37066857D01*
X121647619Y-37211999D01*
X121647619Y-37453904D01*
X121647619Y-35905714D02*
X121647619Y-36486285D01*
X121647619Y-36195999D02*
X120631619Y-36195999D01*
X120776762Y-36292761D01*
X120873524Y-36389523D01*
X120921905Y-36486285D01*
X124441619Y-37889333D02*
X123957810Y-38227999D01*
X124441619Y-38469904D02*
X123425619Y-38469904D01*
X123425619Y-38082857D01*
X123474000Y-37986095D01*
X123522381Y-37937714D01*
X123619143Y-37889333D01*
X123764286Y-37889333D01*
X123861048Y-37937714D01*
X123909429Y-37986095D01*
X123957810Y-38082857D01*
X123957810Y-38469904D01*
X124441619Y-37453904D02*
X123425619Y-37453904D01*
X123425619Y-37211999D01*
X123474000Y-37066857D01*
X123570762Y-36970095D01*
X123667524Y-36921714D01*
X123861048Y-36873333D01*
X124006190Y-36873333D01*
X124199714Y-36921714D01*
X124296476Y-36970095D01*
X124393238Y-37066857D01*
X124441619Y-37211999D01*
X124441619Y-37453904D01*
X123425619Y-36244380D02*
X123425619Y-36147619D01*
X123474000Y-36050857D01*
X123522381Y-36002476D01*
X123619143Y-35954095D01*
X123812667Y-35905714D01*
X124054571Y-35905714D01*
X124248095Y-35954095D01*
X124344857Y-36002476D01*
X124393238Y-36050857D01*
X124441619Y-36147619D01*
X124441619Y-36244380D01*
X124393238Y-36341142D01*
X124344857Y-36389523D01*
X124248095Y-36437904D01*
X124054571Y-36486285D01*
X123812667Y-36486285D01*
X123619143Y-36437904D01*
X123522381Y-36389523D01*
X123474000Y-36341142D01*
X123425619Y-36244380D01*
X124441619Y-95547333D02*
X123957810Y-95885999D01*
X124441619Y-96127904D02*
X123425619Y-96127904D01*
X123425619Y-95740857D01*
X123474000Y-95644095D01*
X123522381Y-95595714D01*
X123619143Y-95547333D01*
X123764286Y-95547333D01*
X123861048Y-95595714D01*
X123909429Y-95644095D01*
X123957810Y-95740857D01*
X123957810Y-96127904D01*
X124344857Y-94531333D02*
X124393238Y-94579714D01*
X124441619Y-94724857D01*
X124441619Y-94821619D01*
X124393238Y-94966761D01*
X124296476Y-95063523D01*
X124199714Y-95111904D01*
X124006190Y-95160285D01*
X123861048Y-95160285D01*
X123667524Y-95111904D01*
X123570762Y-95063523D01*
X123474000Y-94966761D01*
X123425619Y-94821619D01*
X123425619Y-94724857D01*
X123474000Y-94579714D01*
X123522381Y-94531333D01*
X123425619Y-94192666D02*
X123425619Y-93515333D01*
X124441619Y-93950761D01*
X121901619Y-95547333D02*
X121417810Y-95885999D01*
X121901619Y-96127904D02*
X120885619Y-96127904D01*
X120885619Y-95740857D01*
X120934000Y-95644095D01*
X120982381Y-95595714D01*
X121079143Y-95547333D01*
X121224286Y-95547333D01*
X121321048Y-95595714D01*
X121369429Y-95644095D01*
X121417810Y-95740857D01*
X121417810Y-96127904D01*
X121804857Y-94531333D02*
X121853238Y-94579714D01*
X121901619Y-94724857D01*
X121901619Y-94821619D01*
X121853238Y-94966761D01*
X121756476Y-95063523D01*
X121659714Y-95111904D01*
X121466190Y-95160285D01*
X121321048Y-95160285D01*
X121127524Y-95111904D01*
X121030762Y-95063523D01*
X120934000Y-94966761D01*
X120885619Y-94821619D01*
X120885619Y-94724857D01*
X120934000Y-94579714D01*
X120982381Y-94531333D01*
X120885619Y-93660476D02*
X120885619Y-93853999D01*
X120934000Y-93950761D01*
X120982381Y-93999142D01*
X121127524Y-94095904D01*
X121321048Y-94144285D01*
X121708095Y-94144285D01*
X121804857Y-94095904D01*
X121853238Y-94047523D01*
X121901619Y-93950761D01*
X121901619Y-93757238D01*
X121853238Y-93660476D01*
X121804857Y-93612095D01*
X121708095Y-93563714D01*
X121466190Y-93563714D01*
X121369429Y-93612095D01*
X121321048Y-93660476D01*
X121272667Y-93757238D01*
X121272667Y-93950761D01*
X121321048Y-94047523D01*
X121369429Y-94095904D01*
X121466190Y-94144285D01*
X119107619Y-95547333D02*
X118623810Y-95885999D01*
X119107619Y-96127904D02*
X118091619Y-96127904D01*
X118091619Y-95740857D01*
X118140000Y-95644095D01*
X118188381Y-95595714D01*
X118285143Y-95547333D01*
X118430286Y-95547333D01*
X118527048Y-95595714D01*
X118575429Y-95644095D01*
X118623810Y-95740857D01*
X118623810Y-96127904D01*
X119010857Y-94531333D02*
X119059238Y-94579714D01*
X119107619Y-94724857D01*
X119107619Y-94821619D01*
X119059238Y-94966761D01*
X118962476Y-95063523D01*
X118865714Y-95111904D01*
X118672190Y-95160285D01*
X118527048Y-95160285D01*
X118333524Y-95111904D01*
X118236762Y-95063523D01*
X118140000Y-94966761D01*
X118091619Y-94821619D01*
X118091619Y-94724857D01*
X118140000Y-94579714D01*
X118188381Y-94531333D01*
X118091619Y-93612095D02*
X118091619Y-94095904D01*
X118575429Y-94144285D01*
X118527048Y-94095904D01*
X118478667Y-93999142D01*
X118478667Y-93757238D01*
X118527048Y-93660476D01*
X118575429Y-93612095D01*
X118672190Y-93563714D01*
X118914095Y-93563714D01*
X119010857Y-93612095D01*
X119059238Y-93660476D01*
X119107619Y-93757238D01*
X119107619Y-93999142D01*
X119059238Y-94095904D01*
X119010857Y-94144285D01*
X116821619Y-95547333D02*
X116337810Y-95885999D01*
X116821619Y-96127904D02*
X115805619Y-96127904D01*
X115805619Y-95740857D01*
X115854000Y-95644095D01*
X115902381Y-95595714D01*
X115999143Y-95547333D01*
X116144286Y-95547333D01*
X116241048Y-95595714D01*
X116289429Y-95644095D01*
X116337810Y-95740857D01*
X116337810Y-96127904D01*
X116724857Y-94531333D02*
X116773238Y-94579714D01*
X116821619Y-94724857D01*
X116821619Y-94821619D01*
X116773238Y-94966761D01*
X116676476Y-95063523D01*
X116579714Y-95111904D01*
X116386190Y-95160285D01*
X116241048Y-95160285D01*
X116047524Y-95111904D01*
X115950762Y-95063523D01*
X115854000Y-94966761D01*
X115805619Y-94821619D01*
X115805619Y-94724857D01*
X115854000Y-94579714D01*
X115902381Y-94531333D01*
X116144286Y-93660476D02*
X116821619Y-93660476D01*
X115757238Y-93902380D02*
X116482952Y-94144285D01*
X116482952Y-93515333D01*
X114281619Y-95547333D02*
X113797810Y-95885999D01*
X114281619Y-96127904D02*
X113265619Y-96127904D01*
X113265619Y-95740857D01*
X113314000Y-95644095D01*
X113362381Y-95595714D01*
X113459143Y-95547333D01*
X113604286Y-95547333D01*
X113701048Y-95595714D01*
X113749429Y-95644095D01*
X113797810Y-95740857D01*
X113797810Y-96127904D01*
X114184857Y-94531333D02*
X114233238Y-94579714D01*
X114281619Y-94724857D01*
X114281619Y-94821619D01*
X114233238Y-94966761D01*
X114136476Y-95063523D01*
X114039714Y-95111904D01*
X113846190Y-95160285D01*
X113701048Y-95160285D01*
X113507524Y-95111904D01*
X113410762Y-95063523D01*
X113314000Y-94966761D01*
X113265619Y-94821619D01*
X113265619Y-94724857D01*
X113314000Y-94579714D01*
X113362381Y-94531333D01*
X113265619Y-94192666D02*
X113265619Y-93563714D01*
X113652667Y-93902380D01*
X113652667Y-93757238D01*
X113701048Y-93660476D01*
X113749429Y-93612095D01*
X113846190Y-93563714D01*
X114088095Y-93563714D01*
X114184857Y-93612095D01*
X114233238Y-93660476D01*
X114281619Y-93757238D01*
X114281619Y-94047523D01*
X114233238Y-94144285D01*
X114184857Y-94192666D01*
X111741619Y-95547333D02*
X111257810Y-95885999D01*
X111741619Y-96127904D02*
X110725619Y-96127904D01*
X110725619Y-95740857D01*
X110774000Y-95644095D01*
X110822381Y-95595714D01*
X110919143Y-95547333D01*
X111064286Y-95547333D01*
X111161048Y-95595714D01*
X111209429Y-95644095D01*
X111257810Y-95740857D01*
X111257810Y-96127904D01*
X111644857Y-94531333D02*
X111693238Y-94579714D01*
X111741619Y-94724857D01*
X111741619Y-94821619D01*
X111693238Y-94966761D01*
X111596476Y-95063523D01*
X111499714Y-95111904D01*
X111306190Y-95160285D01*
X111161048Y-95160285D01*
X110967524Y-95111904D01*
X110870762Y-95063523D01*
X110774000Y-94966761D01*
X110725619Y-94821619D01*
X110725619Y-94724857D01*
X110774000Y-94579714D01*
X110822381Y-94531333D01*
X110822381Y-94144285D02*
X110774000Y-94095904D01*
X110725619Y-93999142D01*
X110725619Y-93757238D01*
X110774000Y-93660476D01*
X110822381Y-93612095D01*
X110919143Y-93563714D01*
X111015905Y-93563714D01*
X111161048Y-93612095D01*
X111741619Y-94192666D01*
X111741619Y-93563714D01*
X109201619Y-95547333D02*
X108717810Y-95885999D01*
X109201619Y-96127904D02*
X108185619Y-96127904D01*
X108185619Y-95740857D01*
X108234000Y-95644095D01*
X108282381Y-95595714D01*
X108379143Y-95547333D01*
X108524286Y-95547333D01*
X108621048Y-95595714D01*
X108669429Y-95644095D01*
X108717810Y-95740857D01*
X108717810Y-96127904D01*
X109104857Y-94531333D02*
X109153238Y-94579714D01*
X109201619Y-94724857D01*
X109201619Y-94821619D01*
X109153238Y-94966761D01*
X109056476Y-95063523D01*
X108959714Y-95111904D01*
X108766190Y-95160285D01*
X108621048Y-95160285D01*
X108427524Y-95111904D01*
X108330762Y-95063523D01*
X108234000Y-94966761D01*
X108185619Y-94821619D01*
X108185619Y-94724857D01*
X108234000Y-94579714D01*
X108282381Y-94531333D01*
X109201619Y-93563714D02*
X109201619Y-94144285D01*
X109201619Y-93853999D02*
X108185619Y-93853999D01*
X108330762Y-93950761D01*
X108427524Y-94047523D01*
X108475905Y-94144285D01*
X106661619Y-95547333D02*
X106177810Y-95885999D01*
X106661619Y-96127904D02*
X105645619Y-96127904D01*
X105645619Y-95740857D01*
X105694000Y-95644095D01*
X105742381Y-95595714D01*
X105839143Y-95547333D01*
X105984286Y-95547333D01*
X106081048Y-95595714D01*
X106129429Y-95644095D01*
X106177810Y-95740857D01*
X106177810Y-96127904D01*
X106564857Y-94531333D02*
X106613238Y-94579714D01*
X106661619Y-94724857D01*
X106661619Y-94821619D01*
X106613238Y-94966761D01*
X106516476Y-95063523D01*
X106419714Y-95111904D01*
X106226190Y-95160285D01*
X106081048Y-95160285D01*
X105887524Y-95111904D01*
X105790762Y-95063523D01*
X105694000Y-94966761D01*
X105645619Y-94821619D01*
X105645619Y-94724857D01*
X105694000Y-94579714D01*
X105742381Y-94531333D01*
X105645619Y-93902380D02*
X105645619Y-93805619D01*
X105694000Y-93708857D01*
X105742381Y-93660476D01*
X105839143Y-93612095D01*
X106032667Y-93563714D01*
X106274571Y-93563714D01*
X106468095Y-93612095D01*
X106564857Y-93660476D01*
X106613238Y-93708857D01*
X106661619Y-93805619D01*
X106661619Y-93902380D01*
X106613238Y-93999142D01*
X106564857Y-94047523D01*
X106468095Y-94095904D01*
X106274571Y-94144285D01*
X106032667Y-94144285D01*
X105839143Y-94095904D01*
X105742381Y-94047523D01*
X105694000Y-93999142D01*
X105645619Y-93902380D01*
X101581619Y-95571523D02*
X101097810Y-95910189D01*
X101581619Y-96152094D02*
X100565619Y-96152094D01*
X100565619Y-95765047D01*
X100614000Y-95668285D01*
X100662381Y-95619904D01*
X100759143Y-95571523D01*
X100904286Y-95571523D01*
X101001048Y-95619904D01*
X101049429Y-95668285D01*
X101097810Y-95765047D01*
X101097810Y-96152094D01*
X101049429Y-95136094D02*
X101049429Y-94797428D01*
X101581619Y-94652285D02*
X101581619Y-95136094D01*
X100565619Y-95136094D01*
X100565619Y-94652285D01*
X100662381Y-94265237D02*
X100614000Y-94216856D01*
X100565619Y-94120094D01*
X100565619Y-93878190D01*
X100614000Y-93781428D01*
X100662381Y-93733047D01*
X100759143Y-93684666D01*
X100855905Y-93684666D01*
X101001048Y-93733047D01*
X101581619Y-94313618D01*
X101581619Y-93684666D01*
X101968667Y-92958952D02*
X101920286Y-93007332D01*
X101775143Y-93104094D01*
X101678381Y-93152475D01*
X101533238Y-93200856D01*
X101291333Y-93249237D01*
X101097810Y-93249237D01*
X100855905Y-93200856D01*
X100710762Y-93152475D01*
X100614000Y-93104094D01*
X100468857Y-93007332D01*
X100420476Y-92958952D01*
X101291333Y-92620285D02*
X101291333Y-92136476D01*
X101581619Y-92717047D02*
X100565619Y-92378380D01*
X101581619Y-92039714D01*
X100565619Y-91797809D02*
X100565619Y-91120476D01*
X101581619Y-91555904D01*
X101968667Y-90830190D02*
X101920286Y-90781809D01*
X101775143Y-90685047D01*
X101678381Y-90636666D01*
X101533238Y-90588285D01*
X101291333Y-90539904D01*
X101097810Y-90539904D01*
X100855905Y-90588285D01*
X100710762Y-90636666D01*
X100614000Y-90685047D01*
X100468857Y-90781809D01*
X100420476Y-90830190D01*
X99041619Y-95571523D02*
X98557810Y-95910189D01*
X99041619Y-96152094D02*
X98025619Y-96152094D01*
X98025619Y-95765047D01*
X98074000Y-95668285D01*
X98122381Y-95619904D01*
X98219143Y-95571523D01*
X98364286Y-95571523D01*
X98461048Y-95619904D01*
X98509429Y-95668285D01*
X98557810Y-95765047D01*
X98557810Y-96152094D01*
X98509429Y-95136094D02*
X98509429Y-94797428D01*
X99041619Y-94652285D02*
X99041619Y-95136094D01*
X98025619Y-95136094D01*
X98025619Y-94652285D01*
X99041619Y-93684666D02*
X99041619Y-94265237D01*
X99041619Y-93974951D02*
X98025619Y-93974951D01*
X98170762Y-94071713D01*
X98267524Y-94168475D01*
X98315905Y-94265237D01*
X99428667Y-92958952D02*
X99380286Y-93007332D01*
X99235143Y-93104094D01*
X99138381Y-93152475D01*
X98993238Y-93200856D01*
X98751333Y-93249237D01*
X98557810Y-93249237D01*
X98315905Y-93200856D01*
X98170762Y-93152475D01*
X98074000Y-93104094D01*
X97928857Y-93007332D01*
X97880476Y-92958952D01*
X98751333Y-92620285D02*
X98751333Y-92136476D01*
X99041619Y-92717047D02*
X98025619Y-92378380D01*
X99041619Y-92039714D01*
X98025619Y-91265619D02*
X98025619Y-91459142D01*
X98074000Y-91555904D01*
X98122381Y-91604285D01*
X98267524Y-91701047D01*
X98461048Y-91749428D01*
X98848095Y-91749428D01*
X98944857Y-91701047D01*
X98993238Y-91652666D01*
X99041619Y-91555904D01*
X99041619Y-91362381D01*
X98993238Y-91265619D01*
X98944857Y-91217238D01*
X98848095Y-91168857D01*
X98606190Y-91168857D01*
X98509429Y-91217238D01*
X98461048Y-91265619D01*
X98412667Y-91362381D01*
X98412667Y-91555904D01*
X98461048Y-91652666D01*
X98509429Y-91701047D01*
X98606190Y-91749428D01*
X99428667Y-90830190D02*
X99380286Y-90781809D01*
X99235143Y-90685047D01*
X99138381Y-90636666D01*
X98993238Y-90588285D01*
X98751333Y-90539904D01*
X98557810Y-90539904D01*
X98315905Y-90588285D01*
X98170762Y-90636666D01*
X98074000Y-90685047D01*
X97928857Y-90781809D01*
X97880476Y-90830190D01*
X96501619Y-95571523D02*
X96017810Y-95910189D01*
X96501619Y-96152094D02*
X95485619Y-96152094D01*
X95485619Y-95765047D01*
X95534000Y-95668285D01*
X95582381Y-95619904D01*
X95679143Y-95571523D01*
X95824286Y-95571523D01*
X95921048Y-95619904D01*
X95969429Y-95668285D01*
X96017810Y-95765047D01*
X96017810Y-96152094D01*
X95969429Y-95136094D02*
X95969429Y-94797428D01*
X96501619Y-94652285D02*
X96501619Y-95136094D01*
X95485619Y-95136094D01*
X95485619Y-94652285D01*
X95485619Y-94023332D02*
X95485619Y-93926571D01*
X95534000Y-93829809D01*
X95582381Y-93781428D01*
X95679143Y-93733047D01*
X95872667Y-93684666D01*
X96114571Y-93684666D01*
X96308095Y-93733047D01*
X96404857Y-93781428D01*
X96453238Y-93829809D01*
X96501619Y-93926571D01*
X96501619Y-94023332D01*
X96453238Y-94120094D01*
X96404857Y-94168475D01*
X96308095Y-94216856D01*
X96114571Y-94265237D01*
X95872667Y-94265237D01*
X95679143Y-94216856D01*
X95582381Y-94168475D01*
X95534000Y-94120094D01*
X95485619Y-94023332D01*
X96888667Y-92958952D02*
X96840286Y-93007332D01*
X96695143Y-93104094D01*
X96598381Y-93152475D01*
X96453238Y-93200856D01*
X96211333Y-93249237D01*
X96017810Y-93249237D01*
X95775905Y-93200856D01*
X95630762Y-93152475D01*
X95534000Y-93104094D01*
X95388857Y-93007332D01*
X95340476Y-92958952D01*
X96211333Y-92620285D02*
X96211333Y-92136476D01*
X96501619Y-92717047D02*
X95485619Y-92378380D01*
X96501619Y-92039714D01*
X95485619Y-91217238D02*
X95485619Y-91701047D01*
X95969429Y-91749428D01*
X95921048Y-91701047D01*
X95872667Y-91604285D01*
X95872667Y-91362381D01*
X95921048Y-91265619D01*
X95969429Y-91217238D01*
X96066190Y-91168857D01*
X96308095Y-91168857D01*
X96404857Y-91217238D01*
X96453238Y-91265619D01*
X96501619Y-91362381D01*
X96501619Y-91604285D01*
X96453238Y-91701047D01*
X96404857Y-91749428D01*
X96888667Y-90830190D02*
X96840286Y-90781809D01*
X96695143Y-90685047D01*
X96598381Y-90636666D01*
X96453238Y-90588285D01*
X96211333Y-90539904D01*
X96017810Y-90539904D01*
X95775905Y-90588285D01*
X95630762Y-90636666D01*
X95534000Y-90685047D01*
X95388857Y-90781809D01*
X95340476Y-90830190D01*
X93961619Y-95547333D02*
X93477810Y-95885999D01*
X93961619Y-96127904D02*
X92945619Y-96127904D01*
X92945619Y-95740857D01*
X92994000Y-95644095D01*
X93042381Y-95595714D01*
X93139143Y-95547333D01*
X93284286Y-95547333D01*
X93381048Y-95595714D01*
X93429429Y-95644095D01*
X93477810Y-95740857D01*
X93477810Y-96127904D01*
X93671333Y-95160285D02*
X93671333Y-94676476D01*
X93961619Y-95257047D02*
X92945619Y-94918380D01*
X93961619Y-94579714D01*
X92945619Y-93757238D02*
X92945619Y-94241047D01*
X93429429Y-94289428D01*
X93381048Y-94241047D01*
X93332667Y-94144285D01*
X93332667Y-93902381D01*
X93381048Y-93805619D01*
X93429429Y-93757238D01*
X93526190Y-93708857D01*
X93768095Y-93708857D01*
X93864857Y-93757238D01*
X93913238Y-93805619D01*
X93961619Y-93902381D01*
X93961619Y-94144285D01*
X93913238Y-94241047D01*
X93864857Y-94289428D01*
X94348667Y-92983143D02*
X94300286Y-93031523D01*
X94155143Y-93128285D01*
X94058381Y-93176666D01*
X93913238Y-93225047D01*
X93671333Y-93273428D01*
X93477810Y-93273428D01*
X93235905Y-93225047D01*
X93090762Y-93176666D01*
X92994000Y-93128285D01*
X92848857Y-93031523D01*
X92800476Y-92983143D01*
X93671333Y-92644476D02*
X93671333Y-92160667D01*
X93961619Y-92741238D02*
X92945619Y-92402571D01*
X93961619Y-92063905D01*
X93284286Y-91289810D02*
X93961619Y-91289810D01*
X92897238Y-91531714D02*
X93622952Y-91773619D01*
X93622952Y-91144667D01*
X94348667Y-90854381D02*
X94300286Y-90806000D01*
X94155143Y-90709238D01*
X94058381Y-90660857D01*
X93913238Y-90612476D01*
X93671333Y-90564095D01*
X93477810Y-90564095D01*
X93235905Y-90612476D01*
X93090762Y-90660857D01*
X92994000Y-90709238D01*
X92848857Y-90806000D01*
X92800476Y-90854381D01*
X91294619Y-95474762D02*
X90810810Y-95813428D01*
X91294619Y-96055333D02*
X90278619Y-96055333D01*
X90278619Y-95668286D01*
X90327000Y-95571524D01*
X90375381Y-95523143D01*
X90472143Y-95474762D01*
X90617286Y-95474762D01*
X90714048Y-95523143D01*
X90762429Y-95571524D01*
X90810810Y-95668286D01*
X90810810Y-96055333D01*
X91004333Y-95087714D02*
X91004333Y-94603905D01*
X91294619Y-95184476D02*
X90278619Y-94845809D01*
X91294619Y-94507143D01*
X90617286Y-93733048D02*
X91294619Y-93733048D01*
X90230238Y-93974952D02*
X90955952Y-94216857D01*
X90955952Y-93587905D01*
X88881619Y-95547333D02*
X88397810Y-95885999D01*
X88881619Y-96127904D02*
X87865619Y-96127904D01*
X87865619Y-95740857D01*
X87914000Y-95644095D01*
X87962381Y-95595714D01*
X88059143Y-95547333D01*
X88204286Y-95547333D01*
X88301048Y-95595714D01*
X88349429Y-95644095D01*
X88397810Y-95740857D01*
X88397810Y-96127904D01*
X88591333Y-95160285D02*
X88591333Y-94676476D01*
X88881619Y-95257047D02*
X87865619Y-94918380D01*
X88881619Y-94579714D01*
X87865619Y-94337809D02*
X87865619Y-93708857D01*
X88252667Y-94047523D01*
X88252667Y-93902381D01*
X88301048Y-93805619D01*
X88349429Y-93757238D01*
X88446190Y-93708857D01*
X88688095Y-93708857D01*
X88784857Y-93757238D01*
X88833238Y-93805619D01*
X88881619Y-93902381D01*
X88881619Y-94192666D01*
X88833238Y-94289428D01*
X88784857Y-94337809D01*
X89268667Y-92983143D02*
X89220286Y-93031523D01*
X89075143Y-93128285D01*
X88978381Y-93176666D01*
X88833238Y-93225047D01*
X88591333Y-93273428D01*
X88397810Y-93273428D01*
X88155905Y-93225047D01*
X88010762Y-93176666D01*
X87914000Y-93128285D01*
X87768857Y-93031523D01*
X87720476Y-92983143D01*
X88591333Y-92644476D02*
X88591333Y-92160667D01*
X88881619Y-92741238D02*
X87865619Y-92402571D01*
X88881619Y-92063905D01*
X87865619Y-91822000D02*
X87865619Y-91193048D01*
X88252667Y-91531714D01*
X88252667Y-91386572D01*
X88301048Y-91289810D01*
X88349429Y-91241429D01*
X88446190Y-91193048D01*
X88688095Y-91193048D01*
X88784857Y-91241429D01*
X88833238Y-91289810D01*
X88881619Y-91386572D01*
X88881619Y-91676857D01*
X88833238Y-91773619D01*
X88784857Y-91822000D01*
X89268667Y-90854381D02*
X89220286Y-90806000D01*
X89075143Y-90709238D01*
X88978381Y-90660857D01*
X88833238Y-90612476D01*
X88591333Y-90564095D01*
X88397810Y-90564095D01*
X88155905Y-90612476D01*
X88010762Y-90660857D01*
X87914000Y-90709238D01*
X87768857Y-90806000D01*
X87720476Y-90854381D01*
X86341619Y-95547333D02*
X85857810Y-95885999D01*
X86341619Y-96127904D02*
X85325619Y-96127904D01*
X85325619Y-95740857D01*
X85374000Y-95644095D01*
X85422381Y-95595714D01*
X85519143Y-95547333D01*
X85664286Y-95547333D01*
X85761048Y-95595714D01*
X85809429Y-95644095D01*
X85857810Y-95740857D01*
X85857810Y-96127904D01*
X86051333Y-95160285D02*
X86051333Y-94676476D01*
X86341619Y-95257047D02*
X85325619Y-94918380D01*
X86341619Y-94579714D01*
X85422381Y-94289428D02*
X85374000Y-94241047D01*
X85325619Y-94144285D01*
X85325619Y-93902381D01*
X85374000Y-93805619D01*
X85422381Y-93757238D01*
X85519143Y-93708857D01*
X85615905Y-93708857D01*
X85761048Y-93757238D01*
X86341619Y-94337809D01*
X86341619Y-93708857D01*
X86728667Y-92983143D02*
X86680286Y-93031523D01*
X86535143Y-93128285D01*
X86438381Y-93176666D01*
X86293238Y-93225047D01*
X86051333Y-93273428D01*
X85857810Y-93273428D01*
X85615905Y-93225047D01*
X85470762Y-93176666D01*
X85374000Y-93128285D01*
X85228857Y-93031523D01*
X85180476Y-92983143D01*
X86051333Y-92644476D02*
X86051333Y-92160667D01*
X86341619Y-92741238D02*
X85325619Y-92402571D01*
X86341619Y-92063905D01*
X85422381Y-91773619D02*
X85374000Y-91725238D01*
X85325619Y-91628476D01*
X85325619Y-91386572D01*
X85374000Y-91289810D01*
X85422381Y-91241429D01*
X85519143Y-91193048D01*
X85615905Y-91193048D01*
X85761048Y-91241429D01*
X86341619Y-91822000D01*
X86341619Y-91193048D01*
X86728667Y-90854381D02*
X86680286Y-90806000D01*
X86535143Y-90709238D01*
X86438381Y-90660857D01*
X86293238Y-90612476D01*
X86051333Y-90564095D01*
X85857810Y-90564095D01*
X85615905Y-90612476D01*
X85470762Y-90660857D01*
X85374000Y-90709238D01*
X85228857Y-90806000D01*
X85180476Y-90854381D01*
X83801619Y-95547333D02*
X83317810Y-95885999D01*
X83801619Y-96127904D02*
X82785619Y-96127904D01*
X82785619Y-95740857D01*
X82834000Y-95644095D01*
X82882381Y-95595714D01*
X82979143Y-95547333D01*
X83124286Y-95547333D01*
X83221048Y-95595714D01*
X83269429Y-95644095D01*
X83317810Y-95740857D01*
X83317810Y-96127904D01*
X83511333Y-95160285D02*
X83511333Y-94676476D01*
X83801619Y-95257047D02*
X82785619Y-94918380D01*
X83801619Y-94579714D01*
X83801619Y-93708857D02*
X83801619Y-94289428D01*
X83801619Y-93999142D02*
X82785619Y-93999142D01*
X82930762Y-94095904D01*
X83027524Y-94192666D01*
X83075905Y-94289428D01*
X84188667Y-92983143D02*
X84140286Y-93031523D01*
X83995143Y-93128285D01*
X83898381Y-93176666D01*
X83753238Y-93225047D01*
X83511333Y-93273428D01*
X83317810Y-93273428D01*
X83075905Y-93225047D01*
X82930762Y-93176666D01*
X82834000Y-93128285D01*
X82688857Y-93031523D01*
X82640476Y-92983143D01*
X83511333Y-92644476D02*
X83511333Y-92160667D01*
X83801619Y-92741238D02*
X82785619Y-92402571D01*
X83801619Y-92063905D01*
X83801619Y-91193048D02*
X83801619Y-91773619D01*
X83801619Y-91483333D02*
X82785619Y-91483333D01*
X82930762Y-91580095D01*
X83027524Y-91676857D01*
X83075905Y-91773619D01*
X84188667Y-90854381D02*
X84140286Y-90806000D01*
X83995143Y-90709238D01*
X83898381Y-90660857D01*
X83753238Y-90612476D01*
X83511333Y-90564095D01*
X83317810Y-90564095D01*
X83075905Y-90612476D01*
X82930762Y-90660857D01*
X82834000Y-90709238D01*
X82688857Y-90806000D01*
X82640476Y-90854381D01*
X81261619Y-95547333D02*
X80777810Y-95885999D01*
X81261619Y-96127904D02*
X80245619Y-96127904D01*
X80245619Y-95740857D01*
X80294000Y-95644095D01*
X80342381Y-95595714D01*
X80439143Y-95547333D01*
X80584286Y-95547333D01*
X80681048Y-95595714D01*
X80729429Y-95644095D01*
X80777810Y-95740857D01*
X80777810Y-96127904D01*
X80971333Y-95160285D02*
X80971333Y-94676476D01*
X81261619Y-95257047D02*
X80245619Y-94918380D01*
X81261619Y-94579714D01*
X80245619Y-94047523D02*
X80245619Y-93950762D01*
X80294000Y-93854000D01*
X80342381Y-93805619D01*
X80439143Y-93757238D01*
X80632667Y-93708857D01*
X80874571Y-93708857D01*
X81068095Y-93757238D01*
X81164857Y-93805619D01*
X81213238Y-93854000D01*
X81261619Y-93950762D01*
X81261619Y-94047523D01*
X81213238Y-94144285D01*
X81164857Y-94192666D01*
X81068095Y-94241047D01*
X80874571Y-94289428D01*
X80632667Y-94289428D01*
X80439143Y-94241047D01*
X80342381Y-94192666D01*
X80294000Y-94144285D01*
X80245619Y-94047523D01*
X81648667Y-92983143D02*
X81600286Y-93031523D01*
X81455143Y-93128285D01*
X81358381Y-93176666D01*
X81213238Y-93225047D01*
X80971333Y-93273428D01*
X80777810Y-93273428D01*
X80535905Y-93225047D01*
X80390762Y-93176666D01*
X80294000Y-93128285D01*
X80148857Y-93031523D01*
X80100476Y-92983143D01*
X80971333Y-92644476D02*
X80971333Y-92160667D01*
X81261619Y-92741238D02*
X80245619Y-92402571D01*
X81261619Y-92063905D01*
X80245619Y-91531714D02*
X80245619Y-91434953D01*
X80294000Y-91338191D01*
X80342381Y-91289810D01*
X80439143Y-91241429D01*
X80632667Y-91193048D01*
X80874571Y-91193048D01*
X81068095Y-91241429D01*
X81164857Y-91289810D01*
X81213238Y-91338191D01*
X81261619Y-91434953D01*
X81261619Y-91531714D01*
X81213238Y-91628476D01*
X81164857Y-91676857D01*
X81068095Y-91725238D01*
X80874571Y-91773619D01*
X80632667Y-91773619D01*
X80439143Y-91725238D01*
X80342381Y-91676857D01*
X80294000Y-91628476D01*
X80245619Y-91531714D01*
X81648667Y-90854381D02*
X81600286Y-90806000D01*
X81455143Y-90709238D01*
X81358381Y-90660857D01*
X81213238Y-90612476D01*
X80971333Y-90564095D01*
X80777810Y-90564095D01*
X80535905Y-90612476D01*
X80390762Y-90660857D01*
X80294000Y-90709238D01*
X80148857Y-90806000D01*
X80100476Y-90854381D01*
D14*
X44650000Y-41634000D02*
X44142000Y-41634000D01*
X44650000Y-53826000D02*
X44142000Y-53826000D01*
X44142000Y-53826000D02*
X44142000Y-41761000D01*
D10*
X53032000Y-41634000D02*
X47952000Y-41634000D01*
X53032000Y-53826000D02*
X47952000Y-53826000D01*
X53032000Y-41634000D02*
X53032000Y-53826000D01*
D12*
X64264000Y-64881000D02*
X65534000Y-64881000D01*
X65534000Y-64881000D02*
X65534000Y-67421000D01*
X65534000Y-67421000D02*
X64264000Y-67421000D01*
X64264000Y-59801000D02*
X117604000Y-59801000D01*
X117604000Y-59801000D02*
X117604000Y-72501000D01*
X117604000Y-72501000D02*
X64264000Y-72501000D01*
X64264000Y-72501000D02*
X64264000Y-59801000D01*
D10*
X73775000Y-67000000D02*
X73775000Y-65000000D01*
X71725000Y-65000000D02*
X71725000Y-67000000D01*
X68475000Y-65000000D02*
X68475000Y-67000000D01*
X70525000Y-67000000D02*
X70525000Y-65000000D01*
X66250000Y-89475000D02*
X64250000Y-89475000D01*
X64250000Y-91525000D02*
X66250000Y-91525000D01*
X84000000Y-68525000D02*
X86000000Y-68525000D01*
X86000000Y-66475000D02*
X84000000Y-66475000D01*
X84000000Y-65025000D02*
X86000000Y-65025000D01*
X86000000Y-62975000D02*
X84000000Y-62975000D01*
X58168000Y-69580000D02*
X59692000Y-69580000D01*
X60073000Y-69453000D02*
X57787000Y-69453000D01*
X57533000Y-69326000D02*
X60327000Y-69326000D01*
X60581000Y-69199000D02*
X57279000Y-69199000D01*
X57152000Y-69072000D02*
X60708000Y-69072000D01*
X55628000Y-69961000D02*
X62232000Y-69961000D01*
X62232000Y-69961000D02*
X62232000Y-64119000D01*
X62232000Y-64119000D02*
X61470000Y-63357000D01*
X61470000Y-63357000D02*
X56390000Y-63357000D01*
X56390000Y-63357000D02*
X55628000Y-64119000D01*
X55628000Y-64119000D02*
X55628000Y-69961000D01*
X58930000Y-64500000D02*
X58930000Y-65262000D01*
X58549000Y-64881000D02*
X59311000Y-64881000D01*
X61978000Y-66659000D02*
G75*
G03X61978000Y-66659000I-3048000J0D01*
G01*
X98030000Y-62332000D02*
X96030000Y-62332000D01*
X96030000Y-64382000D02*
X98030000Y-64382000D01*
X103142000Y-64382000D02*
X105142000Y-64382000D01*
X105142000Y-62332000D02*
X103142000Y-62332000D01*
X129032000Y-91452000D02*
G75*
G03X129032000Y-91452000I-100000J0D01*
G01*
X130232940Y-90452940D02*
X130431060Y-90452940D01*
X130431060Y-90452940D02*
X130431060Y-90651060D01*
X130232940Y-90651060D02*
X130431060Y-90651060D01*
X130232940Y-90452940D02*
X130232940Y-90651060D01*
X130781580Y-89853500D02*
X131129560Y-89853500D01*
X131129560Y-89853500D02*
X131129560Y-90102420D01*
X130781580Y-90102420D02*
X131129560Y-90102420D01*
X130781580Y-89853500D02*
X130781580Y-90102420D01*
X131129560Y-89853500D02*
X131231160Y-89853500D01*
X131231160Y-89853500D02*
X131231160Y-91049840D01*
X131129560Y-91049840D02*
X131231160Y-91049840D01*
X131129560Y-89853500D02*
X131129560Y-91049840D01*
X131129560Y-91100640D02*
X131231160Y-91100640D01*
X131231160Y-91100640D02*
X131231160Y-91250500D01*
X131129560Y-91250500D02*
X131231160Y-91250500D01*
X131129560Y-91100640D02*
X131129560Y-91250500D01*
X129432840Y-89853500D02*
X129534440Y-89853500D01*
X129534440Y-89853500D02*
X129534440Y-91049840D01*
X129432840Y-91049840D02*
X129534440Y-91049840D01*
X129432840Y-89853500D02*
X129432840Y-91049840D01*
X129432840Y-91100640D02*
X129534440Y-91100640D01*
X129534440Y-91100640D02*
X129534440Y-91250500D01*
X129432840Y-91250500D02*
X129534440Y-91250500D01*
X129432840Y-91100640D02*
X129432840Y-91250500D01*
X130781580Y-89853500D02*
X130931440Y-89853500D01*
X130931440Y-89853500D02*
X130931440Y-90102420D01*
X130781580Y-90102420D02*
X130931440Y-90102420D01*
X130781580Y-89853500D02*
X130781580Y-90102420D01*
X131881400Y-89802700D02*
X128782600Y-89802700D01*
X128782600Y-89802700D02*
X128782600Y-91301300D01*
X128782600Y-91301300D02*
X131881400Y-91301300D01*
X131881400Y-91301300D02*
X131881400Y-89802700D01*
X129784738Y-90052646D02*
G75*
G02X130880640Y-90054160I547262J-499354D01*
G01*
X129783867Y-91050398D02*
G75*
G02X129783360Y-90054160I548133J498398D01*
G01*
X130879262Y-91051354D02*
G75*
G02X129783360Y-91049840I-547262J499354D01*
G01*
X130880133Y-90053602D02*
G75*
G02X130880640Y-91049840I-548133J-498398D01*
G01*
X92000000Y-82400000D02*
G75*
G03X92000000Y-82400000I-100000J0D01*
G01*
X90900940Y-81099060D02*
X90900940Y-80900940D01*
X90900940Y-80900940D02*
X91099060Y-80900940D01*
X91099060Y-81099060D02*
X91099060Y-80900940D01*
X90900940Y-81099060D02*
X91099060Y-81099060D01*
X90301500Y-80550420D02*
X90301500Y-80202440D01*
X90301500Y-80202440D02*
X90550420Y-80202440D01*
X90550420Y-80550420D02*
X90550420Y-80202440D01*
X90301500Y-80550420D02*
X90550420Y-80550420D01*
X90301500Y-80202440D02*
X90301500Y-80100840D01*
X90301500Y-80100840D02*
X91497840Y-80100840D01*
X91497840Y-80202440D02*
X91497840Y-80100840D01*
X90301500Y-80202440D02*
X91497840Y-80202440D01*
X91548640Y-80202440D02*
X91548640Y-80100840D01*
X91548640Y-80100840D02*
X91698500Y-80100840D01*
X91698500Y-80202440D02*
X91698500Y-80100840D01*
X91548640Y-80202440D02*
X91698500Y-80202440D01*
X90301500Y-81899160D02*
X90301500Y-81797560D01*
X90301500Y-81797560D02*
X91497840Y-81797560D01*
X91497840Y-81899160D02*
X91497840Y-81797560D01*
X90301500Y-81899160D02*
X91497840Y-81899160D01*
X91548640Y-81899160D02*
X91548640Y-81797560D01*
X91548640Y-81797560D02*
X91698500Y-81797560D01*
X91698500Y-81899160D02*
X91698500Y-81797560D01*
X91548640Y-81899160D02*
X91698500Y-81899160D01*
X90301500Y-80550420D02*
X90301500Y-80400560D01*
X90301500Y-80400560D02*
X90550420Y-80400560D01*
X90550420Y-80550420D02*
X90550420Y-80400560D01*
X90301500Y-80550420D02*
X90550420Y-80550420D01*
X90250700Y-79450600D02*
X90250700Y-82549400D01*
X90250700Y-82549400D02*
X91749300Y-82549400D01*
X91749300Y-82549400D02*
X91749300Y-79450600D01*
X91749300Y-79450600D02*
X90250700Y-79450600D01*
X90500646Y-81547262D02*
G75*
G02X90502160Y-80451360I499354J547262D01*
G01*
X91498398Y-81548133D02*
G75*
G02X90502160Y-81548640I-498398J548133D01*
G01*
X91499354Y-80452738D02*
G75*
G02X91497840Y-81548640I-499354J-547262D01*
G01*
X90501602Y-80451867D02*
G75*
G02X91497840Y-80451360I498398J-548133D01*
G01*
X97500000Y-82400000D02*
G75*
G03X97500000Y-82400000I-100000J0D01*
G01*
X96400940Y-81099060D02*
X96400940Y-80900940D01*
X96400940Y-80900940D02*
X96599060Y-80900940D01*
X96599060Y-81099060D02*
X96599060Y-80900940D01*
X96400940Y-81099060D02*
X96599060Y-81099060D01*
X95801500Y-80550420D02*
X95801500Y-80202440D01*
X95801500Y-80202440D02*
X96050420Y-80202440D01*
X96050420Y-80550420D02*
X96050420Y-80202440D01*
X95801500Y-80550420D02*
X96050420Y-80550420D01*
X95801500Y-80202440D02*
X95801500Y-80100840D01*
X95801500Y-80100840D02*
X96997840Y-80100840D01*
X96997840Y-80202440D02*
X96997840Y-80100840D01*
X95801500Y-80202440D02*
X96997840Y-80202440D01*
X97048640Y-80202440D02*
X97048640Y-80100840D01*
X97048640Y-80100840D02*
X97198500Y-80100840D01*
X97198500Y-80202440D02*
X97198500Y-80100840D01*
X97048640Y-80202440D02*
X97198500Y-80202440D01*
X95801500Y-81899160D02*
X95801500Y-81797560D01*
X95801500Y-81797560D02*
X96997840Y-81797560D01*
X96997840Y-81899160D02*
X96997840Y-81797560D01*
X95801500Y-81899160D02*
X96997840Y-81899160D01*
X97048640Y-81899160D02*
X97048640Y-81797560D01*
X97048640Y-81797560D02*
X97198500Y-81797560D01*
X97198500Y-81899160D02*
X97198500Y-81797560D01*
X97048640Y-81899160D02*
X97198500Y-81899160D01*
X95801500Y-80550420D02*
X95801500Y-80400560D01*
X95801500Y-80400560D02*
X96050420Y-80400560D01*
X96050420Y-80550420D02*
X96050420Y-80400560D01*
X95801500Y-80550420D02*
X96050420Y-80550420D01*
X95750700Y-79450600D02*
X95750700Y-82549400D01*
X95750700Y-82549400D02*
X97249300Y-82549400D01*
X97249300Y-82549400D02*
X97249300Y-79450600D01*
X97249300Y-79450600D02*
X95750700Y-79450600D01*
X96000646Y-81547262D02*
G75*
G02X96002160Y-80451360I499354J547262D01*
G01*
X96998398Y-81548133D02*
G75*
G02X96002160Y-81548640I-498398J548133D01*
G01*
X96999354Y-80452738D02*
G75*
G02X96997840Y-81548640I-499354J-547262D01*
G01*
X96001602Y-80451867D02*
G75*
G02X96997840Y-80451360I498398J-548133D01*
G01*
X53500000Y-97900000D02*
G75*
G03X53500000Y-97900000I-100000J0D01*
G01*
X52400940Y-96599060D02*
X52400940Y-96400940D01*
X52400940Y-96400940D02*
X52599060Y-96400940D01*
X52599060Y-96599060D02*
X52599060Y-96400940D01*
X52400940Y-96599060D02*
X52599060Y-96599060D01*
X51801500Y-96050420D02*
X51801500Y-95702440D01*
X51801500Y-95702440D02*
X52050420Y-95702440D01*
X52050420Y-96050420D02*
X52050420Y-95702440D01*
X51801500Y-96050420D02*
X52050420Y-96050420D01*
X51801500Y-95702440D02*
X51801500Y-95600840D01*
X51801500Y-95600840D02*
X52997840Y-95600840D01*
X52997840Y-95702440D02*
X52997840Y-95600840D01*
X51801500Y-95702440D02*
X52997840Y-95702440D01*
X53048640Y-95702440D02*
X53048640Y-95600840D01*
X53048640Y-95600840D02*
X53198500Y-95600840D01*
X53198500Y-95702440D02*
X53198500Y-95600840D01*
X53048640Y-95702440D02*
X53198500Y-95702440D01*
X51801500Y-97399160D02*
X51801500Y-97297560D01*
X51801500Y-97297560D02*
X52997840Y-97297560D01*
X52997840Y-97399160D02*
X52997840Y-97297560D01*
X51801500Y-97399160D02*
X52997840Y-97399160D01*
X53048640Y-97399160D02*
X53048640Y-97297560D01*
X53048640Y-97297560D02*
X53198500Y-97297560D01*
X53198500Y-97399160D02*
X53198500Y-97297560D01*
X53048640Y-97399160D02*
X53198500Y-97399160D01*
X51801500Y-96050420D02*
X51801500Y-95900560D01*
X51801500Y-95900560D02*
X52050420Y-95900560D01*
X52050420Y-96050420D02*
X52050420Y-95900560D01*
X51801500Y-96050420D02*
X52050420Y-96050420D01*
X51750700Y-94950600D02*
X51750700Y-98049400D01*
X51750700Y-98049400D02*
X53249300Y-98049400D01*
X53249300Y-98049400D02*
X53249300Y-94950600D01*
X53249300Y-94950600D02*
X51750700Y-94950600D01*
X52000646Y-97047262D02*
G75*
G02X52002160Y-95951360I499354J547262D01*
G01*
X52998398Y-97048133D02*
G75*
G02X52002160Y-97048640I-498398J548133D01*
G01*
X52999354Y-95952738D02*
G75*
G02X52997840Y-97048640I-499354J-547262D01*
G01*
X52001602Y-95951867D02*
G75*
G02X52997840Y-95951360I498398J-548133D01*
G01*
X49786000Y-34500000D02*
G75*
G03X49786000Y-34500000I-2286000J0D01*
G01*
X49786000Y-97500000D02*
G75*
G03X49786000Y-97500000I-2286000J0D01*
G01*
X132786000Y-97500000D02*
G75*
G03X132786000Y-97500000I-2286000J0D01*
G01*
X132786000Y-34500000D02*
G75*
G03X132786000Y-34500000I-2286000J0D01*
G01*
X128570000Y-73729000D02*
X130570000Y-73729000D01*
X130570000Y-75879000D02*
X128570000Y-75879000D01*
X125236000Y-91627000D02*
X123236000Y-91627000D01*
X123236000Y-89477000D02*
X125236000Y-89477000D01*
X58750000Y-91575000D02*
X56750000Y-91575000D01*
X56750000Y-89425000D02*
X58750000Y-89425000D01*
X92075000Y-86250000D02*
X92075000Y-88250000D01*
X89925000Y-88250000D02*
X89925000Y-86250000D01*
X97575000Y-86250000D02*
X97575000Y-88250000D01*
X95425000Y-88250000D02*
X95425000Y-86250000D01*
X100075000Y-43000000D02*
X100075000Y-45000000D01*
X97925000Y-45000000D02*
X97925000Y-43000000D01*
X123787000Y-82694000D02*
X123787000Y-84694000D01*
X121637000Y-84694000D02*
X121637000Y-82694000D01*
X120485000Y-82694000D02*
X120485000Y-84694000D01*
X118335000Y-84694000D02*
X118335000Y-82694000D01*
X70855360Y-82464640D02*
X70855360Y-81702640D01*
X71363360Y-82464640D02*
X71363360Y-81702640D01*
X70855360Y-84496640D02*
G75*
G03X72760360Y-83099640I254000J1651000D01*
G01*
X69458360Y-82972640D02*
G75*
G03X71236360Y-84496640I1651000J127000D01*
G01*
X72506360Y-83734640D02*
G75*
G03X71998360Y-81448640I-1397000J889000D01*
G01*
X70220360Y-81448640D02*
G75*
G03X69712360Y-83734640I889000J-1397000D01*
G01*
X67807360Y-86655640D02*
X67807360Y-86528640D01*
X67807360Y-82845640D02*
X67807360Y-84242640D01*
X74411360Y-86655640D02*
X74411360Y-86528640D01*
X74411360Y-82845640D02*
X74411360Y-84242640D01*
X69966360Y-85766640D02*
X70347360Y-85893640D01*
X70347360Y-85893640D02*
X71109360Y-86020640D01*
X71109360Y-86020640D02*
X71871360Y-85893640D01*
X71871360Y-85893640D02*
X72252360Y-85766640D01*
X69839360Y-84877640D02*
X72379360Y-84877640D01*
X74030360Y-84115640D02*
G75*
G03X72379360Y-79924640I-2921000J1270000D01*
G01*
X69839360Y-79924640D02*
G75*
G03X68188360Y-84115640I1270000J-2921000D01*
G01*
X73141360Y-79543640D02*
X72252360Y-79543640D01*
X69966360Y-79543640D02*
X69077360Y-79543640D01*
X72760360Y-82464640D02*
X73268360Y-82464640D01*
X73268360Y-82464640D02*
X73268360Y-83226640D01*
X73268360Y-83226640D02*
X72760360Y-83226640D01*
X69458360Y-82464640D02*
X68950360Y-82464640D01*
X68950360Y-82464640D02*
X68950360Y-83226640D01*
X68950360Y-83226640D02*
X69458360Y-83226640D01*
X71617360Y-83099640D02*
X72760360Y-83099640D01*
X71617360Y-82591640D02*
X72760360Y-82591640D01*
X70601360Y-83099640D02*
X69458360Y-83099640D01*
X70601360Y-82591640D02*
X69458360Y-82591640D01*
X71363360Y-83226640D02*
X71363360Y-84496640D01*
X70855360Y-83226640D02*
X70855360Y-84496640D01*
X70601360Y-82464640D02*
X70601360Y-83226640D01*
X70601360Y-83226640D02*
X71617360Y-83226640D01*
X71617360Y-83226640D02*
X71617360Y-82464640D01*
X71617360Y-82464640D02*
X70601360Y-82464640D01*
X69077360Y-79543640D02*
X67807360Y-80940640D01*
X67807360Y-80940640D02*
X67807360Y-82845640D01*
X73141360Y-79543640D02*
X74411360Y-80940640D01*
X74411360Y-80940640D02*
X74411360Y-82845640D01*
X74157360Y-86655640D02*
X74157360Y-86909640D01*
X74157360Y-86909640D02*
X73014360Y-86909640D01*
X73014360Y-86909640D02*
X73014360Y-86655640D01*
X68061360Y-86655640D02*
X68061360Y-86909640D01*
X68061360Y-86909640D02*
X69204360Y-86909640D01*
X69204360Y-86909640D02*
X69204360Y-86655640D01*
X67807360Y-86655640D02*
X74411360Y-86655640D01*
X80380360Y-82464640D02*
X80380360Y-81702640D01*
X80888360Y-82464640D02*
X80888360Y-81702640D01*
X80380360Y-84496640D02*
G75*
G03X82285360Y-83099640I254000J1651000D01*
G01*
X78983360Y-82972640D02*
G75*
G03X80761360Y-84496640I1651000J127000D01*
G01*
X82031360Y-83734640D02*
G75*
G03X81523360Y-81448640I-1397000J889000D01*
G01*
X79745360Y-81448640D02*
G75*
G03X79237360Y-83734640I889000J-1397000D01*
G01*
X77332360Y-86655640D02*
X77332360Y-86528640D01*
X77332360Y-82845640D02*
X77332360Y-84242640D01*
X83936360Y-86655640D02*
X83936360Y-86528640D01*
X83936360Y-82845640D02*
X83936360Y-84242640D01*
X79491360Y-85766640D02*
X79872360Y-85893640D01*
X79872360Y-85893640D02*
X80634360Y-86020640D01*
X80634360Y-86020640D02*
X81396360Y-85893640D01*
X81396360Y-85893640D02*
X81777360Y-85766640D01*
X79364360Y-84877640D02*
X81904360Y-84877640D01*
X83555360Y-84115640D02*
G75*
G03X81904360Y-79924640I-2921000J1270000D01*
G01*
X79364360Y-79924640D02*
G75*
G03X77713360Y-84115640I1270000J-2921000D01*
G01*
X82666360Y-79543640D02*
X81777360Y-79543640D01*
X79491360Y-79543640D02*
X78602360Y-79543640D01*
X82285360Y-82464640D02*
X82793360Y-82464640D01*
X82793360Y-82464640D02*
X82793360Y-83226640D01*
X82793360Y-83226640D02*
X82285360Y-83226640D01*
X78983360Y-82464640D02*
X78475360Y-82464640D01*
X78475360Y-82464640D02*
X78475360Y-83226640D01*
X78475360Y-83226640D02*
X78983360Y-83226640D01*
X81142360Y-83099640D02*
X82285360Y-83099640D01*
X81142360Y-82591640D02*
X82285360Y-82591640D01*
X80126360Y-83099640D02*
X78983360Y-83099640D01*
X80126360Y-82591640D02*
X78983360Y-82591640D01*
X80888360Y-83226640D02*
X80888360Y-84496640D01*
X80380360Y-83226640D02*
X80380360Y-84496640D01*
X80126360Y-82464640D02*
X80126360Y-83226640D01*
X80126360Y-83226640D02*
X81142360Y-83226640D01*
X81142360Y-83226640D02*
X81142360Y-82464640D01*
X81142360Y-82464640D02*
X80126360Y-82464640D01*
X78602360Y-79543640D02*
X77332360Y-80940640D01*
X77332360Y-80940640D02*
X77332360Y-82845640D01*
X82666360Y-79543640D02*
X83936360Y-80940640D01*
X83936360Y-80940640D02*
X83936360Y-82845640D01*
X83682360Y-86655640D02*
X83682360Y-86909640D01*
X83682360Y-86909640D02*
X82539360Y-86909640D01*
X82539360Y-86909640D02*
X82539360Y-86655640D01*
X77586360Y-86655640D02*
X77586360Y-86909640D01*
X77586360Y-86909640D02*
X78729360Y-86909640D01*
X78729360Y-86909640D02*
X78729360Y-86655640D01*
X77332360Y-86655640D02*
X83936360Y-86655640D01*
D12*
X128935000Y-87250000D02*
X125125000Y-87250000D01*
X125125000Y-87250000D02*
X125125000Y-80265000D01*
X125125000Y-80265000D02*
X132745000Y-80265000D01*
X132745000Y-80265000D02*
X132745000Y-87250000D01*
X132745000Y-87250000D02*
X128935000Y-87250000D01*
X130205000Y-83440000D02*
G75*
G03X130205000Y-83440000I-1270000J0D01*
G01*
X103916000Y-82170000D02*
X107726000Y-82170000D01*
X107726000Y-82170000D02*
X107726000Y-89155000D01*
X107726000Y-89155000D02*
X100106000Y-89155000D01*
X100106000Y-89155000D02*
X100106000Y-82170000D01*
X100106000Y-82170000D02*
X103916000Y-82170000D01*
X105186000Y-85980000D02*
G75*
G03X105186000Y-85980000I-1270000J0D01*
G01*
X113822000Y-82170000D02*
X117632000Y-82170000D01*
X117632000Y-82170000D02*
X117632000Y-89155000D01*
X117632000Y-89155000D02*
X110012000Y-89155000D01*
X110012000Y-89155000D02*
X110012000Y-82170000D01*
X110012000Y-82170000D02*
X113822000Y-82170000D01*
X115092000Y-85980000D02*
G75*
G03X115092000Y-85980000I-1270000J0D01*
G01*
D10*
X103761000Y-65135000D02*
X97411000Y-65135000D01*
X103761000Y-70215000D02*
X97411000Y-70215000D01*
X94871000Y-67675000D02*
G75*
G03X97411000Y-70215000I2540000J0D01*
G01*
X97411000Y-65135000D02*
G75*
G03X94871000Y-67675000I0J-2540000D01*
G01*
X103761000Y-70215000D02*
G75*
G03X106301000Y-67675000I0J2540000D01*
G01*
X106301000Y-67675000D02*
G75*
G03X103761000Y-65135000I-2540000J0D01*
G01*
X68610000Y-94235000D02*
X68610000Y-99315000D01*
X68610000Y-99315000D02*
X71150000Y-99315000D01*
X71150000Y-99315000D02*
X71150000Y-94235000D01*
X71430000Y-91415000D02*
X71430000Y-92965000D01*
X71150000Y-94235000D02*
X68610000Y-94235000D01*
X68330000Y-92965000D02*
X68330000Y-91415000D01*
X68330000Y-91415000D02*
X71430000Y-91415000D01*
X71150000Y-94235000D02*
X71150000Y-99315000D01*
X71150000Y-99315000D02*
X73690000Y-99315000D01*
X73690000Y-99315000D02*
X73690000Y-94235000D01*
X73970000Y-91415000D02*
X73970000Y-92965000D01*
X73690000Y-94235000D02*
X71150000Y-94235000D01*
X70870000Y-92965000D02*
X70870000Y-91415000D01*
X70870000Y-91415000D02*
X73970000Y-91415000D01*
X73690000Y-94235000D02*
X73690000Y-99315000D01*
X73690000Y-99315000D02*
X76230000Y-99315000D01*
X76230000Y-99315000D02*
X76230000Y-94235000D01*
X76510000Y-91415000D02*
X76510000Y-92965000D01*
X76230000Y-94235000D02*
X73690000Y-94235000D01*
X73410000Y-92965000D02*
X73410000Y-91415000D01*
X73410000Y-91415000D02*
X76510000Y-91415000D01*
D15*
X49943540Y-41189640D02*
X129940840Y-41189640D01*
X129940840Y-41189640D02*
X129940840Y-77186520D01*
X129940840Y-77186520D02*
X49943540Y-77186520D01*
X49943540Y-77186520D02*
X49943540Y-41189640D01*
X54942260Y-46688740D02*
X124939580Y-46688740D01*
X124939580Y-46688740D02*
X124939580Y-71687420D01*
X54942260Y-46688740D02*
X54942260Y-71687420D01*
X54942260Y-71687420D02*
X124939580Y-71687420D01*
D16*
X54964556Y-43689000D02*
G75*
G03X54964556Y-43689000I-2521656J0D01*
G01*
X129966728Y-43689000D02*
G75*
G03X129966728Y-43689000I-2525248J0D01*
G01*
X129966728Y-74687160D02*
G75*
G03X129966728Y-74687160I-2525248J0D01*
G01*
X54964556Y-74687160D02*
G75*
G03X54964556Y-74687160I-2521656J0D01*
G01*
D15*
X53326557Y-43689000D02*
G75*
G03X53326557Y-43689000I-883657J0D01*
G01*
X51193220Y-43689000D02*
X53692580Y-43689000D01*
X52442900Y-44938680D02*
X52442900Y-42439320D01*
X128325137Y-43689000D02*
G75*
G03X128325137Y-43689000I-883657J0D01*
G01*
X126191800Y-43689000D02*
X128691160Y-43689000D01*
X127441480Y-44938680D02*
X127441480Y-42439320D01*
X53326557Y-74687160D02*
G75*
G03X53326557Y-74687160I-883657J0D01*
G01*
X51193220Y-74687160D02*
X53692580Y-74687160D01*
X52442900Y-75936840D02*
X52442900Y-73437480D01*
X128325137Y-74687160D02*
G75*
G03X128325137Y-74687160I-883657J0D01*
G01*
X126191800Y-74687160D02*
X128691160Y-74687160D01*
X127441480Y-75936840D02*
X127441480Y-73437480D01*
D10*
X92105000Y-99188000D02*
X79405000Y-99188000D01*
X79405000Y-99188000D02*
X79405000Y-96648000D01*
X79405000Y-96648000D02*
X92105000Y-96648000D01*
X94925000Y-99468000D02*
X93375000Y-99468000D01*
X92105000Y-99188000D02*
X92105000Y-96648000D01*
X93375000Y-96368000D02*
X94925000Y-96368000D01*
X94925000Y-96368000D02*
X94925000Y-99468000D01*
X99725000Y-96775000D02*
X94645000Y-96775000D01*
X94645000Y-96775000D02*
X94645000Y-99315000D01*
X94645000Y-99315000D02*
X99725000Y-99315000D01*
X102545000Y-99595000D02*
X100995000Y-99595000D01*
X99725000Y-99315000D02*
X99725000Y-96775000D01*
X100995000Y-96495000D02*
X102545000Y-96495000D01*
X102545000Y-96495000D02*
X102545000Y-99595000D01*
X107345000Y-96775000D02*
X125125000Y-96775000D01*
X125125000Y-96775000D02*
X125125000Y-99315000D01*
X125125000Y-99315000D02*
X107345000Y-99315000D01*
X104525000Y-96495000D02*
X106075000Y-96495000D01*
X107345000Y-96775000D02*
X107345000Y-99315000D01*
X106075000Y-99595000D02*
X104525000Y-99595000D01*
X104525000Y-99595000D02*
X104525000Y-96495000D01*
X79659000Y-32640000D02*
X97439000Y-32640000D01*
X97439000Y-32640000D02*
X97439000Y-35180000D01*
X97439000Y-35180000D02*
X79659000Y-35180000D01*
X76839000Y-32360000D02*
X78389000Y-32360000D01*
X79659000Y-32640000D02*
X79659000Y-35180000D01*
X78389000Y-35460000D02*
X76839000Y-35460000D01*
X76839000Y-35460000D02*
X76839000Y-32360000D01*
X122585000Y-35180000D02*
X104805000Y-35180000D01*
X104805000Y-35180000D02*
X104805000Y-32640000D01*
X104805000Y-32640000D02*
X122585000Y-32640000D01*
X125405000Y-35460000D02*
X123855000Y-35460000D01*
X122585000Y-35180000D02*
X122585000Y-32640000D01*
X123855000Y-32360000D02*
X125405000Y-32360000D01*
X125405000Y-32360000D02*
X125405000Y-35460000D01*
X48417000Y-62231000D02*
X48417000Y-74931000D01*
X48417000Y-74931000D02*
X45877000Y-74931000D01*
X45877000Y-74931000D02*
X45877000Y-62231000D01*
X48697000Y-59411000D02*
X48697000Y-60961000D01*
X48417000Y-62231000D02*
X45877000Y-62231000D01*
X45597000Y-60961000D02*
X45597000Y-59411000D01*
X45597000Y-59411000D02*
X48697000Y-59411000D01*
D17*
X57998800Y-79999940D02*
X64501200Y-79999940D01*
X64501200Y-79999940D02*
X64501200Y-83500060D01*
X64501200Y-83500060D02*
X57998800Y-83500060D01*
X57998800Y-83500060D02*
X57998800Y-79999940D01*
D18*
X57500640Y-50999940D02*
X57500640Y-50250640D01*
X57500640Y-50250640D02*
X58249940Y-50250640D01*
X61750060Y-50250640D02*
X62499360Y-50250640D01*
X62499360Y-50250640D02*
X62499360Y-50999940D01*
X58249940Y-55249360D02*
X57500640Y-55249360D01*
X57500640Y-55249360D02*
X57500640Y-54500060D01*
X61750060Y-55249360D02*
X62499360Y-55249360D01*
X62499360Y-55249360D02*
X62499360Y-54500060D01*
D10*
X54259000Y-39752000D02*
X51719000Y-39752000D01*
X57079000Y-40032000D02*
X55529000Y-40032000D01*
X54259000Y-39752000D02*
X54259000Y-37212000D01*
X55529000Y-36932000D02*
X57079000Y-36932000D01*
X57079000Y-36932000D02*
X57079000Y-40032000D01*
X54259000Y-37212000D02*
X51719000Y-37212000D01*
X51719000Y-37212000D02*
X51719000Y-39752000D01*
X52588000Y-88163000D02*
X52588000Y-90322000D01*
X52588000Y-90322000D02*
X51826000Y-90322000D01*
X44206000Y-81178000D02*
X52461000Y-81178000D01*
X52461000Y-81178000D02*
X52461000Y-83337000D01*
X44206000Y-90322000D02*
X47127000Y-90322000D01*
X44206000Y-81178000D02*
X44206000Y-90322000D01*
D12*
X67489860Y-95505000D02*
X67489860Y-92505260D01*
X67489860Y-92505260D02*
X54490140Y-92505260D01*
X54490140Y-92505260D02*
X54490140Y-99005120D01*
X54490140Y-99005120D02*
X67489860Y-99005120D01*
X67489860Y-99005120D02*
X67489860Y-95505000D01*
D15*
X72568167Y-62330786D02*
X72537929Y-62361024D01*
X72447214Y-62391262D01*
X72386738Y-62391262D01*
X72296024Y-62361024D01*
X72235548Y-62300548D01*
X72205309Y-62240071D01*
X72175071Y-62119119D01*
X72175071Y-62028405D01*
X72205309Y-61907452D01*
X72235548Y-61846976D01*
X72296024Y-61786500D01*
X72386738Y-61756262D01*
X72447214Y-61756262D01*
X72537929Y-61786500D01*
X72568167Y-61816738D01*
X73172929Y-62391262D02*
X72810071Y-62391262D01*
X72991500Y-62391262D02*
X72991500Y-61756262D01*
X72931024Y-61846976D01*
X72870548Y-61907452D01*
X72810071Y-61937690D01*
X69266167Y-62584786D02*
X69235929Y-62615024D01*
X69145214Y-62645262D01*
X69084738Y-62645262D01*
X68994024Y-62615024D01*
X68933548Y-62554548D01*
X68903309Y-62494071D01*
X68873071Y-62373119D01*
X68873071Y-62282405D01*
X68903309Y-62161452D01*
X68933548Y-62100976D01*
X68994024Y-62040500D01*
X69084738Y-62010262D01*
X69145214Y-62010262D01*
X69235929Y-62040500D01*
X69266167Y-62070738D01*
X69508071Y-62070738D02*
X69538309Y-62040500D01*
X69598786Y-62010262D01*
X69749976Y-62010262D01*
X69810452Y-62040500D01*
X69840690Y-62070738D01*
X69870929Y-62131214D01*
X69870929Y-62191690D01*
X69840690Y-62282405D01*
X69477833Y-62645262D01*
X69870929Y-62645262D01*
X65202167Y-89000786D02*
X65171929Y-89031024D01*
X65081214Y-89061262D01*
X65020738Y-89061262D01*
X64930024Y-89031024D01*
X64869548Y-88970548D01*
X64839309Y-88910071D01*
X64809071Y-88789119D01*
X64809071Y-88698405D01*
X64839309Y-88577452D01*
X64869548Y-88516976D01*
X64930024Y-88456500D01*
X65020738Y-88426262D01*
X65081214Y-88426262D01*
X65171929Y-88456500D01*
X65202167Y-88486738D01*
X65413833Y-88426262D02*
X65806929Y-88426262D01*
X65595262Y-88668167D01*
X65685976Y-88668167D01*
X65746452Y-88698405D01*
X65776690Y-88728643D01*
X65806929Y-88789119D01*
X65806929Y-88940310D01*
X65776690Y-89000786D01*
X65746452Y-89031024D01*
X65685976Y-89061262D01*
X65504548Y-89061262D01*
X65444071Y-89031024D01*
X65413833Y-89000786D01*
X80950167Y-67664786D02*
X80919929Y-67695024D01*
X80829214Y-67725262D01*
X80768738Y-67725262D01*
X80678024Y-67695024D01*
X80617548Y-67634548D01*
X80587309Y-67574071D01*
X80557071Y-67453119D01*
X80557071Y-67362405D01*
X80587309Y-67241452D01*
X80617548Y-67180976D01*
X80678024Y-67120500D01*
X80768738Y-67090262D01*
X80829214Y-67090262D01*
X80919929Y-67120500D01*
X80950167Y-67150738D01*
X81494452Y-67301929D02*
X81494452Y-67725262D01*
X81343262Y-67060024D02*
X81192071Y-67513595D01*
X81585167Y-67513595D01*
X80950167Y-64362786D02*
X80919929Y-64393024D01*
X80829214Y-64423262D01*
X80768738Y-64423262D01*
X80678024Y-64393024D01*
X80617548Y-64332548D01*
X80587309Y-64272071D01*
X80557071Y-64151119D01*
X80557071Y-64060405D01*
X80587309Y-63939452D01*
X80617548Y-63878976D01*
X80678024Y-63818500D01*
X80768738Y-63788262D01*
X80829214Y-63788262D01*
X80919929Y-63818500D01*
X80950167Y-63848738D01*
X81524690Y-63788262D02*
X81222309Y-63788262D01*
X81192071Y-64090643D01*
X81222309Y-64060405D01*
X81282786Y-64030167D01*
X81433976Y-64030167D01*
X81494452Y-64060405D01*
X81524690Y-64090643D01*
X81554929Y-64151119D01*
X81554929Y-64302310D01*
X81524690Y-64362786D01*
X81494452Y-64393024D01*
X81433976Y-64423262D01*
X81282786Y-64423262D01*
X81222309Y-64393024D01*
X81192071Y-64362786D01*
X56566167Y-62838786D02*
X56535929Y-62869024D01*
X56445214Y-62899262D01*
X56384738Y-62899262D01*
X56294024Y-62869024D01*
X56233548Y-62808548D01*
X56203309Y-62748071D01*
X56173071Y-62627119D01*
X56173071Y-62536405D01*
X56203309Y-62415452D01*
X56233548Y-62354976D01*
X56294024Y-62294500D01*
X56384738Y-62264262D01*
X56445214Y-62264262D01*
X56535929Y-62294500D01*
X56566167Y-62324738D01*
X56777833Y-62264262D02*
X57201167Y-62264262D01*
X56929024Y-62899262D01*
X96952167Y-62076786D02*
X96921929Y-62107024D01*
X96831214Y-62137262D01*
X96770738Y-62137262D01*
X96680024Y-62107024D01*
X96619548Y-62046548D01*
X96589309Y-61986071D01*
X96559071Y-61865119D01*
X96559071Y-61774405D01*
X96589309Y-61653452D01*
X96619548Y-61592976D01*
X96680024Y-61532500D01*
X96770738Y-61502262D01*
X96831214Y-61502262D01*
X96921929Y-61532500D01*
X96952167Y-61562738D01*
X97315024Y-61774405D02*
X97254548Y-61744167D01*
X97224309Y-61713929D01*
X97194071Y-61653452D01*
X97194071Y-61623214D01*
X97224309Y-61562738D01*
X97254548Y-61532500D01*
X97315024Y-61502262D01*
X97435976Y-61502262D01*
X97496452Y-61532500D01*
X97526690Y-61562738D01*
X97556929Y-61623214D01*
X97556929Y-61653452D01*
X97526690Y-61713929D01*
X97496452Y-61744167D01*
X97435976Y-61774405D01*
X97315024Y-61774405D01*
X97254548Y-61804643D01*
X97224309Y-61834881D01*
X97194071Y-61895357D01*
X97194071Y-62016310D01*
X97224309Y-62076786D01*
X97254548Y-62107024D01*
X97315024Y-62137262D01*
X97435976Y-62137262D01*
X97496452Y-62107024D01*
X97526690Y-62076786D01*
X97556929Y-62016310D01*
X97556929Y-61895357D01*
X97526690Y-61834881D01*
X97496452Y-61804643D01*
X97435976Y-61774405D01*
X104064167Y-62076786D02*
X104033929Y-62107024D01*
X103943214Y-62137262D01*
X103882738Y-62137262D01*
X103792024Y-62107024D01*
X103731548Y-62046548D01*
X103701309Y-61986071D01*
X103671071Y-61865119D01*
X103671071Y-61774405D01*
X103701309Y-61653452D01*
X103731548Y-61592976D01*
X103792024Y-61532500D01*
X103882738Y-61502262D01*
X103943214Y-61502262D01*
X104033929Y-61532500D01*
X104064167Y-61562738D01*
X104366548Y-62137262D02*
X104487500Y-62137262D01*
X104547976Y-62107024D01*
X104578214Y-62076786D01*
X104638690Y-61986071D01*
X104668929Y-61865119D01*
X104668929Y-61623214D01*
X104638690Y-61562738D01*
X104608452Y-61532500D01*
X104547976Y-61502262D01*
X104427024Y-61502262D01*
X104366548Y-61532500D01*
X104336309Y-61562738D01*
X104306071Y-61623214D01*
X104306071Y-61774405D01*
X104336309Y-61834881D01*
X104366548Y-61865119D01*
X104427024Y-61895357D01*
X104547976Y-61895357D01*
X104608452Y-61865119D01*
X104638690Y-61834881D01*
X104668929Y-61774405D01*
X129863309Y-92617262D02*
X129863309Y-91982262D01*
X130014500Y-91982262D01*
X130105214Y-92012500D01*
X130165690Y-92072976D01*
X130195929Y-92133452D01*
X130226167Y-92254405D01*
X130226167Y-92345119D01*
X130195929Y-92466071D01*
X130165690Y-92526548D01*
X130105214Y-92587024D01*
X130014500Y-92617262D01*
X129863309Y-92617262D01*
X130468071Y-92042738D02*
X130498309Y-92012500D01*
X130558786Y-91982262D01*
X130709976Y-91982262D01*
X130770452Y-92012500D01*
X130800690Y-92042738D01*
X130830929Y-92103214D01*
X130830929Y-92163690D01*
X130800690Y-92254405D01*
X130437833Y-92617262D01*
X130830929Y-92617262D01*
X88461309Y-81187262D02*
X88461309Y-80552262D01*
X88612500Y-80552262D01*
X88703214Y-80582500D01*
X88763690Y-80642976D01*
X88793929Y-80703452D01*
X88824167Y-80824405D01*
X88824167Y-80915119D01*
X88793929Y-81036071D01*
X88763690Y-81096548D01*
X88703214Y-81157024D01*
X88612500Y-81187262D01*
X88461309Y-81187262D01*
X89035833Y-80552262D02*
X89428929Y-80552262D01*
X89217262Y-80794167D01*
X89307976Y-80794167D01*
X89368452Y-80824405D01*
X89398690Y-80854643D01*
X89428929Y-80915119D01*
X89428929Y-81066310D01*
X89398690Y-81126786D01*
X89368452Y-81157024D01*
X89307976Y-81187262D01*
X89126548Y-81187262D01*
X89066071Y-81157024D01*
X89035833Y-81126786D01*
X94049309Y-81187262D02*
X94049309Y-80552262D01*
X94200500Y-80552262D01*
X94291214Y-80582500D01*
X94351690Y-80642976D01*
X94381929Y-80703452D01*
X94412167Y-80824405D01*
X94412167Y-80915119D01*
X94381929Y-81036071D01*
X94351690Y-81096548D01*
X94291214Y-81157024D01*
X94200500Y-81187262D01*
X94049309Y-81187262D01*
X94956452Y-80763929D02*
X94956452Y-81187262D01*
X94805262Y-80522024D02*
X94654071Y-80975595D01*
X95047167Y-80975595D01*
X52139309Y-93887262D02*
X52139309Y-93252262D01*
X52290500Y-93252262D01*
X52381214Y-93282500D01*
X52441690Y-93342976D01*
X52471929Y-93403452D01*
X52502167Y-93524405D01*
X52502167Y-93615119D01*
X52471929Y-93736071D01*
X52441690Y-93796548D01*
X52381214Y-93857024D01*
X52290500Y-93887262D01*
X52139309Y-93887262D01*
X52713833Y-93252262D02*
X53137167Y-93252262D01*
X52865024Y-93887262D01*
X125724167Y-75197262D02*
X125512500Y-74894881D01*
X125361309Y-75197262D02*
X125361309Y-74562262D01*
X125603214Y-74562262D01*
X125663690Y-74592500D01*
X125693929Y-74622738D01*
X125724167Y-74683214D01*
X125724167Y-74773929D01*
X125693929Y-74834405D01*
X125663690Y-74864643D01*
X125603214Y-74894881D01*
X125361309Y-74894881D01*
X126328929Y-75197262D02*
X125966071Y-75197262D01*
X126147500Y-75197262D02*
X126147500Y-74562262D01*
X126087024Y-74652976D01*
X126026548Y-74713452D01*
X125966071Y-74743690D01*
X120320167Y-90839262D02*
X120108500Y-90536881D01*
X119957309Y-90839262D02*
X119957309Y-90204262D01*
X120199214Y-90204262D01*
X120259690Y-90234500D01*
X120289929Y-90264738D01*
X120320167Y-90325214D01*
X120320167Y-90415929D01*
X120289929Y-90476405D01*
X120259690Y-90506643D01*
X120199214Y-90536881D01*
X119957309Y-90536881D01*
X120562071Y-90264738D02*
X120592309Y-90234500D01*
X120652786Y-90204262D01*
X120803976Y-90204262D01*
X120864452Y-90234500D01*
X120894690Y-90264738D01*
X120924929Y-90325214D01*
X120924929Y-90385690D01*
X120894690Y-90476405D01*
X120531833Y-90839262D01*
X120924929Y-90839262D01*
X57582167Y-89061262D02*
X57370500Y-88758881D01*
X57219309Y-89061262D02*
X57219309Y-88426262D01*
X57461214Y-88426262D01*
X57521690Y-88456500D01*
X57551929Y-88486738D01*
X57582167Y-88547214D01*
X57582167Y-88637929D01*
X57551929Y-88698405D01*
X57521690Y-88728643D01*
X57461214Y-88758881D01*
X57219309Y-88758881D01*
X57793833Y-88426262D02*
X58186929Y-88426262D01*
X57975262Y-88668167D01*
X58065976Y-88668167D01*
X58126452Y-88698405D01*
X58156690Y-88728643D01*
X58186929Y-88789119D01*
X58186929Y-88940310D01*
X58156690Y-89000786D01*
X58126452Y-89031024D01*
X58065976Y-89061262D01*
X57884548Y-89061262D01*
X57824071Y-89031024D01*
X57793833Y-89000786D01*
X88824167Y-87537262D02*
X88612500Y-87234881D01*
X88461309Y-87537262D02*
X88461309Y-86902262D01*
X88703214Y-86902262D01*
X88763690Y-86932500D01*
X88793929Y-86962738D01*
X88824167Y-87023214D01*
X88824167Y-87113929D01*
X88793929Y-87174405D01*
X88763690Y-87204643D01*
X88703214Y-87234881D01*
X88461309Y-87234881D01*
X89368452Y-87113929D02*
X89368452Y-87537262D01*
X89217262Y-86872024D02*
X89066071Y-87325595D01*
X89459167Y-87325595D01*
X94412167Y-87537262D02*
X94200500Y-87234881D01*
X94049309Y-87537262D02*
X94049309Y-86902262D01*
X94291214Y-86902262D01*
X94351690Y-86932500D01*
X94381929Y-86962738D01*
X94412167Y-87023214D01*
X94412167Y-87113929D01*
X94381929Y-87174405D01*
X94351690Y-87204643D01*
X94291214Y-87234881D01*
X94049309Y-87234881D01*
X94986690Y-86902262D02*
X94684309Y-86902262D01*
X94654071Y-87204643D01*
X94684309Y-87174405D01*
X94744786Y-87144167D01*
X94895976Y-87144167D01*
X94956452Y-87174405D01*
X94986690Y-87204643D01*
X95016929Y-87265119D01*
X95016929Y-87416310D01*
X94986690Y-87476786D01*
X94956452Y-87507024D01*
X94895976Y-87537262D01*
X94744786Y-87537262D01*
X94684309Y-87507024D01*
X94654071Y-87476786D01*
D10*
X98984167Y-40547262D02*
X98772500Y-40244881D01*
X98621309Y-40547262D02*
X98621309Y-39912262D01*
X98863214Y-39912262D01*
X98923690Y-39942500D01*
X98953929Y-39972738D01*
X98984167Y-40033214D01*
X98984167Y-40123929D01*
X98953929Y-40184405D01*
X98923690Y-40214643D01*
X98863214Y-40244881D01*
X98621309Y-40244881D01*
X99528452Y-39912262D02*
X99407500Y-39912262D01*
X99347024Y-39942500D01*
X99316786Y-39972738D01*
X99256309Y-40063452D01*
X99226071Y-40184405D01*
X99226071Y-40426310D01*
X99256309Y-40486786D01*
X99286548Y-40517024D01*
X99347024Y-40547262D01*
X99467976Y-40547262D01*
X99528452Y-40517024D01*
X99558690Y-40486786D01*
X99588929Y-40426310D01*
X99588929Y-40275119D01*
X99558690Y-40214643D01*
X99528452Y-40184405D01*
X99467976Y-40154167D01*
X99347024Y-40154167D01*
X99286548Y-40184405D01*
X99256309Y-40214643D01*
X99226071Y-40275119D01*
D15*
X122516167Y-80369262D02*
X122304500Y-80066881D01*
X122153309Y-80369262D02*
X122153309Y-79734262D01*
X122395214Y-79734262D01*
X122455690Y-79764500D01*
X122485929Y-79794738D01*
X122516167Y-79855214D01*
X122516167Y-79945929D01*
X122485929Y-80006405D01*
X122455690Y-80036643D01*
X122395214Y-80066881D01*
X122153309Y-80066881D01*
X122727833Y-79734262D02*
X123151167Y-79734262D01*
X122879024Y-80369262D01*
X119266167Y-80369262D02*
X119054500Y-80066881D01*
X118903309Y-80369262D02*
X118903309Y-79734262D01*
X119145214Y-79734262D01*
X119205690Y-79764500D01*
X119235929Y-79794738D01*
X119266167Y-79855214D01*
X119266167Y-79945929D01*
X119235929Y-80006405D01*
X119205690Y-80036643D01*
X119145214Y-80066881D01*
X118903309Y-80066881D01*
X119629024Y-80006405D02*
X119568548Y-79976167D01*
X119538309Y-79945929D01*
X119508071Y-79885452D01*
X119508071Y-79855214D01*
X119538309Y-79794738D01*
X119568548Y-79764500D01*
X119629024Y-79734262D01*
X119749976Y-79734262D01*
X119810452Y-79764500D01*
X119840690Y-79794738D01*
X119870929Y-79855214D01*
X119870929Y-79885452D01*
X119840690Y-79945929D01*
X119810452Y-79976167D01*
X119749976Y-80006405D01*
X119629024Y-80006405D01*
X119568548Y-80036643D01*
X119538309Y-80066881D01*
X119508071Y-80127357D01*
X119508071Y-80248310D01*
X119538309Y-80308786D01*
X119568548Y-80339024D01*
X119629024Y-80369262D01*
X119749976Y-80369262D01*
X119810452Y-80339024D01*
X119840690Y-80308786D01*
X119870929Y-80248310D01*
X119870929Y-80127357D01*
X119840690Y-80066881D01*
X119810452Y-80036643D01*
X119749976Y-80006405D01*
X74328024Y-79917262D02*
X74116357Y-79614881D01*
X73965166Y-79917262D02*
X73965166Y-79282262D01*
X74207071Y-79282262D01*
X74267547Y-79312500D01*
X74297786Y-79342738D01*
X74328024Y-79403214D01*
X74328024Y-79493929D01*
X74297786Y-79554405D01*
X74267547Y-79584643D01*
X74207071Y-79614881D01*
X73965166Y-79614881D01*
X74509452Y-79282262D02*
X74721119Y-79917262D01*
X74932786Y-79282262D01*
X75477072Y-79917262D02*
X75114214Y-79917262D01*
X75295643Y-79917262D02*
X75295643Y-79282262D01*
X75235167Y-79372976D01*
X75174691Y-79433452D01*
X75114214Y-79463690D01*
X83726024Y-79917262D02*
X83514357Y-79614881D01*
X83363166Y-79917262D02*
X83363166Y-79282262D01*
X83605071Y-79282262D01*
X83665547Y-79312500D01*
X83695786Y-79342738D01*
X83726024Y-79403214D01*
X83726024Y-79493929D01*
X83695786Y-79554405D01*
X83665547Y-79584643D01*
X83605071Y-79614881D01*
X83363166Y-79614881D01*
X83907452Y-79282262D02*
X84119119Y-79917262D01*
X84330786Y-79282262D01*
X84512214Y-79342738D02*
X84542452Y-79312500D01*
X84602929Y-79282262D01*
X84754119Y-79282262D01*
X84814595Y-79312500D01*
X84844833Y-79342738D01*
X84875072Y-79403214D01*
X84875072Y-79463690D01*
X84844833Y-79554405D01*
X84481976Y-79917262D01*
X84875072Y-79917262D01*
X100099952Y-67344262D02*
X100523286Y-67979262D01*
X100523286Y-67344262D02*
X100099952Y-67979262D01*
X100734952Y-67404738D02*
X100765190Y-67374500D01*
X100825667Y-67344262D01*
X100976857Y-67344262D01*
X101037333Y-67374500D01*
X101067571Y-67404738D01*
X101097810Y-67465214D01*
X101097810Y-67525690D01*
X101067571Y-67616405D01*
X100704714Y-67979262D01*
X101097810Y-67979262D01*
D10*
X106547381Y-98783095D02*
X105547381Y-98783095D01*
X105547381Y-98402142D01*
X105595000Y-98306904D01*
X105642619Y-98259285D01*
X105737857Y-98211666D01*
X105880714Y-98211666D01*
X105975952Y-98259285D01*
X106023571Y-98306904D01*
X106071190Y-98402142D01*
X106071190Y-98783095D01*
X105547381Y-97354523D02*
X105547381Y-97545000D01*
X105595000Y-97640238D01*
X105642619Y-97687857D01*
X105785476Y-97783095D01*
X105975952Y-97830714D01*
X106356905Y-97830714D01*
X106452143Y-97783095D01*
X106499762Y-97735476D01*
X106547381Y-97640238D01*
X106547381Y-97449761D01*
X106499762Y-97354523D01*
X106452143Y-97306904D01*
X106356905Y-97259285D01*
X106118810Y-97259285D01*
X106023571Y-97306904D01*
X105975952Y-97354523D01*
X105928333Y-97449761D01*
X105928333Y-97640238D01*
X105975952Y-97735476D01*
X106023571Y-97783095D01*
X106118810Y-97830714D01*
M02*
