G04 #@! TF.FileFunction,Soldermask,Top*
%FSLAX46Y46*%
G04 Gerber Fmt 4.6, Leading zero omitted, Abs format (unit mm)*
G04 Created by KiCad (PCBNEW 4.0.1-stable) date 04-Oct-16 9:16:03 AM*
%MOMM*%
G01*
G04 APERTURE LIST*
%ADD10C,0.150000*%
%ADD11C,0.381000*%
%ADD12C,2.032000*%
%ADD13C,4.008000*%
%ADD14R,2.082800X2.794000*%
%ADD15O,2.082800X2.794000*%
%ADD16R,2.108000X2.508000*%
%ADD17R,2.508000X2.108000*%
%ADD18R,2.108200X4.107180*%
%ADD19R,2.105660X2.308860*%
%ADD20R,2.308860X2.105660*%
%ADD21C,4.572000*%
%ADD22R,2.508000X2.208000*%
%ADD23R,2.208000X2.508000*%
%ADD24C,3.007360*%
%ADD25C,1.905000*%
%ADD26C,1.930400*%
%ADD27R,2.540000X2.235200*%
%ADD28O,2.540000X2.235200*%
%ADD29O,2.438400X4.368800*%
%ADD30R,2.235200X2.540000*%
%ADD31O,2.235200X2.540000*%
%ADD32R,1.508760X3.007360*%
%ADD33R,3.507740X3.007360*%
%ADD34R,1.508760X0.739140*%
%ADD35R,0.739140X1.508760*%
%ADD36R,2.009140X2.009140*%
%ADD37C,0.807720*%
%ADD38R,2.540000X2.540000*%
%ADD39O,2.540000X2.540000*%
%ADD40C,5.308600*%
%ADD41R,5.308600X5.308600*%
%ADD42R,2.808000X2.808000*%
%ADD43C,3.008000*%
%ADD44O,2.159000X4.508000*%
G04 APERTURE END LIST*
D10*
D11*
X47500000Y-101000000D02*
X130500000Y-101000000D01*
X44000000Y-34500000D02*
X44000000Y-97500000D01*
X48500000Y-31000000D02*
X47500000Y-31000000D01*
X130500000Y-31000000D02*
X48500000Y-31000000D01*
X134000000Y-97500000D02*
X134000000Y-34500000D01*
X130500000Y-101000000D02*
G75*
G03X134000000Y-97500000I0J3500000D01*
G01*
X44000000Y-97500000D02*
G75*
G03X47500000Y-101000000I3500000J0D01*
G01*
X47500000Y-31000000D02*
G75*
G03X44000000Y-34500000I0J-3500000D01*
G01*
X134000000Y-34500000D02*
G75*
G03X130500000Y-31000000I-3500000J0D01*
G01*
D12*
X51000000Y-46460000D03*
X51000000Y-49000000D03*
X49001020Y-49000000D03*
X49001020Y-46460000D03*
D13*
X46301000Y-41730520D03*
X46301000Y-53729480D03*
D14*
X66804000Y-73771000D03*
D15*
X69344000Y-73771000D03*
X71884000Y-73771000D03*
X74424000Y-73771000D03*
X76964000Y-73771000D03*
X79504000Y-73771000D03*
X82044000Y-73771000D03*
X84584000Y-73771000D03*
X87124000Y-73771000D03*
X89664000Y-73771000D03*
X92204000Y-73771000D03*
X94744000Y-73771000D03*
X97284000Y-73771000D03*
X99824000Y-73771000D03*
X102364000Y-73771000D03*
X104904000Y-73771000D03*
X107444000Y-73771000D03*
X109984000Y-73771000D03*
X112524000Y-73771000D03*
X115064000Y-73771000D03*
X115064000Y-58531000D03*
X112524000Y-58531000D03*
X109984000Y-58531000D03*
X107444000Y-58531000D03*
X104904000Y-58531000D03*
X102364000Y-58531000D03*
X99824000Y-58531000D03*
X97284000Y-58531000D03*
X94744000Y-58531000D03*
X92204000Y-58531000D03*
X89664000Y-58531000D03*
X87124000Y-58531000D03*
X84584000Y-58531000D03*
X82044000Y-58531000D03*
X79504000Y-58531000D03*
X76964000Y-58531000D03*
X74424000Y-58531000D03*
X71884000Y-58531000D03*
X69344000Y-58531000D03*
X66804000Y-58531000D03*
D16*
X72750000Y-64000000D03*
X72750000Y-68000000D03*
X69500000Y-68000000D03*
X69500000Y-64000000D03*
D17*
X63250000Y-90500000D03*
X67250000Y-90500000D03*
X87000000Y-67500000D03*
X83000000Y-67500000D03*
X87000000Y-64000000D03*
X83000000Y-64000000D03*
D18*
X58930000Y-63908180D03*
X58930000Y-69409820D03*
D17*
X95030000Y-63357000D03*
X99030000Y-63357000D03*
X106142000Y-63357000D03*
X102142000Y-63357000D03*
D19*
X128912140Y-90552000D03*
X131751860Y-90552000D03*
D20*
X91000000Y-82419860D03*
X91000000Y-79580140D03*
X96500000Y-82419860D03*
X96500000Y-79580140D03*
X52500000Y-97919860D03*
X52500000Y-95080140D03*
D21*
X47500000Y-34500000D03*
X47500000Y-97500000D03*
X130500000Y-97500000D03*
X130500000Y-34500000D03*
D22*
X131570000Y-74804000D03*
X127570000Y-74804000D03*
X122236000Y-90552000D03*
X126236000Y-90552000D03*
X55750000Y-90500000D03*
X59750000Y-90500000D03*
D23*
X91000000Y-89250000D03*
X91000000Y-85250000D03*
X96500000Y-89250000D03*
X96500000Y-85250000D03*
X99000000Y-46000000D03*
X99000000Y-42000000D03*
X122712000Y-85694000D03*
X122712000Y-81694000D03*
X119410000Y-85694000D03*
X119410000Y-81694000D03*
D24*
X71109360Y-80305640D03*
X73608720Y-85345000D03*
X68610000Y-85345000D03*
X80634360Y-80305640D03*
X83133720Y-85345000D03*
X78135000Y-85345000D03*
D25*
X131475000Y-83440000D03*
X126395000Y-83440000D03*
X101376000Y-85980000D03*
X106456000Y-85980000D03*
X111282000Y-85980000D03*
X116362000Y-85980000D03*
D26*
X103126000Y-67675000D03*
X98046000Y-67675000D03*
D27*
X69880000Y-92965000D03*
D28*
X69880000Y-95505000D03*
X69880000Y-98045000D03*
D27*
X72420000Y-92965000D03*
D28*
X72420000Y-95505000D03*
X72420000Y-98045000D03*
D27*
X74960000Y-92965000D03*
D28*
X74960000Y-95505000D03*
X74960000Y-98045000D03*
D29*
X57942000Y-43689000D03*
X60482000Y-43689000D03*
X63022000Y-43689000D03*
X65562000Y-43689000D03*
X68102000Y-43689000D03*
X70642000Y-43689000D03*
X73182000Y-43689000D03*
X75722000Y-43689000D03*
X78262000Y-43689000D03*
X80802000Y-43689000D03*
X83342000Y-43689000D03*
X85882000Y-43689000D03*
X88422000Y-43689000D03*
X90962000Y-43689000D03*
X93502000Y-43689000D03*
X96042000Y-43689000D03*
D30*
X93375000Y-97918000D03*
D31*
X90835000Y-97918000D03*
X88295000Y-97918000D03*
X85755000Y-97918000D03*
X83215000Y-97918000D03*
X80675000Y-97918000D03*
D30*
X100995000Y-98045000D03*
D31*
X98455000Y-98045000D03*
X95915000Y-98045000D03*
D30*
X106075000Y-98045000D03*
D31*
X108615000Y-98045000D03*
X111155000Y-98045000D03*
X113695000Y-98045000D03*
X116235000Y-98045000D03*
X118775000Y-98045000D03*
X121315000Y-98045000D03*
X123855000Y-98045000D03*
D30*
X78389000Y-33910000D03*
D31*
X80929000Y-33910000D03*
X83469000Y-33910000D03*
X86009000Y-33910000D03*
X88549000Y-33910000D03*
X91089000Y-33910000D03*
X93629000Y-33910000D03*
X96169000Y-33910000D03*
D30*
X123855000Y-33910000D03*
D31*
X121315000Y-33910000D03*
X118775000Y-33910000D03*
X116235000Y-33910000D03*
X113695000Y-33910000D03*
X111155000Y-33910000D03*
X108615000Y-33910000D03*
X106075000Y-33910000D03*
D27*
X47147000Y-60961000D03*
D28*
X47147000Y-63501000D03*
X47147000Y-66041000D03*
X47147000Y-68581000D03*
X47147000Y-71121000D03*
X47147000Y-73661000D03*
D32*
X61250000Y-84500820D03*
X63500440Y-84500820D03*
X58999560Y-84500820D03*
D33*
X61250000Y-78750260D03*
D34*
X57500640Y-54251140D03*
X57500640Y-53750760D03*
X57500640Y-53250380D03*
X57500640Y-52750000D03*
X57500640Y-52249620D03*
X57500640Y-51749240D03*
X57500640Y-51248860D03*
D35*
X58498860Y-50250640D03*
X58999240Y-50250640D03*
X59499620Y-50250640D03*
X60000000Y-50250640D03*
X60500380Y-50250640D03*
X61000760Y-50250640D03*
X61501140Y-50250640D03*
D34*
X62499360Y-51248860D03*
X62499360Y-51749240D03*
X62499360Y-52249620D03*
X62499360Y-52750000D03*
X62499360Y-53250380D03*
X62499360Y-53750760D03*
X62499360Y-54251140D03*
D35*
X61501140Y-55249360D03*
X61000760Y-55249360D03*
X60500380Y-55249360D03*
X60000000Y-55249360D03*
X59499620Y-55249360D03*
X58999240Y-55249360D03*
X58498860Y-55249360D03*
D36*
X60000000Y-52750000D03*
D37*
X57749560Y-50499560D03*
D38*
X55529000Y-38482000D03*
D39*
X52989000Y-38482000D03*
D40*
X47000000Y-85750000D03*
D41*
X53096000Y-85750000D03*
D40*
X49500000Y-90830000D03*
D42*
X57990000Y-95505000D03*
D43*
X60990000Y-95505000D03*
X63990000Y-95505000D03*
D44*
X66390040Y-95505000D03*
X55589960Y-95505000D03*
M02*
