<?xml version="1.0" standalone="no"?>
 <!DOCTYPE svg PUBLIC "-//W3C//DTD SVG 1.1//EN" 
 "http://www.w3.org/Graphics/SVG/1.1/DTD/svg11.dtd"> 
<svg xmlns="http://www.w3.org/2000/svg" version="1.1" 
    width="59.4004cm" height="41.9989cm" viewBox="0 0 233860 165350 ">
<title>SVG Picture created as Pro-pic-F_SilkS.svg date 2016/04/25 17:11:35 </title>
  <desc>Picture generated by PCBNEW </desc>
<g style="fill:#000000; fill-opacity:1;stroke:#000000; stroke-opacity:1;
stroke-linecap:round; stroke-linejoin:round; "
 transform="translate(0 0) scale(1 1)">
</g>
<g style="fill:#000000; fill-opacity:0.0; 
stroke:#000000; stroke-width:100; stroke-opacity:1; 
stroke-linecap:round; stroke-linejoin:round;">
<path d="M22936 15039
L22632 15153
L22936 15268
" />
<path d="M23127 15153
L23432 15153
" />
<path d="M23755 15096
L23813 15115
L23832 15134
L23851 15173
L23851 15230
L23832 15268
L23813 15287
L23774 15306
L23622 15306
L23622 14906
L23755 14906
L23793 14925
L23813 14944
L23832 14982
L23832 15020
L23813 15058
L23793 15077
L23755 15096
L23622 15096
" />
<path d="M24079 15306
L24041 15287
L24022 15268
L24003 15230
L24003 15115
L24022 15077
L24041 15058
L24079 15039
L24136 15039
L24174 15058
L24193 15077
L24213 15115
L24213 15230
L24193 15268
L24174 15287
L24136 15306
L24079 15306
" />
<path d="M24441 15306
L24403 15287
L24384 15268
L24365 15230
L24365 15115
L24384 15077
L24403 15058
L24441 15039
L24498 15039
L24536 15058
L24555 15077
L24574 15115
L24574 15230
L24555 15268
L24536 15287
L24498 15306
L24441 15306
" />
<path d="M24689 15039
L24841 15039
" />
<path d="M24746 14906
L24746 15249
L24765 15287
L24803 15306
L24841 15306
" />
<path d="M25393 14906
L25393 15192
L25374 15249
L25336 15287
L25279 15306
L25241 15306
" />
<path d="M25755 15039
L25755 15306
" />
<path d="M25584 15039
L25584 15249
L25603 15287
L25641 15306
L25698 15306
L25736 15287
L25755 15268
" />
<path d="M25946 15306
L25946 15039
" />
<path d="M25946 15077
L25965 15058
L26003 15039
L26060 15039
L26098 15058
L26117 15096
L26117 15306
" />
<path d="M26117 15096
L26136 15058
L26174 15039
L26232 15039
L26270 15058
L26289 15096
L26289 15306
" />
<path d="M26479 15039
L26479 15439
" />
<path d="M26479 15058
L26517 15039
L26593 15039
L26632 15058
L26651 15077
L26670 15115
L26670 15230
L26651 15268
L26632 15287
L26593 15306
L26517 15306
L26479 15287
" />
<path d="M26993 15287
L26955 15306
L26879 15306
L26841 15287
L26822 15249
L26822 15096
L26841 15058
L26879 15039
L26955 15039
L26993 15058
L27013 15096
L27013 15134
L26822 15173
" />
<path d="M27184 15306
L27184 15039
" />
<path d="M27184 15115
L27203 15077
L27222 15058
L27260 15039
L27298 15039
" />
<path d="M50130 31331
L49997 31140
" />
<path d="M49902 31331
L49902 30931
L50054 30931
L50092 30950
L50111 30969
L50130 31007
L50130 31064
L50111 31102
L50092 31121
L50054 31140
L49902 31140
" />
<path d="M50302 31121
L50435 31121
" />
<path d="M50492 31331
L50302 31331
L50302 30931
L50492 30931
" />
<path d="M50645 31312
L50702 31331
L50797 31331
L50835 31312
L50854 31293
L50873 31255
L50873 31217
L50854 31178
L50835 31159
L50797 31140
L50721 31121
L50683 31102
L50664 31083
L50645 31045
L50645 31007
L50664 30969
L50683 30950
L50721 30931
L50816 30931
L50873 30950
" />
<path d="M51045 31121
L51178 31121
" />
<path d="M51235 31331
L51045 31331
L51045 30931
L51235 30931
" />
<path d="M51349 30931
L51578 30931
" />
<path d="M51464 31331
L51464 30931
" />
<path d="M50745 34921
L50802 34940
L50821 34959
L50840 34998
L50840 35055
L50821 35093
L50802 35112
L50764 35131
L50611 35131
L50611 34731
L50745 34731
L50783 34750
L50802 34769
L50821 34807
L50821 34845
L50802 34883
L50783 34902
L50745 34921
L50611 34921
" />
<path d="M50916 35169
L51221 35169
" />
<path d="M51507 35131
L51316 35131
L51316 34731
" />
<path d="M51640 34921
L51773 34921
" />
<path d="M51830 35131
L51640 35131
L51640 34731
L51830 34731
" />
<path d="M52002 35131
L52002 34731
L52097 34731
L52154 34750
L52192 34788
L52211 34826
L52230 34902
L52230 34959
L52211 35036
L52192 35074
L52154 35112
L52097 35131
L52002 35131
" />
<path d="M44178 31912
L44235 31931
L44330 31931
L44368 31912
L44388 31893
L44407 31855
L44407 31817
L44388 31778
L44368 31759
L44330 31740
L44254 31721
L44216 31702
L44197 31683
L44178 31645
L44178 31607
L44197 31569
L44216 31550
L44254 31531
L44349 31531
L44407 31550
" />
<path d="M44540 31531
L44635 31931
L44711 31645
L44788 31931
L44883 31531
" />
<path d="M45016 31569
L45035 31550
L45073 31531
L45168 31531
L45207 31550
L45226 31569
L45245 31607
L45245 31645
L45226 31702
L44997 31931
L45245 31931
" />
<path d="M40378 31912
L40435 31931
L40530 31931
L40568 31912
L40588 31893
L40607 31855
L40607 31817
L40588 31778
L40568 31759
L40530 31740
L40454 31721
L40416 31702
L40397 31683
L40378 31645
L40378 31607
L40397 31569
L40416 31550
L40454 31531
L40549 31531
L40607 31550
" />
<path d="M40740 31531
L40835 31931
L40911 31645
L40988 31931
L41083 31531
" />
<path d="M41445 31931
L41216 31931
" />
<path d="M41330 31931
L41330 31531
L41292 31588
L41254 31626
L41216 31645
" />
<path d="M37564 30831
L37373 30831
L37373 30431
" />
<path d="M37697 30621
L37830 30621
" />
<path d="M37888 30831
L37697 30831
L37697 30431
L37888 30431
" />
<path d="M38059 30831
L38059 30431
L38154 30431
L38211 30450
L38249 30488
L38268 30526
L38288 30602
L38288 30659
L38268 30736
L38249 30774
L38211 30812
L38154 30831
L38059 30831
" />
<path d="M38440 30469
L38459 30450
L38497 30431
L38592 30431
L38630 30450
L38649 30469
L38668 30507
L38668 30545
L38649 30602
L38421 30831
L38668 30831
" />
<path d="M35364 30831
L35173 30831
L35173 30431
" />
<path d="M35497 30621
L35630 30621
" />
<path d="M35688 30831
L35497 30831
L35497 30431
L35688 30431
" />
<path d="M35859 30831
L35859 30431
L35954 30431
L36011 30450
L36049 30488
L36068 30526
L36088 30602
L36088 30659
L36068 30736
L36049 30774
L36011 30812
L35954 30831
L35859 30831
" />
<path d="M36468 30831
L36240 30831
" />
<path d="M36354 30831
L36354 30431
L36316 30488
L36278 30526
L36240 30545
" />
</g>
<g style="fill:#000000; fill-opacity:0.0; 
stroke:#000000; stroke-width:150; stroke-opacity:1; 
stroke-linecap:round; stroke-linejoin:round;">
<path d="M18700 39763
L51377 39763
" />
<path d="M17322 13582
L17322 38385
" />
<path d="M19094 12204
L18700 12204
" />
<path d="M51377 12204
L19094 12204
" />
<path d="M52755 38385
L52755 13582
" />
<path d="M51378 39763.8 A1377.95 1377.95 0.0 0 0 52755.9 38385.8 " />
<path d="M17322.8 38385.8 A1377.95 1377.95 0.0 0 0 18700.8 39763.8 " />
<path d="M18700.8 12204.7 A1377.95 1377.95 0.0 0 0 17322.8 13582.7 " />
<path d="M52755.9 13582.7 A1377.95 1377.95 0.0 0 0 51378 12204.7 " />
</g>
<g style="fill:#000000; fill-opacity:0.0; 
stroke:#000000; stroke-width:175; stroke-opacity:1; 
stroke-linecap:round; stroke-linejoin:round;">
<path d="M19961 13200
L20195 13200
" />
<path d="M20295 13567
L19961 13567
L19961 12867
L20295 12867
" />
<path d="M20528 13567
L20895 13100
" />
<path d="M20528 13100
L20895 13567
" />
<path d="M21161 13100
L21161 13800
" />
<path d="M21161 13133
L21228 13100
L21361 13100
L21428 13133
L21461 13167
L21495 13233
L21495 13433
L21461 13500
L21428 13533
L21361 13567
L21228 13567
L21161 13533
" />
<path d="M21895 13567
L21828 13533
L21795 13467
L21795 12867
" />
<path d="M22261 13567
L22195 13533
L22161 13500
L22128 13433
L22128 13233
L22161 13167
L22195 13133
L22261 13100
L22361 13100
L22428 13133
L22461 13167
L22495 13233
L22495 13433
L22461 13500
L22428 13533
L22361 13567
L22261 13567
" />
<path d="M22795 13567
L22795 13100
" />
<path d="M22795 13233
L22828 13167
L22861 13133
L22928 13100
L22995 13100
" />
<path d="M23495 13533
L23428 13567
L23295 13567
L23228 13533
L23195 13467
L23195 13200
L23228 13133
L23295 13100
L23428 13100
L23495 13133
L23528 13200
L23528 13267
L23195 13333
" />
<path d="M24328 13533
L24428 13567
L24595 13567
L24661 13533
L24695 13500
L24728 13433
L24728 13367
L24695 13300
L24661 13267
L24595 13233
L24461 13200
L24395 13167
L24361 13133
L24328 13067
L24328 13000
L24361 12933
L24395 12900
L24461 12867
L24628 12867
L24728 12900
" />
<path d="M24928 13100
L25195 13100
" />
<path d="M25028 12867
L25028 13467
L25061 13533
L25128 13567
L25195 13567
" />
<path d="M25728 13567
L25728 13200
L25695 13133
L25628 13100
L25495 13100
L25428 13133
" />
<path d="M25728 13533
L25661 13567
L25495 13567
L25428 13533
L25395 13467
L25395 13400
L25428 13333
L25495 13300
L25661 13300
L25728 13267
" />
<path d="M26061 13567
L26061 13100
" />
<path d="M26061 13233
L26095 13167
L26128 13133
L26195 13100
L26261 13100
" />
<path d="M26395 13100
L26661 13100
" />
<path d="M26495 12867
L26495 13467
L26528 13533
L26595 13567
L26661 13567
" />
<path d="M27161 13533
L27095 13567
L26961 13567
L26895 13533
L26861 13467
L26861 13200
L26895 13133
L26961 13100
L27095 13100
L27161 13133
L27195 13200
L27195 13267
L26861 13333
" />
<path d="M27495 13567
L27495 13100
" />
<path d="M27495 13233
L27528 13167
L27561 13133
L27628 13100
L27695 13100
" />
<path d="M28461 13567
L28461 12867
L28728 12867
L28795 12900
L28828 12933
L28861 13000
L28861 13100
L28828 13167
L28795 13200
L28728 13233
L28461 13233
" />
<path d="M29161 13567
L29161 12867
" />
<path d="M29895 13500
L29861 13533
L29761 13567
L29695 13567
L29595 13533
L29528 13467
L29495 13400
L29461 13267
L29461 13167
L29495 13033
L29528 12967
L29595 12900
L29695 12867
L29761 12867
L29861 12900
L29895 12933
" />
</g>
<g style="fill:#000000; fill-opacity:0.0; 
stroke:#000000; stroke-width:100; stroke-opacity:1; 
stroke-linecap:round; stroke-linejoin:round;">
<path d="M31076 34567
L31266 34567
" />
<path d="M31038 34681
L31171 34281
L31304 34681
" />
<path d="M31438 34681
L31438 34281
L31533 34281
L31590 34300
L31628 34338
L31647 34376
L31666 34452
L31666 34509
L31647 34586
L31628 34624
L31590 34662
L31533 34681
L31438 34681
" />
<path d="M32066 34643
L32047 34662
L31990 34681
L31952 34681
L31895 34662
L31857 34624
L31838 34586
L31818 34509
L31818 34452
L31838 34376
L31857 34338
L31895 34300
L31952 34281
L31990 34281
L32047 34300
L32066 34319
" />
<path d="M32314 34281
L32352 34281
L32390 34300
L32409 34319
L32428 34357
L32447 34433
L32447 34528
L32428 34605
L32409 34643
L32390 34662
L32352 34681
L32314 34681
L32276 34662
L32257 34643
L32238 34605
L32218 34528
L32218 34433
L32238 34357
L32257 34319
L32276 34300
L32314 34281
" />
<path d="M27635 34631
L27445 34631
L27445 34231
" />
<path d="M27997 34593
L27978 34612
L27921 34631
L27883 34631
L27826 34612
L27788 34574
L27768 34536
L27749 34459
L27749 34402
L27768 34326
L27788 34288
L27826 34250
L27883 34231
L27921 34231
L27978 34250
L27997 34269
" />
<path d="M28168 34631
L28168 34231
L28264 34231
L28321 34250
L28359 34288
L28378 34326
L28397 34402
L28397 34459
L28378 34536
L28359 34574
L28321 34612
L28264 34631
L28168 34631
" />
<path d="M29292 35988
L29692 35855
L29292 35721
" />
<path d="M29692 35588
L29292 35588
" />
<path d="M29692 35398
L29292 35398
L29692 35169
L29292 35169
" />
<path d="M28311 35755
L28292 35793
L28292 35850
L28311 35907
L28349 35945
L28388 35964
L28464 35983
L28521 35983
L28597 35964
L28635 35945
L28673 35907
L28692 35850
L28692 35812
L28673 35755
L28654 35736
L28521 35736
L28521 35812
" />
<path d="M28692 35564
L28292 35564
L28692 35336
L28292 35336
" />
<path d="M28692 35145
L28292 35145
L28292 35050
L28311 34993
L28349 34955
L28388 34936
L28464 34917
L28521 34917
L28597 34936
L28635 34955
L28673 34993
L28692 35050
L28692 35145
" />
<path d="M27540 35964
L27540 35659
" />
<path d="M27692 35812
L27388 35812
" />
<path d="M27292 35278
L27292 35469
L27483 35488
L27464 35469
L27445 35431
L27445 35336
L27464 35298
L27483 35278
L27521 35259
L27616 35259
L27654 35278
L27673 35298
L27692 35336
L27692 35431
L27673 35469
L27654 35488
" />
<path d="M27292 35145
L27692 35012
L27292 34878
" />
<path d="M19416 29117
L19607 29117
" />
<path d="M19378 29231
L19511 28831
L19645 29231
" />
<path d="M19778 28831
L19778 29155
L19797 29193
L19816 29212
L19854 29231
L19930 29231
L19968 29212
L19988 29193
L20007 29155
L20007 28831
" />
<path d="M20159 28831
L20426 29231
" />
<path d="M20426 28831
L20159 29231
" />
<path d="M19407 28231
L19407 27831
L19559 27831
L19597 27850
L19616 27869
L19635 27907
L19635 27964
L19616 28002
L19597 28021
L19559 28040
L19407 28040
" />
<path d="M20016 27850
L19978 27831
L19921 27831
L19864 27850
L19826 27888
L19807 27926
L19788 28002
L19788 28059
L19807 28136
L19826 28174
L19864 28212
L19921 28231
L19959 28231
L20016 28212
L20035 28193
L20035 28059
L19959 28059
" />
<path d="M20435 28193
L20416 28212
L20359 28231
L20321 28231
L20264 28212
L20226 28174
L20207 28136
L20188 28059
L20188 28002
L20207 27926
L20226 27888
L20264 27850
L20321 27831
L20359 27831
L20416 27850
L20435 27869
" />
<path d="M19407 27231
L19407 26831
L19559 26831
L19597 26850
L19616 26869
L19635 26907
L19635 26964
L19616 27002
L19597 27021
L19559 27040
L19407 27040
" />
<path d="M20016 26850
L19978 26831
L19921 26831
L19864 26850
L19826 26888
L19807 26926
L19788 27002
L19788 27059
L19807 27136
L19826 27174
L19864 27212
L19921 27231
L19959 27231
L20016 27212
L20035 27193
L20035 27059
L19959 27059
" />
<path d="M20207 27231
L20207 26831
L20302 26831
L20359 26850
L20397 26888
L20416 26926
L20435 27002
L20435 27059
L20416 27136
L20397 27174
L20359 27212
L20302 27231
L20207 27231
" />
<path d="M19607 25750
L19568 25731
L19511 25731
L19454 25750
L19416 25788
L19397 25826
L19378 25902
L19378 25959
L19397 26036
L19416 26074
L19454 26112
L19511 26131
L19549 26131
L19607 26112
L19626 26093
L19626 25959
L19549 25959
" />
<path d="M19797 26131
L19797 25731
L20026 26131
L20026 25731
" />
<path d="M20216 26131
L20216 25731
L20311 25731
L20368 25750
L20407 25788
L20426 25826
L20445 25902
L20445 25959
L20426 26036
L20407 26074
L20368 26112
L20311 26131
L20216 26131
" />
<path d="M19378 24831
L19511 25231
L19645 24831
" />
<path d="M20007 25193
L19988 25212
L19930 25231
L19892 25231
L19835 25212
L19797 25174
L19778 25136
L19759 25059
L19759 25002
L19778 24926
L19797 24888
L19835 24850
L19892 24831
L19930 24831
L19988 24850
L20007 24869
" />
<path d="M20407 25193
L20388 25212
L20330 25231
L20292 25231
L20235 25212
L20197 25174
L20178 25136
L20159 25059
L20159 25002
L20178 24926
L20197 24888
L20235 24850
L20292 24831
L20330 24831
L20388 24850
L20407 24869
" />
<path d="M19316 24231
L19316 23831
L19449 24117
L19583 23831
L19583 24231
" />
<path d="M20002 24193
L19983 24212
L19926 24231
L19888 24231
L19830 24212
L19792 24174
L19773 24136
L19754 24059
L19754 24002
L19773 23926
L19792 23888
L19830 23850
L19888 23831
L19926 23831
L19983 23850
L20002 23869
" />
<path d="M20364 24231
L20173 24231
L20173 23831
" />
<path d="M20726 24231
L20592 24040
" />
<path d="M20497 24231
L20497 23831
L20649 23831
L20688 23850
L20707 23869
L20726 23907
L20726 23964
L20707 24002
L20688 24021
L20649 24040
L20497 24040
" />
<path d="M31092 14917
L30902 15050
" />
<path d="M31092 15145
L30692 15145
L30692 14993
L30711 14955
L30730 14936
L30768 14917
L30826 14917
L30864 14936
L30883 14955
L30902 14993
L30902 15145
" />
<path d="M30883 14612
L30902 14555
L30921 14536
L30959 14517
L31016 14517
L31054 14536
L31073 14555
L31092 14593
L31092 14745
L30692 14745
L30692 14612
L30711 14574
L30730 14555
L30768 14536
L30807 14536
L30845 14555
L30864 14574
L30883 14612
L30883 14745
" />
<path d="M30692 14269
L30692 14231
L30711 14193
L30730 14174
L30768 14155
L30845 14136
L30940 14136
L31016 14155
L31054 14174
L31073 14193
L31092 14231
L31092 14269
L31073 14307
L31054 14326
L31016 14345
L30940 14364
L30845 14364
L30768 14345
L30730 14326
L30711 14307
L30692 14269
" />
<path d="M32092 14917
L31902 15050
" />
<path d="M32092 15145
L31692 15145
L31692 14993
L31711 14955
L31730 14936
L31768 14917
L31826 14917
L31864 14936
L31883 14955
L31902 14993
L31902 15145
" />
<path d="M31883 14612
L31902 14555
L31921 14536
L31959 14517
L32016 14517
L32054 14536
L32073 14555
L32092 14593
L32092 14745
L31692 14745
L31692 14612
L31711 14574
L31730 14555
L31768 14536
L31807 14536
L31845 14555
L31864 14574
L31883 14612
L31883 14745
" />
<path d="M32092 14136
L32092 14364
" />
<path d="M32092 14250
L31692 14250
L31749 14288
L31788 14326
L31807 14364
" />
<path d="M33092 14917
L32902 15050
" />
<path d="M33092 15145
L32692 15145
L32692 14993
L32711 14955
L32730 14936
L32768 14917
L32826 14917
L32864 14936
L32883 14955
L32902 14993
L32902 15145
" />
<path d="M32883 14612
L32902 14555
L32921 14536
L32959 14517
L33016 14517
L33054 14536
L33073 14555
L33092 14593
L33092 14745
L32692 14745
L32692 14612
L32711 14574
L32730 14555
L32768 14536
L32807 14536
L32845 14555
L32864 14574
L32883 14612
L32883 14745
" />
<path d="M32730 14364
L32711 14345
L32692 14307
L32692 14212
L32711 14174
L32730 14155
L32768 14136
L32807 14136
L32864 14155
L33092 14383
L33092 14136
" />
<path d="M34092 14917
L33902 15050
" />
<path d="M34092 15145
L33692 15145
L33692 14993
L33711 14955
L33730 14936
L33768 14917
L33826 14917
L33864 14936
L33883 14955
L33902 14993
L33902 15145
" />
<path d="M33883 14612
L33902 14555
L33921 14536
L33959 14517
L34016 14517
L34054 14536
L34073 14555
L34092 14593
L34092 14745
L33692 14745
L33692 14612
L33711 14574
L33730 14555
L33768 14536
L33807 14536
L33845 14555
L33864 14574
L33883 14612
L33883 14745
" />
<path d="M33692 14383
L33692 14136
L33845 14269
L33845 14212
L33864 14174
L33883 14155
L33921 14136
L34016 14136
L34054 14155
L34073 14174
L34092 14212
L34092 14326
L34073 14364
L34054 14383
" />
<path d="M35092 14917
L34902 15050
" />
<path d="M35092 15145
L34692 15145
L34692 14993
L34711 14955
L34730 14936
L34768 14917
L34826 14917
L34864 14936
L34883 14955
L34902 14993
L34902 15145
" />
<path d="M34883 14612
L34902 14555
L34921 14536
L34959 14517
L35016 14517
L35054 14536
L35073 14555
L35092 14593
L35092 14745
L34692 14745
L34692 14612
L34711 14574
L34730 14555
L34768 14536
L34807 14536
L34845 14555
L34864 14574
L34883 14612
L34883 14745
" />
<path d="M34826 14174
L35092 14174
" />
<path d="M34673 14269
L34959 14364
L34959 14117
" />
<path d="M36092 14917
L35902 15050
" />
<path d="M36092 15145
L35692 15145
L35692 14993
L35711 14955
L35730 14936
L35768 14917
L35826 14917
L35864 14936
L35883 14955
L35902 14993
L35902 15145
" />
<path d="M35883 14612
L35902 14555
L35921 14536
L35959 14517
L36016 14517
L36054 14536
L36073 14555
L36092 14593
L36092 14745
L35692 14745
L35692 14612
L35711 14574
L35730 14555
L35768 14536
L35807 14536
L35845 14555
L35864 14574
L35883 14612
L35883 14745
" />
<path d="M35692 14155
L35692 14345
L35883 14364
L35864 14345
L35845 14307
L35845 14212
L35864 14174
L35883 14155
L35921 14136
L36016 14136
L36054 14155
L36073 14174
L36092 14212
L36092 14307
L36073 14345
L36054 14364
" />
<path d="M37092 14917
L36902 15050
" />
<path d="M37092 15145
L36692 15145
L36692 14993
L36711 14955
L36730 14936
L36768 14917
L36826 14917
L36864 14936
L36883 14955
L36902 14993
L36902 15145
" />
<path d="M36883 14612
L36902 14555
L36921 14536
L36959 14517
L37016 14517
L37054 14536
L37073 14555
L37092 14593
L37092 14745
L36692 14745
L36692 14612
L36711 14574
L36730 14555
L36768 14536
L36807 14536
L36845 14555
L36864 14574
L36883 14612
L36883 14745
" />
<path d="M36692 14174
L36692 14250
L36711 14288
L36730 14307
L36788 14345
L36864 14364
L37016 14364
L37054 14345
L37073 14326
L37092 14288
L37092 14212
L37073 14174
L37054 14155
L37016 14136
L36921 14136
L36883 14155
L36864 14174
L36845 14212
L36845 14288
L36864 14326
L36883 14345
L36921 14364
" />
<path d="M38092 14917
L37902 15050
" />
<path d="M38092 15145
L37692 15145
L37692 14993
L37711 14955
L37730 14936
L37768 14917
L37826 14917
L37864 14936
L37883 14955
L37902 14993
L37902 15145
" />
<path d="M37883 14612
L37902 14555
L37921 14536
L37959 14517
L38016 14517
L38054 14536
L38073 14555
L38092 14593
L38092 14745
L37692 14745
L37692 14612
L37711 14574
L37730 14555
L37768 14536
L37807 14536
L37845 14555
L37864 14574
L37883 14612
L37883 14745
" />
<path d="M37692 14383
L37692 14117
L38092 14288
" />
<path d="M41992 14917
L41802 15050
" />
<path d="M41992 15145
L41592 15145
L41592 14993
L41611 14955
L41630 14936
L41668 14917
L41726 14917
L41764 14936
L41783 14955
L41802 14993
L41802 15145
" />
<path d="M41992 14745
L41592 14745
L41592 14650
L41611 14593
L41649 14555
L41688 14536
L41764 14517
L41821 14517
L41897 14536
L41935 14555
L41973 14593
L41992 14650
L41992 14745
" />
<path d="M41592 14383
L41592 14117
L41992 14288
" />
<path d="M42992 14917
L42802 15050
" />
<path d="M42992 15145
L42592 15145
L42592 14993
L42611 14955
L42630 14936
L42668 14917
L42726 14917
L42764 14936
L42783 14955
L42802 14993
L42802 15145
" />
<path d="M42992 14745
L42592 14745
L42592 14650
L42611 14593
L42649 14555
L42688 14536
L42764 14517
L42821 14517
L42897 14536
L42935 14555
L42973 14593
L42992 14650
L42992 14745
" />
<path d="M42592 14174
L42592 14250
L42611 14288
L42630 14307
L42688 14345
L42764 14364
L42916 14364
L42954 14345
L42973 14326
L42992 14288
L42992 14212
L42973 14174
L42954 14155
L42916 14136
L42821 14136
L42783 14155
L42764 14174
L42745 14212
L42745 14288
L42764 14326
L42783 14345
L42821 14364
" />
<path d="M43992 14917
L43802 15050
" />
<path d="M43992 15145
L43592 15145
L43592 14993
L43611 14955
L43630 14936
L43668 14917
L43726 14917
L43764 14936
L43783 14955
L43802 14993
L43802 15145
" />
<path d="M43992 14745
L43592 14745
L43592 14650
L43611 14593
L43649 14555
L43688 14536
L43764 14517
L43821 14517
L43897 14536
L43935 14555
L43973 14593
L43992 14650
L43992 14745
" />
<path d="M43592 14155
L43592 14345
L43783 14364
L43764 14345
L43745 14307
L43745 14212
L43764 14174
L43783 14155
L43821 14136
L43916 14136
L43954 14155
L43973 14174
L43992 14212
L43992 14307
L43973 14345
L43954 14364
" />
<path d="M44992 14917
L44802 15050
" />
<path d="M44992 15145
L44592 15145
L44592 14993
L44611 14955
L44630 14936
L44668 14917
L44726 14917
L44764 14936
L44783 14955
L44802 14993
L44802 15145
" />
<path d="M44992 14745
L44592 14745
L44592 14650
L44611 14593
L44649 14555
L44688 14536
L44764 14517
L44821 14517
L44897 14536
L44935 14555
L44973 14593
L44992 14650
L44992 14745
" />
<path d="M44726 14174
L44992 14174
" />
<path d="M44573 14269
L44859 14364
L44859 14117
" />
<path d="M45992 14917
L45802 15050
" />
<path d="M45992 15145
L45592 15145
L45592 14993
L45611 14955
L45630 14936
L45668 14917
L45726 14917
L45764 14936
L45783 14955
L45802 14993
L45802 15145
" />
<path d="M45992 14745
L45592 14745
L45592 14650
L45611 14593
L45649 14555
L45688 14536
L45764 14517
L45821 14517
L45897 14536
L45935 14555
L45973 14593
L45992 14650
L45992 14745
" />
<path d="M45592 14383
L45592 14136
L45745 14269
L45745 14212
L45764 14174
L45783 14155
L45821 14136
L45916 14136
L45954 14155
L45973 14174
L45992 14212
L45992 14326
L45973 14364
L45954 14383
" />
<path d="M46992 14917
L46802 15050
" />
<path d="M46992 15145
L46592 15145
L46592 14993
L46611 14955
L46630 14936
L46668 14917
L46726 14917
L46764 14936
L46783 14955
L46802 14993
L46802 15145
" />
<path d="M46992 14745
L46592 14745
L46592 14650
L46611 14593
L46649 14555
L46688 14536
L46764 14517
L46821 14517
L46897 14536
L46935 14555
L46973 14593
L46992 14650
L46992 14745
" />
<path d="M46630 14364
L46611 14345
L46592 14307
L46592 14212
L46611 14174
L46630 14155
L46668 14136
L46707 14136
L46764 14155
L46992 14383
L46992 14136
" />
<path d="M47892 14917
L47702 15050
" />
<path d="M47892 15145
L47492 15145
L47492 14993
L47511 14955
L47530 14936
L47568 14917
L47626 14917
L47664 14936
L47683 14955
L47702 14993
L47702 15145
" />
<path d="M47892 14745
L47492 14745
L47492 14650
L47511 14593
L47549 14555
L47588 14536
L47664 14517
L47721 14517
L47797 14536
L47835 14555
L47873 14593
L47892 14650
L47892 14745
" />
<path d="M47892 14136
L47892 14364
" />
<path d="M47892 14250
L47492 14250
L47549 14288
L47588 14326
L47607 14364
" />
<path d="M48992 14917
L48802 15050
" />
<path d="M48992 15145
L48592 15145
L48592 14993
L48611 14955
L48630 14936
L48668 14917
L48726 14917
L48764 14936
L48783 14955
L48802 14993
L48802 15145
" />
<path d="M48992 14745
L48592 14745
L48592 14650
L48611 14593
L48649 14555
L48688 14536
L48764 14517
L48821 14517
L48897 14536
L48935 14555
L48973 14593
L48992 14650
L48992 14745
" />
<path d="M48592 14269
L48592 14231
L48611 14193
L48630 14174
L48668 14155
L48745 14136
L48840 14136
L48916 14155
L48954 14174
L48973 14193
L48992 14231
L48992 14269
L48973 14307
L48954 14326
L48916 14345
L48840 14364
L48745 14364
L48668 14345
L48630 14326
L48611 14307
L48592 14269
" />
<path d="M48992 37617
L48802 37750
" />
<path d="M48992 37845
L48592 37845
L48592 37693
L48611 37655
L48630 37636
L48668 37617
L48726 37617
L48764 37636
L48783 37655
L48802 37693
L48802 37845
" />
<path d="M48954 37217
L48973 37236
L48992 37293
L48992 37331
L48973 37388
L48935 37426
L48897 37445
L48821 37464
L48764 37464
L48688 37445
L48649 37426
L48611 37388
L48592 37331
L48592 37293
L48611 37236
L48630 37217
" />
<path d="M48592 37083
L48592 36817
L48992 36988
" />
<path d="M47992 37617
L47802 37750
" />
<path d="M47992 37845
L47592 37845
L47592 37693
L47611 37655
L47630 37636
L47668 37617
L47726 37617
L47764 37636
L47783 37655
L47802 37693
L47802 37845
" />
<path d="M47954 37217
L47973 37236
L47992 37293
L47992 37331
L47973 37388
L47935 37426
L47897 37445
L47821 37464
L47764 37464
L47688 37445
L47649 37426
L47611 37388
L47592 37331
L47592 37293
L47611 37236
L47630 37217
" />
<path d="M47592 36874
L47592 36950
L47611 36988
L47630 37007
L47688 37045
L47764 37064
L47916 37064
L47954 37045
L47973 37026
L47992 36988
L47992 36912
L47973 36874
L47954 36855
L47916 36836
L47821 36836
L47783 36855
L47764 36874
L47745 36912
L47745 36988
L47764 37026
L47783 37045
L47821 37064
" />
<path d="M46892 37617
L46702 37750
" />
<path d="M46892 37845
L46492 37845
L46492 37693
L46511 37655
L46530 37636
L46568 37617
L46626 37617
L46664 37636
L46683 37655
L46702 37693
L46702 37845
" />
<path d="M46854 37217
L46873 37236
L46892 37293
L46892 37331
L46873 37388
L46835 37426
L46797 37445
L46721 37464
L46664 37464
L46588 37445
L46549 37426
L46511 37388
L46492 37331
L46492 37293
L46511 37236
L46530 37217
" />
<path d="M46492 36855
L46492 37045
L46683 37064
L46664 37045
L46645 37007
L46645 36912
L46664 36874
L46683 36855
L46721 36836
L46816 36836
L46854 36855
L46873 36874
L46892 36912
L46892 37007
L46873 37045
L46854 37064
" />
<path d="M45992 37617
L45802 37750
" />
<path d="M45992 37845
L45592 37845
L45592 37693
L45611 37655
L45630 37636
L45668 37617
L45726 37617
L45764 37636
L45783 37655
L45802 37693
L45802 37845
" />
<path d="M45954 37217
L45973 37236
L45992 37293
L45992 37331
L45973 37388
L45935 37426
L45897 37445
L45821 37464
L45764 37464
L45688 37445
L45649 37426
L45611 37388
L45592 37331
L45592 37293
L45611 37236
L45630 37217
" />
<path d="M45726 36874
L45992 36874
" />
<path d="M45573 36969
L45859 37064
L45859 36817
" />
<path d="M44992 37617
L44802 37750
" />
<path d="M44992 37845
L44592 37845
L44592 37693
L44611 37655
L44630 37636
L44668 37617
L44726 37617
L44764 37636
L44783 37655
L44802 37693
L44802 37845
" />
<path d="M44954 37217
L44973 37236
L44992 37293
L44992 37331
L44973 37388
L44935 37426
L44897 37445
L44821 37464
L44764 37464
L44688 37445
L44649 37426
L44611 37388
L44592 37331
L44592 37293
L44611 37236
L44630 37217
" />
<path d="M44592 37083
L44592 36836
L44745 36969
L44745 36912
L44764 36874
L44783 36855
L44821 36836
L44916 36836
L44954 36855
L44973 36874
L44992 36912
L44992 37026
L44973 37064
L44954 37083
" />
<path d="M43992 37617
L43802 37750
" />
<path d="M43992 37845
L43592 37845
L43592 37693
L43611 37655
L43630 37636
L43668 37617
L43726 37617
L43764 37636
L43783 37655
L43802 37693
L43802 37845
" />
<path d="M43954 37217
L43973 37236
L43992 37293
L43992 37331
L43973 37388
L43935 37426
L43897 37445
L43821 37464
L43764 37464
L43688 37445
L43649 37426
L43611 37388
L43592 37331
L43592 37293
L43611 37236
L43630 37217
" />
<path d="M43630 37064
L43611 37045
L43592 37007
L43592 36912
L43611 36874
L43630 36855
L43668 36836
L43707 36836
L43764 36855
L43992 37083
L43992 36836
" />
<path d="M42992 37617
L42802 37750
" />
<path d="M42992 37845
L42592 37845
L42592 37693
L42611 37655
L42630 37636
L42668 37617
L42726 37617
L42764 37636
L42783 37655
L42802 37693
L42802 37845
" />
<path d="M42954 37217
L42973 37236
L42992 37293
L42992 37331
L42973 37388
L42935 37426
L42897 37445
L42821 37464
L42764 37464
L42688 37445
L42649 37426
L42611 37388
L42592 37331
L42592 37293
L42611 37236
L42630 37217
" />
<path d="M42992 36836
L42992 37064
" />
<path d="M42992 36950
L42592 36950
L42649 36988
L42688 37026
L42707 37064
" />
<path d="M41992 37617
L41802 37750
" />
<path d="M41992 37845
L41592 37845
L41592 37693
L41611 37655
L41630 37636
L41668 37617
L41726 37617
L41764 37636
L41783 37655
L41802 37693
L41802 37845
" />
<path d="M41954 37217
L41973 37236
L41992 37293
L41992 37331
L41973 37388
L41935 37426
L41897 37445
L41821 37464
L41764 37464
L41688 37445
L41649 37426
L41611 37388
L41592 37331
L41592 37293
L41611 37236
L41630 37217
" />
<path d="M41592 36969
L41592 36931
L41611 36893
L41630 36874
L41668 36855
L41745 36836
L41840 36836
L41916 36855
L41954 36874
L41973 36893
L41992 36931
L41992 36969
L41973 37007
L41954 37026
L41916 37045
L41840 37064
L41745 37064
L41668 37045
L41630 37026
L41611 37007
L41592 36969
" />
<path d="M39992 37626
L39802 37759
" />
<path d="M39992 37855
L39592 37855
L39592 37702
L39611 37664
L39630 37645
L39668 37626
L39726 37626
L39764 37645
L39783 37664
L39802 37702
L39802 37855
" />
<path d="M39783 37455
L39783 37321
" />
<path d="M39992 37264
L39992 37455
L39592 37455
L39592 37264
" />
<path d="M39630 37112
L39611 37093
L39592 37055
L39592 36959
L39611 36921
L39630 36902
L39668 36883
L39707 36883
L39764 36902
L39992 37131
L39992 36883
" />
<path d="M40145 36598
L40126 36617
L40068 36655
L40030 36674
L39973 36693
L39878 36712
L39802 36712
L39707 36693
L39649 36674
L39611 36655
L39554 36617
L39535 36598
" />
<path d="M39878 36464
L39878 36274
" />
<path d="M39992 36502
L39592 36369
L39992 36236
" />
<path d="M39592 36140
L39592 35874
L39992 36045
" />
<path d="M40145 35759
L40126 35740
L40068 35702
L40030 35683
L39973 35664
L39878 35645
L39802 35645
L39707 35664
L39649 35683
L39611 35702
L39554 35740
L39535 35759
" />
<path d="M38992 37626
L38802 37759
" />
<path d="M38992 37855
L38592 37855
L38592 37702
L38611 37664
L38630 37645
L38668 37626
L38726 37626
L38764 37645
L38783 37664
L38802 37702
L38802 37855
" />
<path d="M38783 37455
L38783 37321
" />
<path d="M38992 37264
L38992 37455
L38592 37455
L38592 37264
" />
<path d="M38992 36883
L38992 37112
" />
<path d="M38992 36998
L38592 36998
L38649 37036
L38688 37074
L38707 37112
" />
<path d="M39145 36598
L39126 36617
L39068 36655
L39030 36674
L38973 36693
L38878 36712
L38802 36712
L38707 36693
L38649 36674
L38611 36655
L38554 36617
L38535 36598
" />
<path d="M38878 36464
L38878 36274
" />
<path d="M38992 36502
L38592 36369
L38992 36236
" />
<path d="M38592 35931
L38592 36007
L38611 36045
L38630 36064
L38688 36102
L38764 36121
L38916 36121
L38954 36102
L38973 36083
L38992 36045
L38992 35969
L38973 35931
L38954 35912
L38916 35893
L38821 35893
L38783 35912
L38764 35931
L38745 35969
L38745 36045
L38764 36083
L38783 36102
L38821 36121
" />
<path d="M39145 35759
L39126 35740
L39068 35702
L39030 35683
L38973 35664
L38878 35645
L38802 35645
L38707 35664
L38649 35683
L38611 35702
L38554 35740
L38535 35759
" />
<path d="M37992 37626
L37802 37759
" />
<path d="M37992 37855
L37592 37855
L37592 37702
L37611 37664
L37630 37645
L37668 37626
L37726 37626
L37764 37645
L37783 37664
L37802 37702
L37802 37855
" />
<path d="M37783 37455
L37783 37321
" />
<path d="M37992 37264
L37992 37455
L37592 37455
L37592 37264
" />
<path d="M37592 37017
L37592 36978
L37611 36940
L37630 36921
L37668 36902
L37745 36883
L37840 36883
L37916 36902
L37954 36921
L37973 36940
L37992 36978
L37992 37017
L37973 37055
L37954 37074
L37916 37093
L37840 37112
L37745 37112
L37668 37093
L37630 37074
L37611 37055
L37592 37017
" />
<path d="M38145 36598
L38126 36617
L38068 36655
L38030 36674
L37973 36693
L37878 36712
L37802 36712
L37707 36693
L37649 36674
L37611 36655
L37554 36617
L37535 36598
" />
<path d="M37878 36464
L37878 36274
" />
<path d="M37992 36502
L37592 36369
L37992 36236
" />
<path d="M37592 35912
L37592 36102
L37783 36121
L37764 36102
L37745 36064
L37745 35969
L37764 35931
L37783 35912
L37821 35893
L37916 35893
L37954 35912
L37973 35931
L37992 35969
L37992 36064
L37973 36102
L37954 36121
" />
<path d="M38145 35759
L38126 35740
L38068 35702
L38030 35683
L37973 35664
L37878 35645
L37802 35645
L37707 35664
L37649 35683
L37611 35702
L37554 35740
L37535 35759
" />
<path d="M36992 37617
L36802 37750
" />
<path d="M36992 37845
L36592 37845
L36592 37693
L36611 37655
L36630 37636
L36668 37617
L36726 37617
L36764 37636
L36783 37655
L36802 37693
L36802 37845
" />
<path d="M36878 37464
L36878 37274
" />
<path d="M36992 37502
L36592 37369
L36992 37236
" />
<path d="M36592 36912
L36592 37102
L36783 37121
L36764 37102
L36745 37064
L36745 36969
L36764 36931
L36783 36912
L36821 36893
L36916 36893
L36954 36912
L36973 36931
L36992 36969
L36992 37064
L36973 37102
L36954 37121
" />
<path d="M37145 36607
L37126 36626
L37068 36664
L37030 36683
L36973 36702
L36878 36721
L36802 36721
L36707 36702
L36649 36683
L36611 36664
L36554 36626
L36535 36607
" />
<path d="M36878 36474
L36878 36283
" />
<path d="M36992 36512
L36592 36378
L36992 36245
" />
<path d="M36726 35940
L36992 35940
" />
<path d="M36573 36036
L36859 36131
L36859 35883
" />
<path d="M37145 35769
L37126 35750
L37068 35712
L37030 35693
L36973 35674
L36878 35655
L36802 35655
L36707 35674
L36649 35693
L36611 35712
L36554 35750
L36535 35769
" />
<path d="M35942 37588
L35752 37721
" />
<path d="M35942 37817
L35542 37817
L35542 37664
L35561 37626
L35580 37607
L35618 37588
L35676 37588
L35714 37607
L35733 37626
L35752 37664
L35752 37817
" />
<path d="M35828 37436
L35828 37245
" />
<path d="M35942 37474
L35542 37340
L35942 37207
" />
<path d="M35676 36902
L35942 36902
" />
<path d="M35523 36998
L35809 37093
L35809 36845
" />
<path d="M34992 37617
L34802 37750
" />
<path d="M34992 37845
L34592 37845
L34592 37693
L34611 37655
L34630 37636
L34668 37617
L34726 37617
L34764 37636
L34783 37655
L34802 37693
L34802 37845
" />
<path d="M34878 37464
L34878 37274
" />
<path d="M34992 37502
L34592 37369
L34992 37236
" />
<path d="M34592 37140
L34592 36893
L34745 37026
L34745 36969
L34764 36931
L34783 36912
L34821 36893
L34916 36893
L34954 36912
L34973 36931
L34992 36969
L34992 37083
L34973 37121
L34954 37140
" />
<path d="M35145 36607
L35126 36626
L35068 36664
L35030 36683
L34973 36702
L34878 36721
L34802 36721
L34707 36702
L34649 36683
L34611 36664
L34554 36626
L34535 36607
" />
<path d="M34878 36474
L34878 36283
" />
<path d="M34992 36512
L34592 36378
L34992 36245
" />
<path d="M34592 36150
L34592 35902
L34745 36036
L34745 35978
L34764 35940
L34783 35921
L34821 35902
L34916 35902
L34954 35921
L34973 35940
L34992 35978
L34992 36093
L34973 36131
L34954 36150
" />
<path d="M35145 35769
L35126 35750
L35068 35712
L35030 35693
L34973 35674
L34878 35655
L34802 35655
L34707 35674
L34649 35693
L34611 35712
L34554 35750
L34535 35769
" />
<path d="M33992 37617
L33802 37750
" />
<path d="M33992 37845
L33592 37845
L33592 37693
L33611 37655
L33630 37636
L33668 37617
L33726 37617
L33764 37636
L33783 37655
L33802 37693
L33802 37845
" />
<path d="M33878 37464
L33878 37274
" />
<path d="M33992 37502
L33592 37369
L33992 37236
" />
<path d="M33630 37121
L33611 37102
L33592 37064
L33592 36969
L33611 36931
L33630 36912
L33668 36893
L33707 36893
L33764 36912
L33992 37140
L33992 36893
" />
<path d="M34145 36607
L34126 36626
L34068 36664
L34030 36683
L33973 36702
L33878 36721
L33802 36721
L33707 36702
L33649 36683
L33611 36664
L33554 36626
L33535 36607
" />
<path d="M33878 36474
L33878 36283
" />
<path d="M33992 36512
L33592 36378
L33992 36245
" />
<path d="M33630 36131
L33611 36112
L33592 36074
L33592 35978
L33611 35940
L33630 35921
L33668 35902
L33707 35902
L33764 35921
L33992 36150
L33992 35902
" />
<path d="M34145 35769
L34126 35750
L34068 35712
L34030 35693
L33973 35674
L33878 35655
L33802 35655
L33707 35674
L33649 35693
L33611 35712
L33554 35750
L33535 35769
" />
<path d="M32992 37617
L32802 37750
" />
<path d="M32992 37845
L32592 37845
L32592 37693
L32611 37655
L32630 37636
L32668 37617
L32726 37617
L32764 37636
L32783 37655
L32802 37693
L32802 37845
" />
<path d="M32878 37464
L32878 37274
" />
<path d="M32992 37502
L32592 37369
L32992 37236
" />
<path d="M32992 36893
L32992 37121
" />
<path d="M32992 37007
L32592 37007
L32649 37045
L32688 37083
L32707 37121
" />
<path d="M33145 36607
L33126 36626
L33068 36664
L33030 36683
L32973 36702
L32878 36721
L32802 36721
L32707 36702
L32649 36683
L32611 36664
L32554 36626
L32535 36607
" />
<path d="M32878 36474
L32878 36283
" />
<path d="M32992 36512
L32592 36378
L32992 36245
" />
<path d="M32992 35902
L32992 36131
" />
<path d="M32992 36017
L32592 36017
L32649 36055
L32688 36093
L32707 36131
" />
<path d="M33145 35769
L33126 35750
L33068 35712
L33030 35693
L32973 35674
L32878 35655
L32802 35655
L32707 35674
L32649 35693
L32611 35712
L32554 35750
L32535 35769
" />
<path d="M31992 37617
L31802 37750
" />
<path d="M31992 37845
L31592 37845
L31592 37693
L31611 37655
L31630 37636
L31668 37617
L31726 37617
L31764 37636
L31783 37655
L31802 37693
L31802 37845
" />
<path d="M31878 37464
L31878 37274
" />
<path d="M31992 37502
L31592 37369
L31992 37236
" />
<path d="M31592 37026
L31592 36988
L31611 36950
L31630 36931
L31668 36912
L31745 36893
L31840 36893
L31916 36912
L31954 36931
L31973 36950
L31992 36988
L31992 37026
L31973 37064
L31954 37083
L31916 37102
L31840 37121
L31745 37121
L31668 37102
L31630 37083
L31611 37064
L31592 37026
" />
<path d="M32145 36607
L32126 36626
L32068 36664
L32030 36683
L31973 36702
L31878 36721
L31802 36721
L31707 36702
L31649 36683
L31611 36664
L31554 36626
L31535 36607
" />
<path d="M31878 36474
L31878 36283
" />
<path d="M31992 36512
L31592 36378
L31992 36245
" />
<path d="M31592 36036
L31592 35998
L31611 35959
L31630 35940
L31668 35921
L31745 35902
L31840 35902
L31916 35921
L31954 35940
L31973 35959
L31992 35998
L31992 36036
L31973 36074
L31954 36093
L31916 36112
L31840 36131
L31745 36131
L31668 36112
L31630 36093
L31611 36074
L31592 36036
" />
<path d="M32145 35769
L32126 35750
L32068 35712
L32030 35693
L31973 35674
L31878 35655
L31802 35655
L31707 35674
L31649 35693
L31611 35712
L31554 35750
L31535 35769
" />
</g>
<g style="fill:#000000; fill-opacity:0.0; 
stroke:#000000; stroke-width:80; stroke-opacity:1; 
stroke-linecap:round; stroke-linejoin:round;">
<path d="M17578 16391
L17378 16391
" />
<path d="M17578 21191
L17378 21191
" />
<path d="M17378 21191
L17378 16441
" />
</g>
<g style="fill:#000000; fill-opacity:0.0; 
stroke:#000000; stroke-width:59.0551; stroke-opacity:1; 
stroke-linecap:round; stroke-linejoin:round;">
<path d="M20878 16391
L18878 16391
" />
<path d="M20878 21191
L18878 21191
" />
<path d="M20878 16391
L20878 21191
" />
</g>
<g style="fill:#000000; fill-opacity:0.0; 
stroke:#000000; stroke-width:150; stroke-opacity:1; 
stroke-linecap:round; stroke-linejoin:round;">
<path d="M25300 25543
L25800 25543
" />
<path d="M25800 25543
L25800 26543
" />
<path d="M25800 26543
L25300 26543
" />
<path d="M25300 23543
L46300 23543
" />
<path d="M46300 23543
L46300 28543
" />
<path d="M46300 28543
L25300 28543
" />
<path d="M25300 28543
L25300 23543
" />
</g>
<g style="fill:#000000; fill-opacity:0.0; 
stroke:#000000; stroke-width:59.0551; stroke-opacity:1; 
stroke-linecap:round; stroke-linejoin:round;">
<path d="M29045 26377
L29045 25590
" />
<path d="M28238 25590
L28238 26377
" />
<path d="M26958 25590
L26958 26377
" />
<path d="M27765 26377
L27765 25590
" />
<path d="M26082 35226
L25295 35226
" />
<path d="M25295 36033
L26082 36033
" />
<path d="M33070 26978
L33858 26978
" />
<path d="M33858 26171
L33070 26171
" />
<path d="M33070 25600
L33858 25600
" />
<path d="M33858 24793
L33070 24793
" />
<path d="M22900 27393
L23500 27393
" />
<path d="M23650 27343
L22750 27343
" />
<path d="M22650 27293
L23750 27293
" />
<path d="M23850 27243
L22550 27243
" />
<path d="M22500 27193
L23900 27193
" />
<path d="M21900 27543
L24500 27543
" />
<path d="M24500 27543
L24500 25243
" />
<path d="M24500 25243
L24200 24943
" />
<path d="M24200 24943
L22200 24943
" />
<path d="M22200 24943
L21900 25243
" />
<path d="M21900 25243
L21900 27543
" />
<path d="M23200 25393
L23200 25693
" />
<path d="M23050 25543
L23350 25543
" />
<circle cx="23200.8" cy="26243.7" r="1200" /> 
<path d="M38594 24540
L37807 24540
" />
<path d="M37807 25347
L38594 25347
" />
<path d="M40607 25347
L41394 25347
" />
<path d="M41394 24540
L40607 24540
" />
<circle cx="50760.6" cy="36004.7" r="39.3701" /> 
<path d="M51272 35611
L51350 35611
" />
<path d="M51350 35611
L51350 35689
" />
<path d="M51272 35689
L51350 35689
" />
<path d="M51272 35611
L51272 35689
" />
<path d="M51488 35375
L51625 35375
" />
<path d="M51625 35375
L51625 35473
" />
<path d="M51488 35473
L51625 35473
" />
<path d="M51488 35375
L51488 35473
" />
<path d="M51625 35375
L51665 35375
" />
<path d="M51665 35375
L51665 35846
" />
<path d="M51625 35846
L51665 35846
" />
<path d="M51625 35375
L51625 35846
" />
<path d="M51625 35866
L51665 35866
" />
<path d="M51665 35866
L51665 35925
" />
<path d="M51625 35925
L51665 35925
" />
<path d="M51625 35866
L51625 35925
" />
<path d="M50957 35375
L50997 35375
" />
<path d="M50997 35375
L50997 35846
" />
<path d="M50957 35846
L50997 35846
" />
<path d="M50957 35375
L50957 35846
" />
<path d="M50957 35866
L50997 35866
" />
<path d="M50997 35866
L50997 35925
" />
<path d="M50957 35925
L50997 35925
" />
<path d="M50957 35866
L50957 35925
" />
<path d="M51488 35375
L51547 35375
" />
<path d="M51547 35375
L51547 35473
" />
<path d="M51488 35473
L51547 35473
" />
<path d="M51488 35375
L51488 35473
" />
<path d="M51921 35355
L50701 35355
" />
<path d="M50701 35355
L50701 35945
" />
<path d="M50701 35945
L51921 35945
" />
<path d="M51921 35945
L51921 35355
" />
<path d="M51527.8 35454.4 A291.671 291.671 0.0 0 0 51096.4 35453.8 " />
<path d="M51095.8 35454.4 A291.671 291.671 0.0 0 0 51096 35846.6 " />
<path d="M51095.8 35846.4 A291.671 291.671 0.0 0 0 51527.3 35847 " />
<path d="M51527.8 35846.4 A291.671 291.671 0.0 0 0 51527.6 35454.2 " />
<circle cx="36181.1" cy="32440.9" r="39.3701" /> 
<path d="M35787 31928
L35787 31850
" />
<path d="M35787 31850
L35865 31850
" />
<path d="M35865 31928
L35865 31850
" />
<path d="M35787 31928
L35865 31928
" />
<path d="M35551 31712
L35551 31575
" />
<path d="M35551 31575
L35649 31575
" />
<path d="M35649 31712
L35649 31575
" />
<path d="M35551 31712
L35649 31712
" />
<path d="M35551 31575
L35551 31535
" />
<path d="M35551 31535
L36022 31535
" />
<path d="M36022 31575
L36022 31535
" />
<path d="M35551 31575
L36022 31575
" />
<path d="M36042 31575
L36042 31535
" />
<path d="M36042 31535
L36101 31535
" />
<path d="M36101 31575
L36101 31535
" />
<path d="M36042 31575
L36101 31575
" />
<path d="M35551 32243
L35551 32203
" />
<path d="M35551 32203
L36022 32203
" />
<path d="M36022 32243
L36022 32203
" />
<path d="M35551 32243
L36022 32243
" />
<path d="M36042 32243
L36042 32203
" />
<path d="M36042 32203
L36101 32203
" />
<path d="M36101 32243
L36101 32203
" />
<path d="M36042 32243
L36101 32243
" />
<path d="M35551 31712
L35551 31653
" />
<path d="M35551 31653
L35649 31653
" />
<path d="M35649 31712
L35649 31653
" />
<path d="M35551 31712
L35649 31712
" />
<path d="M35531 31279
L35531 32499
" />
<path d="M35531 32499
L36121 32499
" />
<path d="M36121 32499
L36121 31279
" />
<path d="M36121 31279
L35531 31279
" />
<path d="M35630.8 31673.8 A291.671 291.671 0.0 0 0 35630.2 32105.2 " />
<path d="M35630.8 32105.8 A291.671 291.671 0.0 0 0 36023 32105.6 " />
<path d="M36022.8 32105.8 A291.671 291.671 0.0 0 0 36023.4 31674.3 " />
<path d="M36022.8 31673.8 A291.671 291.671 0.0 0 0 35630.6 31674 " />
<circle cx="38346.5" cy="32440.9" r="39.3701" /> 
<path d="M37953 31928
L37953 31850
" />
<path d="M37953 31850
L38031 31850
" />
<path d="M38031 31928
L38031 31850
" />
<path d="M37953 31928
L38031 31928
" />
<path d="M37717 31712
L37717 31575
" />
<path d="M37717 31575
L37815 31575
" />
<path d="M37815 31712
L37815 31575
" />
<path d="M37717 31712
L37815 31712
" />
<path d="M37717 31575
L37717 31535
" />
<path d="M37717 31535
L38188 31535
" />
<path d="M38188 31575
L38188 31535
" />
<path d="M37717 31575
L38188 31575
" />
<path d="M38208 31575
L38208 31535
" />
<path d="M38208 31535
L38267 31535
" />
<path d="M38267 31575
L38267 31535
" />
<path d="M38208 31575
L38267 31575
" />
<path d="M37717 32243
L37717 32203
" />
<path d="M37717 32203
L38188 32203
" />
<path d="M38188 32243
L38188 32203
" />
<path d="M37717 32243
L38188 32243
" />
<path d="M38208 32243
L38208 32203
" />
<path d="M38208 32203
L38267 32203
" />
<path d="M38267 32243
L38267 32203
" />
<path d="M38208 32243
L38267 32243
" />
<path d="M37717 31712
L37717 31653
" />
<path d="M37717 31653
L37815 31653
" />
<path d="M37815 31712
L37815 31653
" />
<path d="M37717 31712
L37815 31712
" />
<path d="M37697 31279
L37697 32499
" />
<path d="M37697 32499
L38287 32499
" />
<path d="M38287 32499
L38287 31279
" />
<path d="M38287 31279
L37697 31279
" />
<path d="M37796.1 31673.8 A291.671 291.671 0.0 0 0 37795.5 32105.2 " />
<path d="M37796.1 32105.8 A291.671 291.671 0.0 0 0 38188.3 32105.6 " />
<path d="M38188.1 32105.8 A291.671 291.671 0.0 0 0 38188.7 31674.3 " />
<path d="M38188.1 31673.8 A291.671 291.671 0.0 0 0 37795.9 31674 " />
<circle cx="21023.6" cy="38543.3" r="39.3701" /> 
<path d="M20630 38031
L20630 37953
" />
<path d="M20630 37953
L20708 37953
" />
<path d="M20708 38031
L20708 37953
" />
<path d="M20630 38031
L20708 38031
" />
<path d="M20394 37815
L20394 37678
" />
<path d="M20394 37678
L20492 37678
" />
<path d="M20492 37815
L20492 37678
" />
<path d="M20394 37815
L20492 37815
" />
<path d="M20394 37678
L20394 37638
" />
<path d="M20394 37638
L20865 37638
" />
<path d="M20865 37678
L20865 37638
" />
<path d="M20394 37678
L20865 37678
" />
<path d="M20885 37678
L20885 37638
" />
<path d="M20885 37638
L20944 37638
" />
<path d="M20944 37678
L20944 37638
" />
<path d="M20885 37678
L20944 37678
" />
<path d="M20394 38346
L20394 38306
" />
<path d="M20394 38306
L20865 38306
" />
<path d="M20865 38346
L20865 38306
" />
<path d="M20394 38346
L20865 38346
" />
<path d="M20885 38346
L20885 38306
" />
<path d="M20885 38306
L20944 38306
" />
<path d="M20944 38346
L20944 38306
" />
<path d="M20885 38346
L20944 38346
" />
<path d="M20394 37815
L20394 37756
" />
<path d="M20394 37756
L20492 37756
" />
<path d="M20492 37815
L20492 37756
" />
<path d="M20394 37815
L20492 37815
" />
<path d="M20374 37382
L20374 38602
" />
<path d="M20374 38602
L20964 38602
" />
<path d="M20964 38602
L20964 37382
" />
<path d="M20964 37382
L20374 37382
" />
<path d="M20473.3 37776.1 A291.671 291.671 0.0 0 0 20472.7 38207.6 " />
<path d="M20473.3 38208.1 A291.671 291.671 0.0 0 0 20865.5 38207.9 " />
<path d="M20865.3 38208.1 A291.671 291.671 0.0 0 0 20865.9 37776.7 " />
<path d="M20865.3 37776.1 A291.671 291.671 0.0 0 0 20473.1 37776.3 " />
<circle cx="18700.8" cy="13582.7" r="900" /> 
<circle cx="18700.8" cy="38385.8" r="900" /> 
<circle cx="51378" cy="38385.8" r="900" /> 
<circle cx="51378" cy="13582.7" r="900" /> 
<path d="M50618 29027
L51405 29027
" />
<path d="M51405 29873
L50618 29873
" />
<path d="M49305 36073
L48518 36073
" />
<path d="M48518 35227
L49305 35227
" />
<path d="M23129 36053
L22342 36053
" />
<path d="M22342 35206
L23129 35206
" />
<path d="M36250 33956
L36250 34744
" />
<path d="M35403 34744
L35403 33956
" />
<path d="M38415 33956
L38415 34744
" />
<path d="M37568 34744
L37568 33956
" />
<path d="M39399 16929
L39399 17716
" />
<path d="M38553 17716
L38553 16929
" />
<path d="M48735 32556
L48735 33344
" />
<path d="M47888 33344
L47888 32556
" />
<path d="M47435 32556
L47435 33344
" />
<path d="M46588 33344
L46588 32556
" />
<path d="M27895 32466
L27895 32166
" />
<path d="M28095 32466
L28095 32166
" />
<path d="M27895.8 33266.4 A657.647 657.647 0.0 0 0 28645.8 32716.4 " />
<path d="M27345.8 32666.4 A651.92 651.92 0.0 0 0 28045.8 33266.4 " />
<path d="M28545.8 32966.4 A651.92 651.92 0.0 0 0 28345.8 32066.4 " />
<path d="M27645.8 32066.4 A651.92 651.92 0.0 0 0 27445.8 32966.4 " />
<path d="M26695 34116
L26695 34066
" />
<path d="M26695 32616
L26695 33166
" />
<path d="M29295 34116
L29295 34066
" />
<path d="M29295 32616
L29295 33166
" />
<path d="M27545 33766
L27695 33816
" />
<path d="M27695 33816
L27995 33866
" />
<path d="M27995 33866
L28295 33816
" />
<path d="M28295 33816
L28445 33766
" />
<path d="M27495 33416
L28495 33416
" />
<path d="M29145.8 33116.4 A1253.99 1253.99 0.0 0 0 28495.8 31466.4 " />
<path d="M27495.8 31466.4 A1253.99 1253.99 0.0 0 0 26845.8 33116.4 " />
<path d="M28795 31316
L28445 31316
" />
<path d="M27545 31316
L27195 31316
" />
<path d="M28645 32466
L28845 32466
" />
<path d="M28845 32466
L28845 32766
" />
<path d="M28845 32766
L28645 32766
" />
<path d="M27345 32466
L27145 32466
" />
<path d="M27145 32466
L27145 32766
" />
<path d="M27145 32766
L27345 32766
" />
<path d="M28195 32716
L28645 32716
" />
<path d="M28195 32516
L28645 32516
" />
<path d="M27795 32716
L27345 32716
" />
<path d="M27795 32516
L27345 32516
" />
<path d="M28095 32766
L28095 33266
" />
<path d="M27895 32766
L27895 33266
" />
<path d="M27795 32466
L27795 32766
" />
<path d="M27795 32766
L28195 32766
" />
<path d="M28195 32766
L28195 32466
" />
<path d="M28195 32466
L27795 32466
" />
<path d="M27195 31316
L26695 31866
" />
<path d="M26695 31866
L26695 32616
" />
<path d="M28795 31316
L29295 31866
" />
<path d="M29295 31866
L29295 32616
" />
<path d="M29195 34116
L29195 34216
" />
<path d="M29195 34216
L28745 34216
" />
<path d="M28745 34216
L28745 34116
" />
<path d="M26795 34116
L26795 34216
" />
<path d="M26795 34216
L27245 34216
" />
<path d="M27245 34216
L27245 34116
" />
<path d="M26695 34116
L29295 34116
" />
<path d="M31645 32466
L31645 32166
" />
<path d="M31845 32466
L31845 32166
" />
<path d="M31645.8 33266.4 A657.647 657.647 0.0 0 0 32395.8 32716.4 " />
<path d="M31095.8 32666.4 A651.92 651.92 0.0 0 0 31795.8 33266.4 " />
<path d="M32295.8 32966.4 A651.92 651.92 0.0 0 0 32095.8 32066.4 " />
<path d="M31395.8 32066.4 A651.92 651.92 0.0 0 0 31195.8 32966.4 " />
<path d="M30445 34116
L30445 34066
" />
<path d="M30445 32616
L30445 33166
" />
<path d="M33045 34116
L33045 34066
" />
<path d="M33045 32616
L33045 33166
" />
<path d="M31295 33766
L31445 33816
" />
<path d="M31445 33816
L31745 33866
" />
<path d="M31745 33866
L32045 33816
" />
<path d="M32045 33816
L32195 33766
" />
<path d="M31245 33416
L32245 33416
" />
<path d="M32895.8 33116.4 A1253.99 1253.99 0.0 0 0 32245.8 31466.4 " />
<path d="M31245.8 31466.4 A1253.99 1253.99 0.0 0 0 30595.8 33116.4 " />
<path d="M32545 31316
L32195 31316
" />
<path d="M31295 31316
L30945 31316
" />
<path d="M32395 32466
L32595 32466
" />
<path d="M32595 32466
L32595 32766
" />
<path d="M32595 32766
L32395 32766
" />
<path d="M31095 32466
L30895 32466
" />
<path d="M30895 32466
L30895 32766
" />
<path d="M30895 32766
L31095 32766
" />
<path d="M31945 32716
L32395 32716
" />
<path d="M31945 32516
L32395 32516
" />
<path d="M31545 32716
L31095 32716
" />
<path d="M31545 32516
L31095 32516
" />
<path d="M31845 32766
L31845 33266
" />
<path d="M31645 32766
L31645 33266
" />
<path d="M31545 32466
L31545 32766
" />
<path d="M31545 32766
L31945 32766
" />
<path d="M31945 32766
L31945 32466
" />
<path d="M31945 32466
L31545 32466
" />
<path d="M30945 31316
L30445 31866
" />
<path d="M30445 31866
L30445 32616
" />
<path d="M32545 31316
L33045 31866
" />
<path d="M33045 31866
L33045 32616
" />
<path d="M32945 34116
L32945 34216
" />
<path d="M32945 34216
L32495 34216
" />
<path d="M32495 34216
L32495 34116
" />
<path d="M30545 34116
L30545 34216
" />
<path d="M30545 34216
L30995 34216
" />
<path d="M30995 34216
L30995 34116
" />
<path d="M30445 34116
L33045 34116
" />
</g>
<g style="fill:#000000; fill-opacity:0.0; 
stroke:#000000; stroke-width:150; stroke-opacity:1; 
stroke-linecap:round; stroke-linejoin:round;">
<path d="M50761 34350
L49261 34350
" />
<path d="M49261 34350
L49261 31600
" />
<path d="M49261 31600
L52261 31600
" />
<path d="M52261 31600
L52261 34350
" />
<path d="M52261 34350
L50761 34350
" />
<circle cx="50761.8" cy="32850.4" r="500" /> 
<path d="M40911 32350
L42411 32350
" />
<path d="M42411 32350
L42411 35100
" />
<path d="M42411 35100
L39411 35100
" />
<path d="M39411 35100
L39411 32350
" />
<path d="M39411 32350
L40911 32350
" />
<circle cx="40911.8" cy="33850.4" r="500" /> 
<path d="M44811 32350
L46311 32350
" />
<path d="M46311 32350
L46311 35100
" />
<path d="M46311 35100
L43311 35100
" />
<path d="M43311 35100
L43311 32350
" />
<path d="M43311 32350
L44811 32350
" />
<circle cx="44811.8" cy="33850.4" r="500" /> 
</g>
<g style="fill:#000000; fill-opacity:0.0; 
stroke:#000000; stroke-width:59.0551; stroke-opacity:1; 
stroke-linecap:round; stroke-linejoin:round;">
<path d="M40850 25643
L38350 25643
" />
<path d="M40850 27643
L38350 27643
" />
<path d="M37350.8 26643.7 A1000 1000 0.0 0 0 38350.8 27643.7 " />
<path d="M38350.8 25643.7 A1000 1000 0.0 0 0 37350.8 26643.7 " />
<path d="M40850.8 27643.7 A1000 1000 0.0 0 0 41850.8 26643.7 " />
<path d="M41850.8 26643.7 A1000 1000 0.0 0 0 40850.8 25643.7 " />
<path d="M27011 37100
L27011 39100
" />
<path d="M27011 39100
L28011 39100
" />
<path d="M28011 39100
L28011 37100
" />
<path d="M28122 35990
L28122 36600
" />
<path d="M28011 37100
L27011 37100
" />
<path d="M26901 36600
L26901 35990
" />
<path d="M26901 35990
L28122 35990
" />
<path d="M28011 37100
L28011 39100
" />
<path d="M28011 39100
L29011 39100
" />
<path d="M29011 39100
L29011 37100
" />
<path d="M29122 35990
L29122 36600
" />
<path d="M29011 37100
L28011 37100
" />
<path d="M27901 36600
L27901 35990
" />
<path d="M27901 35990
L29122 35990
" />
<path d="M29011 37100
L29011 39100
" />
<path d="M29011 39100
L30011 39100
" />
<path d="M30011 39100
L30011 37100
" />
<path d="M30122 35990
L30122 36600
" />
<path d="M30011 37100
L29011 37100
" />
<path d="M28901 36600
L28901 35990
" />
<path d="M28901 35990
L30122 35990
" />
</g>
<g style="fill:#000000; fill-opacity:0.0; 
stroke:#000000; stroke-width:50; stroke-opacity:1; 
stroke-linecap:round; stroke-linejoin:round;">
<path d="M19662 16216
L51157 16216
" />
<path d="M51157 16216
L51157 30388
" />
<path d="M51157 30388
L19662 30388
" />
<path d="M19662 30388
L19662 16216
" />
<path d="M21630 18381
L49188 18381
" />
<path d="M49188 18381
L49188 28223
" />
<path d="M21630 18381
L21630 28223
" />
<path d="M21630 28223
L49188 28223
" />
</g>
<g style="fill:#000000; fill-opacity:0.0; 
stroke:#000000; stroke-width:25; stroke-opacity:1; 
stroke-linecap:round; stroke-linejoin:round;">
<circle cx="20646.8" cy="17200.4" r="992.778" /> 
<circle cx="50173.8" cy="17200.4" r="994.192" /> 
<circle cx="50173.8" cy="29404.4" r="994.192" /> 
<circle cx="20646.8" cy="29404.4" r="992.778" /> 
</g>
<g style="fill:#000000; fill-opacity:0.0; 
stroke:#000000; stroke-width:50; stroke-opacity:1; 
stroke-linecap:round; stroke-linejoin:round;">
<circle cx="20646.8" cy="17200.4" r="347.896" /> 
<path d="M20154 17200
L21138 17200
" />
<path d="M20646 17692
L20646 16708
" />
<circle cx="50173.8" cy="17200.4" r="347.896" /> 
<path d="M49681 17200
L50665 17200
" />
<path d="M50173 17692
L50173 16708
" />
<circle cx="20646.8" cy="29404.4" r="347.896" /> 
<path d="M20154 29404
L21138 29404
" />
<path d="M20646 29896
L20646 28912
" />
<circle cx="50173.8" cy="29404.4" r="347.896" /> 
<path d="M49681 29404
L50665 29404
" />
<path d="M50173 29896
L50173 28912
" />
</g>
<g style="fill:#000000; fill-opacity:0.0; 
stroke:#000000; stroke-width:59.0551; stroke-opacity:1; 
stroke-linecap:round; stroke-linejoin:round;">
<path d="M36261 39050
L31261 39050
" />
<path d="M31261 39050
L31261 38050
" />
<path d="M31261 38050
L36261 38050
" />
<path d="M37372 39160
L36761 39160
" />
<path d="M36261 39050
L36261 38050
" />
<path d="M36761 37940
L37372 37940
" />
<path d="M37372 37940
L37372 39160
" />
<path d="M39261 38100
L37261 38100
" />
<path d="M37261 38100
L37261 39100
" />
<path d="M37261 39100
L39261 39100
" />
<path d="M40372 39210
L39761 39210
" />
<path d="M39261 39100
L39261 38100
" />
<path d="M39761 37990
L40372 37990
" />
<path d="M40372 37990
L40372 39210
" />
<path d="M42261 38100
L49261 38100
" />
<path d="M49261 38100
L49261 39100
" />
<path d="M49261 39100
L42261 39100
" />
<path d="M41151 37990
L41761 37990
" />
<path d="M42261 38100
L42261 39100
" />
<path d="M41761 39210
L41151 39210
" />
<path d="M41151 39210
L41151 37990
" />
<path d="M31361 12850
L38361 12850
" />
<path d="M38361 12850
L38361 13850
" />
<path d="M38361 13850
L31361 13850
" />
<path d="M30251 12740
L30861 12740
" />
<path d="M31361 12850
L31361 13850
" />
<path d="M30861 13960
L30251 13960
" />
<path d="M30251 13960
L30251 12740
" />
<path d="M48261 13850
L41261 13850
" />
<path d="M41261 13850
L41261 12850
" />
<path d="M41261 12850
L48261 12850
" />
<path d="M49372 13960
L48761 13960
" />
<path d="M48261 13850
L48261 12850
" />
<path d="M48761 12740
L49372 12740
" />
<path d="M49372 12740
L49372 13960
" />
<path d="M19061 24500
L19061 29500
" />
<path d="M19061 29500
L18061 29500
" />
<path d="M18061 29500
L18061 24500
" />
<path d="M19172 23390
L19172 24000
" />
<path d="M19061 24500
L18061 24500
" />
<path d="M17951 24000
L17951 23390
" />
<path d="M17951 23390
L19172 23390
" />
</g>
<g style="fill:#000000; fill-opacity:0.0; 
stroke:#000000; stroke-width:79; stroke-opacity:1; 
stroke-linecap:round; stroke-linejoin:round;">
<path d="M22834 31496
L25394 31496
" />
<path d="M25394 31496
L25394 32874
" />
<path d="M25394 32874
L22834 32874
" />
<path d="M22834 32874
L22834 31496
" />
</g>
<g style="fill:#000000; fill-opacity:0.0; 
stroke:#000000; stroke-width:20; stroke-opacity:1; 
stroke-linecap:round; stroke-linejoin:round;">
<path d="M22638 20078
L22638 19783
" />
<path d="M22638 19783
L22933 19783
" />
<path d="M24311 19783
L24606 19783
" />
<path d="M24606 19783
L24606 20078
" />
<path d="M22933 21751
L22638 21751
" />
<path d="M22638 21751
L22638 21456
" />
<path d="M24311 21751
L24606 21751
" />
<path d="M24606 21751
L24606 21456
" />
</g>
<g style="fill:#000000; fill-opacity:0.0; 
stroke:#000000; stroke-width:59.0551; stroke-opacity:1; 
stroke-linecap:round; stroke-linejoin:round;">
<path d="M21361 15650
L20361 15650
" />
<path d="M22472 15760
L21861 15760
" />
<path d="M21361 15650
L21361 14650
" />
<path d="M21861 14540
L22472 14540
" />
<path d="M22472 14540
L22472 15760
" />
<path d="M21361 14650
L20361 14650
" />
<path d="M20361 14650
L20361 15650
" />
<path d="M20703 34709
L20703 35559
" />
<path d="M20703 35559
L20403 35559
" />
<path d="M17403 31959
L20653 31959
" />
<path d="M20653 31959
L20653 32809
" />
<path d="M17403 35559
L18553 35559
" />
<path d="M17403 31959
L17403 35559
" />
</g>
<g style="fill:#000000; fill-opacity:0.0; 
stroke:#000000; stroke-width:150; stroke-opacity:1; 
stroke-linecap:round; stroke-linejoin:round;">
<path d="M26570 37600
L26570 36419
" />
<path d="M26570 36419
L21452 36419
" />
<path d="M21452 36419
L21452 38978
" />
<path d="M21452 38978
L26570 38978
" />
<path d="M26570 38978
L26570 37600
" />
</g>
<g style="fill:#000000; fill-opacity:0.0; 
stroke:#000000; stroke-width:50; stroke-opacity:1; 
stroke-linecap:round; stroke-linejoin:round;">
<path d="M28570 24539
L28558 24551
L28522 24563
L28498 24563
L28463 24551
L28439 24527
L28427 24503
L28415 24456
L28415 24420
L28427 24373
L28439 24349
L28463 24325
L28498 24313
L28522 24313
L28558 24325
L28570 24337
" />
<path d="M28808 24563
L28665 24563
" />
<path d="M28736 24563
L28736 24313
L28713 24349
L28689 24373
L28665 24384
" />
<path d="M27270 24639
L27258 24651
L27222 24663
L27198 24663
L27163 24651
L27139 24627
L27127 24603
L27115 24556
L27115 24520
L27127 24473
L27139 24449
L27163 24425
L27198 24413
L27222 24413
L27258 24425
L27270 24437
" />
<path d="M27365 24437
L27377 24425
L27401 24413
L27460 24413
L27484 24425
L27496 24437
L27508 24461
L27508 24484
L27496 24520
L27353 24663
L27508 24663
" />
<path d="M25670 35039
L25658 35051
L25622 35063
L25598 35063
L25563 35051
L25539 35027
L25527 35003
L25515 34956
L25515 34920
L25527 34873
L25539 34849
L25563 34825
L25598 34813
L25622 34813
L25658 34825
L25670 34837
" />
<path d="M25753 34813
L25908 34813
L25824 34908
L25860 34908
L25884 34920
L25896 34932
L25908 34956
L25908 35015
L25896 35039
L25884 35051
L25860 35063
L25789 35063
L25765 35051
L25753 35039
" />
<path d="M31870 26639
L31858 26651
L31822 26663
L31798 26663
L31763 26651
L31739 26627
L31727 26603
L31715 26556
L31715 26520
L31727 26473
L31739 26449
L31763 26425
L31798 26413
L31822 26413
L31858 26425
L31870 26437
" />
<path d="M32084 26496
L32084 26663
" />
<path d="M32024 26401
L31965 26580
L32120 26580
" />
<path d="M31870 25339
L31858 25351
L31822 25363
L31798 25363
L31763 25351
L31739 25327
L31727 25303
L31715 25256
L31715 25220
L31727 25173
L31739 25149
L31763 25125
L31798 25113
L31822 25113
L31858 25125
L31870 25137
" />
<path d="M32096 25113
L31977 25113
L31965 25232
L31977 25220
L32001 25208
L32060 25208
L32084 25220
L32096 25232
L32108 25256
L32108 25315
L32096 25339
L32084 25351
L32060 25363
L32001 25363
L31977 25351
L31965 25339
" />
<path d="M22270 24739
L22258 24751
L22222 24763
L22198 24763
L22163 24751
L22139 24727
L22127 24703
L22115 24656
L22115 24620
L22127 24573
L22139 24549
L22163 24525
L22198 24513
L22222 24513
L22258 24525
L22270 24537
" />
<path d="M22353 24513
L22520 24513
L22413 24763
" />
<path d="M38170 24439
L38158 24451
L38122 24463
L38098 24463
L38063 24451
L38039 24427
L38027 24403
L38015 24356
L38015 24320
L38027 24273
L38039 24249
L38063 24225
L38098 24213
L38122 24213
L38158 24225
L38170 24237
" />
<path d="M38313 24320
L38289 24308
L38277 24296
L38265 24273
L38265 24261
L38277 24237
L38289 24225
L38313 24213
L38360 24213
L38384 24225
L38396 24237
L38408 24261
L38408 24273
L38396 24296
L38384 24308
L38360 24320
L38313 24320
L38289 24332
L38277 24344
L38265 24368
L38265 24415
L38277 24439
L38289 24451
L38313 24463
L38360 24463
L38384 24451
L38396 24439
L38408 24415
L38408 24368
L38396 24344
L38384 24332
L38360 24320
" />
<path d="M40970 24439
L40958 24451
L40922 24463
L40898 24463
L40863 24451
L40839 24427
L40827 24403
L40815 24356
L40815 24320
L40827 24273
L40839 24249
L40863 24225
L40898 24213
L40922 24213
L40958 24225
L40970 24237
" />
<path d="M41089 24463
L41136 24463
L41160 24451
L41172 24439
L41196 24403
L41208 24356
L41208 24261
L41196 24237
L41184 24225
L41160 24213
L41113 24213
L41089 24225
L41077 24237
L41065 24261
L41065 24320
L41077 24344
L41089 24356
L41113 24368
L41160 24368
L41184 24356
L41196 24344
L41208 24320
" />
<path d="M51127 36463
L51127 36213
L51186 36213
L51222 36225
L51246 36249
L51258 36273
L51270 36320
L51270 36356
L51258 36403
L51246 36427
L51222 36451
L51186 36463
L51127 36463
" />
<path d="M51365 36237
L51377 36225
L51401 36213
L51460 36213
L51484 36225
L51496 36237
L51508 36261
L51508 36284
L51496 36320
L51353 36463
L51508 36463
" />
<path d="M34827 31963
L34827 31713
L34886 31713
L34922 31725
L34946 31749
L34958 31773
L34970 31820
L34970 31856
L34958 31903
L34946 31927
L34922 31951
L34886 31963
L34827 31963
" />
<path d="M35053 31713
L35208 31713
L35124 31808
L35160 31808
L35184 31820
L35196 31832
L35208 31856
L35208 31915
L35196 31939
L35184 31951
L35160 31963
L35089 31963
L35065 31951
L35053 31939
" />
<path d="M37027 31963
L37027 31713
L37086 31713
L37122 31725
L37146 31749
L37158 31773
L37170 31820
L37170 31856
L37158 31903
L37146 31927
L37122 31951
L37086 31963
L37027 31963
" />
<path d="M37384 31796
L37384 31963
" />
<path d="M37324 31701
L37265 31880
L37420 31880
" />
<path d="M20527 36963
L20527 36713
L20586 36713
L20622 36725
L20646 36749
L20658 36773
L20670 36820
L20670 36856
L20658 36903
L20646 36927
L20622 36951
L20586 36963
L20527 36963
" />
<path d="M20753 36713
L20920 36713
L20813 36963
" />
<path d="M49497 29605
L49414 29486
" />
<path d="M49354 29605
L49354 29355
L49450 29355
L49473 29367
L49485 29379
L49497 29402
L49497 29438
L49485 29462
L49473 29474
L49450 29486
L49354 29486
" />
<path d="M49735 29605
L49592 29605
" />
<path d="M49664 29605
L49664 29355
L49640 29390
L49616 29414
L49592 29426
" />
<path d="M47370 35763
L47286 35644
" />
<path d="M47227 35763
L47227 35513
L47322 35513
L47346 35525
L47358 35537
L47370 35561
L47370 35596
L47358 35620
L47346 35632
L47322 35644
L47227 35644
" />
<path d="M47465 35537
L47477 35525
L47501 35513
L47560 35513
L47584 35525
L47596 35537
L47608 35561
L47608 35584
L47596 35620
L47453 35763
L47608 35763
" />
<path d="M22670 35063
L22586 34944
" />
<path d="M22527 35063
L22527 34813
L22622 34813
L22646 34825
L22658 34837
L22670 34861
L22670 34896
L22658 34920
L22646 34932
L22622 34944
L22527 34944
" />
<path d="M22753 34813
L22908 34813
L22824 34908
L22860 34908
L22884 34920
L22896 34932
L22908 34956
L22908 35015
L22896 35039
L22884 35051
L22860 35063
L22789 35063
L22765 35051
L22753 35039
" />
<path d="M34970 34463
L34886 34344
" />
<path d="M34827 34463
L34827 34213
L34922 34213
L34946 34225
L34958 34237
L34970 34261
L34970 34296
L34958 34320
L34946 34332
L34922 34344
L34827 34344
" />
<path d="M35184 34296
L35184 34463
" />
<path d="M35124 34201
L35065 34380
L35220 34380
" />
<path d="M37170 34463
L37086 34344
" />
<path d="M37027 34463
L37027 34213
L37122 34213
L37146 34225
L37158 34237
L37170 34261
L37170 34296
L37158 34320
L37146 34332
L37122 34344
L37027 34344
" />
<path d="M37396 34213
L37277 34213
L37265 34332
L37277 34320
L37301 34308
L37360 34308
L37384 34320
L37396 34332
L37408 34356
L37408 34415
L37396 34439
L37384 34451
L37360 34463
L37301 34463
L37277 34451
L37265 34439
" />
</g>
<g style="fill:#000000; fill-opacity:0.0; 
stroke:#000000; stroke-width:59.0551; stroke-opacity:1; 
stroke-linecap:round; stroke-linejoin:round;">
<path d="M38970 15963
L38886 15844
" />
<path d="M38827 15963
L38827 15713
L38922 15713
L38946 15725
L38958 15737
L38970 15761
L38970 15796
L38958 15820
L38946 15832
L38922 15844
L38827 15844
" />
<path d="M39184 15713
L39136 15713
L39113 15725
L39101 15737
L39077 15773
L39065 15820
L39065 15915
L39077 15939
L39089 15951
L39113 15963
L39160 15963
L39184 15951
L39196 15939
L39208 15915
L39208 15856
L39196 15832
L39184 15820
L39160 15808
L39113 15808
L39089 15820
L39077 15832
L39065 15856
" />
</g>
<g style="fill:#000000; fill-opacity:0.0; 
stroke:#000000; stroke-width:50; stroke-opacity:1; 
stroke-linecap:round; stroke-linejoin:round;">
<path d="M48234 31641
L48151 31522
" />
<path d="M48091 31641
L48091 31391
L48187 31391
L48210 31403
L48222 31415
L48234 31439
L48234 31474
L48222 31498
L48210 31510
L48187 31522
L48091 31522
" />
<path d="M48318 31391
L48484 31391
L48377 31641
" />
<path d="M46955 31641
L46871 31522
" />
<path d="M46812 31641
L46812 31391
L46907 31391
L46931 31403
L46943 31415
L46955 31439
L46955 31474
L46943 31498
L46931 31510
L46907 31522
L46812 31522
" />
<path d="M47098 31498
L47074 31486
L47062 31474
L47050 31450
L47050 31439
L47062 31415
L47074 31403
L47098 31391
L47145 31391
L47169 31403
L47181 31415
L47193 31439
L47193 31450
L47181 31474
L47169 31486
L47145 31498
L47098 31498
L47074 31510
L47062 31522
L47050 31546
L47050 31593
L47062 31617
L47074 31629
L47098 31641
L47145 31641
L47169 31629
L47181 31617
L47193 31593
L47193 31546
L47181 31522
L47169 31510
L47145 31498
" />
<path d="M29263 31463
L29179 31344
" />
<path d="M29120 31463
L29120 31213
L29215 31213
L29239 31225
L29251 31237
L29263 31261
L29263 31296
L29251 31320
L29239 31332
L29215 31344
L29120 31344
" />
<path d="M29334 31213
L29417 31463
L29501 31213
" />
<path d="M29715 31463
L29572 31463
" />
<path d="M29643 31463
L29643 31213
L29620 31249
L29596 31273
L29572 31284
" />
<path d="M32963 31463
L32879 31344
" />
<path d="M32820 31463
L32820 31213
L32915 31213
L32939 31225
L32951 31237
L32963 31261
L32963 31296
L32951 31320
L32939 31332
L32915 31344
L32820 31344
" />
<path d="M33034 31213
L33117 31463
L33201 31213
" />
<path d="M33272 31237
L33284 31225
L33308 31213
L33367 31213
L33391 31225
L33403 31237
L33415 31261
L33415 31284
L33403 31320
L33260 31463
L33415 31463
" />
<path d="M39409 26513
L39576 26763
" />
<path d="M39576 26513
L39409 26763
" />
<path d="M39659 26537
L39671 26525
L39695 26513
L39754 26513
L39778 26525
L39790 26537
L39802 26561
L39802 26584
L39790 26620
L39647 26763
L39802 26763
" />
</g>
<g style="fill:#000000; fill-opacity:0.0; 
stroke:#000000; stroke-width:59.0551; stroke-opacity:1; 
stroke-linecap:round; stroke-linejoin:round;">
<path d="M41947 38890
L41554 38890
L41554 38741
L41572 38703
L41591 38684
L41629 38666
L41685 38666
L41722 38684
L41741 38703
L41760 38741
L41760 38890
" />
<path d="M41554 38328
L41554 38403
L41572 38441
L41591 38459
L41647 38497
L41722 38516
L41872 38516
L41910 38497
L41929 38478
L41947 38441
L41947 38366
L41929 38328
L41910 38309
L41872 38291
L41779 38291
L41741 38309
L41722 38328
L41704 38366
L41704 38441
L41722 38478
L41741 38497
L41779 38516
" />
</g> 
</svg>
