M48
;DRILL file {KiCad 4.0.1-stable} date 04-Oct-16 9:16:07 AM
;FORMAT={-:-/ absolute / metric / decimal}
FMAT,2
METRIC,TZ
T1C0.762
T2C0.800
T3C0.813
T4C0.998
T5C1.016
T6C1.100
T7C1.199
T8C2.301
T9C3.048
%
G90
G05
M71
T1
X98.046Y-67.675
X103.126Y-67.675
T2
X49.75Y-61.
X50.25Y-58.5
X53.Y-54.75
X53.25Y-68.75
X54.25Y-61.25
X57.25Y-47.
X61.5Y-75.
X62.25Y-67.
X79.Y-68.25
X85.25Y-84.
X88.Y-53.75
X92.25Y-52.
X95.5Y-49.25
X99.75Y-36.25
X103.5Y-44.5
X111.5Y-48.
X113.75Y-45.75
X116.75Y-70.25
X116.87Y-89.028
X119.75Y-40.75
X123.5Y-47.
X127.5Y-71.25
T3
X49.001Y-46.46
X49.001Y-49.
X51.Y-46.46
X51.Y-49.
X66.804Y-58.531
X66.804Y-73.771
X69.344Y-58.531
X69.344Y-73.771
X71.884Y-58.531
X71.884Y-73.771
X74.424Y-58.531
X74.424Y-73.771
X76.964Y-58.531
X76.964Y-73.771
X79.504Y-58.531
X79.504Y-73.771
X82.044Y-58.531
X82.044Y-73.771
X84.584Y-58.531
X84.584Y-73.771
X87.124Y-58.531
X87.124Y-73.771
X89.664Y-58.531
X89.664Y-73.771
X92.204Y-58.531
X92.204Y-73.771
X94.744Y-58.531
X94.744Y-73.771
X97.284Y-58.531
X97.284Y-73.771
X99.824Y-58.531
X99.824Y-73.771
X101.376Y-85.98
X102.364Y-58.531
X102.364Y-73.771
X104.904Y-58.531
X104.904Y-73.771
X106.456Y-85.98
X107.444Y-58.531
X107.444Y-73.771
X109.984Y-58.531
X109.984Y-73.771
X111.282Y-85.98
X112.524Y-58.531
X112.524Y-73.771
X115.064Y-58.531
X115.064Y-73.771
X116.362Y-85.98
X126.395Y-83.44
X131.475Y-83.44
T4
X57.942Y-43.689
X60.482Y-43.689
X63.022Y-43.689
X65.562Y-43.689
X68.102Y-43.689
X70.642Y-43.689
X73.182Y-43.689
X75.722Y-43.689
X78.262Y-43.689
X80.802Y-43.689
X83.342Y-43.689
X85.882Y-43.689
X88.422Y-43.689
X90.962Y-43.689
X93.502Y-43.689
X96.042Y-43.689
T5
X47.147Y-60.961
X47.147Y-63.501
X47.147Y-66.041
X47.147Y-68.581
X47.147Y-71.121
X47.147Y-73.661
X52.989Y-38.482
X55.529Y-38.482
X69.88Y-92.965
X69.88Y-95.505
X69.88Y-98.045
X72.42Y-92.965
X72.42Y-95.505
X72.42Y-98.045
X74.96Y-92.965
X74.96Y-95.505
X74.96Y-98.045
X78.389Y-33.91
X80.675Y-97.918
X80.929Y-33.91
X83.215Y-97.918
X83.469Y-33.91
X85.755Y-97.918
X86.009Y-33.91
X88.295Y-97.918
X88.549Y-33.91
X90.835Y-97.918
X91.089Y-33.91
X93.375Y-97.918
X93.629Y-33.91
X95.915Y-98.045
X96.169Y-33.91
X98.455Y-98.045
X100.995Y-98.045
X106.075Y-33.91
X106.075Y-98.045
X108.615Y-33.91
X108.615Y-98.045
X111.155Y-33.91
X111.155Y-98.045
X113.695Y-33.91
X113.695Y-98.045
X116.235Y-33.91
X116.235Y-98.045
X118.775Y-33.91
X118.775Y-98.045
X121.315Y-33.91
X121.315Y-98.045
X123.855Y-33.91
X123.855Y-98.045
T6
X57.99Y-95.505
X60.99Y-95.505
X63.99Y-95.505
T7
X68.61Y-85.345
X71.109Y-80.306
X73.609Y-85.345
X78.135Y-85.345
X80.634Y-80.306
X83.134Y-85.345
T8
X46.301Y-41.731
X46.301Y-53.729
T9
X47.5Y-34.5
X47.5Y-97.5
X130.5Y-34.5
X130.5Y-97.5
T5
X47.Y-84.988G85X47.Y-86.512
G05
X48.738Y-90.83G85X50.262Y-90.83
G05
X53.096Y-84.988G85X53.096Y-86.512
G05
X55.59Y-94.763G85X55.59Y-96.247
G05
X66.39Y-94.763G85X66.39Y-96.247
G05
T0
M30
