G04 #@! TF.FileFunction,Soldermask,Bot*
%FSLAX46Y46*%
G04 Gerber Fmt 4.6, Leading zero omitted, Abs format (unit mm)*
G04 Created by KiCad (PCBNEW 4.0.1-stable) date 04-Oct-16 9:16:03 AM*
%MOMM*%
G01*
G04 APERTURE LIST*
%ADD10C,0.150000*%
%ADD11C,0.381000*%
%ADD12C,2.032000*%
%ADD13C,4.008000*%
%ADD14R,2.082800X2.794000*%
%ADD15O,2.082800X2.794000*%
%ADD16C,4.572000*%
%ADD17C,3.007360*%
%ADD18C,1.905000*%
%ADD19C,1.930400*%
%ADD20R,2.540000X2.235200*%
%ADD21O,2.540000X2.235200*%
%ADD22O,2.438400X4.368800*%
%ADD23R,2.235200X2.540000*%
%ADD24O,2.235200X2.540000*%
%ADD25R,2.540000X2.540000*%
%ADD26O,2.540000X2.540000*%
%ADD27C,5.308600*%
%ADD28R,5.308600X5.308600*%
%ADD29R,2.808000X2.808000*%
%ADD30C,3.008000*%
%ADD31O,2.159000X4.508000*%
G04 APERTURE END LIST*
D10*
D11*
X47500000Y-101000000D02*
X130500000Y-101000000D01*
X44000000Y-34500000D02*
X44000000Y-97500000D01*
X48500000Y-31000000D02*
X47500000Y-31000000D01*
X130500000Y-31000000D02*
X48500000Y-31000000D01*
X134000000Y-97500000D02*
X134000000Y-34500000D01*
X130500000Y-101000000D02*
G75*
G03X134000000Y-97500000I0J3500000D01*
G01*
X44000000Y-97500000D02*
G75*
G03X47500000Y-101000000I3500000J0D01*
G01*
X47500000Y-31000000D02*
G75*
G03X44000000Y-34500000I0J-3500000D01*
G01*
X134000000Y-34500000D02*
G75*
G03X130500000Y-31000000I-3500000J0D01*
G01*
D12*
X51000000Y-46460000D03*
X51000000Y-49000000D03*
X49001020Y-49000000D03*
X49001020Y-46460000D03*
D13*
X46301000Y-41730520D03*
X46301000Y-53729480D03*
D14*
X66804000Y-73771000D03*
D15*
X69344000Y-73771000D03*
X71884000Y-73771000D03*
X74424000Y-73771000D03*
X76964000Y-73771000D03*
X79504000Y-73771000D03*
X82044000Y-73771000D03*
X84584000Y-73771000D03*
X87124000Y-73771000D03*
X89664000Y-73771000D03*
X92204000Y-73771000D03*
X94744000Y-73771000D03*
X97284000Y-73771000D03*
X99824000Y-73771000D03*
X102364000Y-73771000D03*
X104904000Y-73771000D03*
X107444000Y-73771000D03*
X109984000Y-73771000D03*
X112524000Y-73771000D03*
X115064000Y-73771000D03*
X115064000Y-58531000D03*
X112524000Y-58531000D03*
X109984000Y-58531000D03*
X107444000Y-58531000D03*
X104904000Y-58531000D03*
X102364000Y-58531000D03*
X99824000Y-58531000D03*
X97284000Y-58531000D03*
X94744000Y-58531000D03*
X92204000Y-58531000D03*
X89664000Y-58531000D03*
X87124000Y-58531000D03*
X84584000Y-58531000D03*
X82044000Y-58531000D03*
X79504000Y-58531000D03*
X76964000Y-58531000D03*
X74424000Y-58531000D03*
X71884000Y-58531000D03*
X69344000Y-58531000D03*
X66804000Y-58531000D03*
D16*
X47500000Y-34500000D03*
X47500000Y-97500000D03*
X130500000Y-97500000D03*
X130500000Y-34500000D03*
D17*
X71109360Y-80305640D03*
X73608720Y-85345000D03*
X68610000Y-85345000D03*
X80634360Y-80305640D03*
X83133720Y-85345000D03*
X78135000Y-85345000D03*
D18*
X131475000Y-83440000D03*
X126395000Y-83440000D03*
X101376000Y-85980000D03*
X106456000Y-85980000D03*
X111282000Y-85980000D03*
X116362000Y-85980000D03*
D19*
X103126000Y-67675000D03*
X98046000Y-67675000D03*
D20*
X69880000Y-92965000D03*
D21*
X69880000Y-95505000D03*
X69880000Y-98045000D03*
D20*
X72420000Y-92965000D03*
D21*
X72420000Y-95505000D03*
X72420000Y-98045000D03*
D20*
X74960000Y-92965000D03*
D21*
X74960000Y-95505000D03*
X74960000Y-98045000D03*
D22*
X57942000Y-43689000D03*
X60482000Y-43689000D03*
X63022000Y-43689000D03*
X65562000Y-43689000D03*
X68102000Y-43689000D03*
X70642000Y-43689000D03*
X73182000Y-43689000D03*
X75722000Y-43689000D03*
X78262000Y-43689000D03*
X80802000Y-43689000D03*
X83342000Y-43689000D03*
X85882000Y-43689000D03*
X88422000Y-43689000D03*
X90962000Y-43689000D03*
X93502000Y-43689000D03*
X96042000Y-43689000D03*
D23*
X93375000Y-97918000D03*
D24*
X90835000Y-97918000D03*
X88295000Y-97918000D03*
X85755000Y-97918000D03*
X83215000Y-97918000D03*
X80675000Y-97918000D03*
D23*
X100995000Y-98045000D03*
D24*
X98455000Y-98045000D03*
X95915000Y-98045000D03*
D23*
X106075000Y-98045000D03*
D24*
X108615000Y-98045000D03*
X111155000Y-98045000D03*
X113695000Y-98045000D03*
X116235000Y-98045000D03*
X118775000Y-98045000D03*
X121315000Y-98045000D03*
X123855000Y-98045000D03*
D23*
X78389000Y-33910000D03*
D24*
X80929000Y-33910000D03*
X83469000Y-33910000D03*
X86009000Y-33910000D03*
X88549000Y-33910000D03*
X91089000Y-33910000D03*
X93629000Y-33910000D03*
X96169000Y-33910000D03*
D23*
X123855000Y-33910000D03*
D24*
X121315000Y-33910000D03*
X118775000Y-33910000D03*
X116235000Y-33910000D03*
X113695000Y-33910000D03*
X111155000Y-33910000D03*
X108615000Y-33910000D03*
X106075000Y-33910000D03*
D20*
X47147000Y-60961000D03*
D21*
X47147000Y-63501000D03*
X47147000Y-66041000D03*
X47147000Y-68581000D03*
X47147000Y-71121000D03*
X47147000Y-73661000D03*
D25*
X55529000Y-38482000D03*
D26*
X52989000Y-38482000D03*
D27*
X47000000Y-85750000D03*
D28*
X53096000Y-85750000D03*
D27*
X49500000Y-90830000D03*
D29*
X57990000Y-95505000D03*
D30*
X60990000Y-95505000D03*
X63990000Y-95505000D03*
D31*
X66390040Y-95505000D03*
X55589960Y-95505000D03*
M02*
